<svg xmlns="http://www.w3.org/2000/svg" xmlns:xlink="http://www.w3.org/1999/xlink" viewBox="0 0 807.87 595.28"><defs><style>.cls-1{isolation:isolate;}.cls-2{fill:#0b335a;}.cls-3{opacity:0.3;}.cls-4{fill:#1a5e99;}.cls-5{mask:url(#mask);}.cls-6{opacity:0.5;mix-blend-mode:screen;}.cls-7{fill:#d2ebf0;}.cls-8{fill:#6ca3bd;}.cls-9{fill:#3b9ccb;}.cls-10{fill:#95d3df;}.cls-11{fill:#58c3eb;}.cls-12{filter:url(#luminosity-invert);}</style><filter id="luminosity-invert" filterUnits="userSpaceOnUse" color-interpolation-filters="sRGB"><feColorMatrix values="-1 0 0 0 1 0 -1 0 0 1 0 0 -1 0 1 0 0 0 1 0"/></filter></defs><title>框</title><g class="cls-1"><g id="图层_1" data-name="图层 1"><rect class="cls-2" width="807.87" height="595.28"/><g class="cls-3"><polygon class="cls-4" points="727.64 348.09 728.5 211.5 744.15 202.82 744.15 160.06 727.47 143.35 565.03 143.35 550.9 159.45 405.6 159.45 260.29 159.45 246.17 143.35 83.73 143.35 67.03 160.06 67.03 202.82 82.7 211.51 82.7 348.56 67.03 357.18 67.03 399.93 83.74 416.64 253.81 416.64 297.93 443.72 405.6 443.72 513.26 443.72 557.72 416.64 727.43 416.64 744.15 399.93 744.15 357.18 727.64 348.09"/><g class="cls-5"><g class="cls-6"><polygon class="cls-7" points="727.64 348.09 728.5 211.5 744.15 202.82 744.15 160.06 727.47 143.35 565.03 143.35 550.9 159.45 405.6 159.45 260.29 159.45 246.17 143.35 83.73 143.35 67.03 160.06 67.03 202.82 82.7 211.51 82.7 348.56 67.03 357.18 67.03 399.93 83.74 416.64 253.81 416.64 297.93 443.72 405.6 443.72 513.26 443.72 557.72 416.64 727.43 416.64 744.15 399.93 744.15 357.18 727.64 348.09"/></g></g></g><rect class="cls-8" x="125.81" y="415.63" width="127.04" height="1"/><rect class="cls-8" x="248.83" y="429.18" width="53.11" height="1" transform="translate(259.23 -80.42) rotate(30.84)"/><rect class="cls-8" x="509.24" y="429.18" width="53.11" height="1" transform="translate(-144.51 335.45) rotate(-30.84)"/><rect class="cls-8" x="557.71" y="415.63" width="128" height="1"/><polygon class="cls-9" points="153.53 146.35 138.53 146.35 136.53 143.35 151.53 143.35 153.53 146.35"/><polygon class="cls-9" points="238.53 146.35 223.53 146.35 221.53 143.35 236.53 143.35 238.53 146.35"/><polygon class="cls-9" points="159.53 146.35 157.53 146.35 155.53 143.35 157.53 143.35 159.53 146.35"/><polygon class="cls-9" points="164.53 146.35 162.53 146.35 160.53 143.35 162.53 143.35 164.53 146.35"/><polygon class="cls-9" points="169.53 146.35 167.53 146.35 165.53 143.35 167.53 143.35 169.53 146.35"/><polygon class="cls-9" points="174.53 146.35 172.53 146.35 170.53 143.35 172.53 143.35 174.53 146.35"/><polygon class="cls-9" points="179.53 146.35 177.53 146.35 175.53 143.35 177.53 143.35 179.53 146.35"/><polygon class="cls-9" points="184.53 146.35 182.53 146.35 180.53 143.35 182.53 143.35 184.53 146.35"/><polygon class="cls-9" points="189.53 146.35 187.53 146.35 185.53 143.35 187.53 143.35 189.53 146.35"/><polygon class="cls-9" points="194.53 146.35 192.53 146.35 190.53 143.35 192.53 143.35 194.53 146.35"/><polygon class="cls-9" points="199.53 146.35 197.53 146.35 195.53 143.35 197.53 143.35 199.53 146.35"/><polygon class="cls-9" points="204.53 146.35 202.53 146.35 200.53 143.35 202.53 143.35 204.53 146.35"/><polygon class="cls-9" points="209.53 146.35 207.53 146.35 205.53 143.35 207.53 143.35 209.53 146.35"/><polygon class="cls-9" points="214.53 146.35 212.53 146.35 210.53 143.35 212.53 143.35 214.53 146.35"/><polygon class="cls-9" points="219.53 146.35 217.53 146.35 215.53 143.35 217.53 143.35 219.53 146.35"/><polygon class="cls-9" points="657.62 146.35 672.62 146.35 674.62 143.35 659.62 143.35 657.62 146.35"/><polygon class="cls-9" points="572.62 146.35 587.62 146.35 589.62 143.35 574.62 143.35 572.62 146.35"/><polygon class="cls-9" points="651.62 146.35 653.62 146.35 655.62 143.35 653.62 143.35 651.62 146.35"/><polygon class="cls-9" points="646.62 146.35 648.62 146.35 650.62 143.35 648.62 143.35 646.62 146.35"/><polygon class="cls-9" points="641.62 146.35 643.62 146.35 645.62 143.35 643.62 143.35 641.62 146.35"/><polygon class="cls-9" points="636.62 146.35 638.62 146.35 640.62 143.35 638.62 143.35 636.62 146.35"/><polygon class="cls-9" points="631.62 146.35 633.62 146.35 635.62 143.35 633.62 143.35 631.62 146.35"/><polygon class="cls-9" points="626.62 146.35 628.62 146.35 630.62 143.35 628.62 143.35 626.62 146.35"/><polygon class="cls-9" points="621.62 146.35 623.62 146.35 625.62 143.35 623.62 143.35 621.62 146.35"/><polygon class="cls-9" points="616.62 146.35 618.62 146.35 620.62 143.35 618.62 143.35 616.62 146.35"/><polygon class="cls-9" points="611.62 146.35 613.62 146.35 615.62 143.35 613.62 143.35 611.62 146.35"/><polygon class="cls-9" points="606.62 146.35 608.62 146.35 610.62 143.35 608.62 143.35 606.62 146.35"/><polygon class="cls-9" points="601.62 146.35 603.62 146.35 605.62 143.35 603.62 143.35 601.62 146.35"/><polygon class="cls-9" points="596.62 146.35 598.62 146.35 600.62 143.35 598.62 143.35 596.62 146.35"/><polygon class="cls-9" points="591.62 146.35 593.62 146.35 595.62 143.35 593.62 143.35 591.62 146.35"/><polygon class="cls-10" points="69.99 161.29 84.97 146.31 113.33 146.31 114.83 149.03 129.63 149.03 126.49 143.35 113.33 143.35 113.33 143.35 83.74 143.35 83.74 143.35 83.74 143.35 67.03 160.06 67.03 160.06 67.03 188.03 67.03 189.65 67.03 202.82 72.71 205.95 72.71 191.16 69.98 189.65 69.99 189.65 69.99 161.29"/><polygon class="cls-11" points="72.28 160.09 84.11 160.09 84.11 148.26 72.28 160.09"/><polygon class="cls-10" points="741.19 161.29 726.21 146.31 697.85 146.31 696.35 149.03 681.55 149.03 684.68 143.35 697.84 143.35 697.84 143.35 727.43 143.35 727.43 143.35 727.43 143.35 744.14 160.06 744.15 160.06 744.15 188.03 744.15 189.65 744.15 202.82 738.47 205.95 738.47 191.16 741.19 189.65 741.19 189.65 741.19 161.29"/><polygon class="cls-11" points="738.9 160.09 727.06 160.09 727.06 148.26 738.9 160.09"/><polygon class="cls-10" points="69.99 398.71 84.97 413.69 113.33 413.69 114.83 410.96 129.63 410.96 126.49 416.64 113.33 416.64 113.33 416.64 83.74 416.64 83.74 416.64 83.74 416.64 67.03 399.93 67.03 399.93 67.03 371.97 67.03 370.34 67.03 357.18 72.71 354.04 72.71 368.84 69.98 370.34 69.99 370.34 69.99 398.71"/><polygon class="cls-11" points="72.28 399.9 84.11 399.9 84.11 411.74 72.28 399.9"/><polygon class="cls-10" points="741.19 398.71 726.21 413.69 697.85 413.69 696.35 410.96 681.55 410.96 684.68 416.64 697.84 416.64 697.84 416.64 727.43 416.64 727.43 416.64 727.43 416.64 744.14 399.93 744.15 399.93 744.15 371.97 744.15 370.34 744.15 357.18 738.47 354.04 738.47 368.84 741.19 370.34 741.19 370.34 741.19 398.71"/><polygon class="cls-11" points="738.9 399.9 727.06 399.9 727.06 411.74 738.9 399.9"/><rect class="cls-8" x="297.92" y="442.72" width="215.33" height="1"/></g></g></svg>