<svg xmlns="http://www.w3.org/2000/svg" viewBox="0 0 64.5 35.687"><title>框1 (2)</title><rect x="0.25" y="0.25" width="64" height="35.186" rx="0.618" ry="0.618" style="fill:none;stroke:#82b3dc;stroke-miterlimit:10;stroke-width:0.5px"/><path d="M262.75,146.761v-1.232a.62.62,0,0,1,.618-.618H264.6" transform="translate(-262.5 -144.661)" style="fill:none;stroke:#263980;stroke-miterlimit:10;stroke-width:0.5px"/><path d="M324.9,144.911h1.232a.62.62,0,0,1,.618.618v1.235" transform="translate(-262.5 -144.661)" style="fill:none;stroke:#263980;stroke-miterlimit:10;stroke-width:0.5px"/><polygon points="62.561 3.686 62.561 1.775 1.939 1.775 1.939 5.479 60.768 5.479 62.561 3.686" style="fill:#263980;stroke:#a0dffe;stroke-miterlimit:10;stroke-width:0.25px"/><path d="M262.75,178.249v1.232a.62.62,0,0,0,.618.618H264.6" transform="translate(-262.5 -144.661)" style="fill:none;stroke:#263980;stroke-miterlimit:10;stroke-width:0.5px"/><path d="M324.9,180.1h1.232a.62.62,0,0,0,.618-.618v-1.235" transform="translate(-262.5 -144.661)" style="fill:none;stroke:#263980;stroke-miterlimit:10;stroke-width:0.5px"/></svg>