<svg xmlns="http://www.w3.org/2000/svg" xmlns:xlink="http://www.w3.org/1999/xlink" viewBox="0 0 64 44.36"><defs><linearGradient id="a" x1="403.935" y1="42.2" x2="403.935" y2="86.56" gradientTransform="matrix(1, 0, 0, -1, -144.3, 244.31)" gradientUnits="userSpaceOnUse"><stop offset="0" stop-color="#2c93d2"/><stop offset="1" stop-color="#3fbccf"/></linearGradient></defs><title>框1 (1)</title><path d="M227.635,157.754v3.636l3.636-3.636Zm.458.458h1.98l-1.982,1.981Z" transform="translate(-227.635 -157.75)" style="fill:#1ed2e5"/><path d="M289.108,161.982H277.893l-4.233-4.232H233.031l-5.4,5.3v35.524l3.537,3.536h56.905l3.558-3.558V164.514Zm1.944,36.236-3.494,3.488H231.69l-3.476-3.472V163.363l5.3-5.2H273.4l4.155,4.154h11.011l2.481,2.481Z" transform="translate(-227.635 -157.75)" style="fill:url(#a)"/><polygon points="52.566 3.773 51.869 3.773 48.171 0.004 48.869 0.004 52.566 3.773" style="fill:#1ed2e5"/><polygon points="58.158 43.093 58.857 43.093 62.554 39.323 61.855 39.323 58.158 43.093" style="fill:#24a2eb"/></svg>