<svg id="图层_1" data-name="图层 1" xmlns="http://www.w3.org/2000/svg" xmlns:xlink="http://www.w3.org/1999/xlink" viewBox="0 0 519.27 359.89"><defs><style>.cls-1{fill:#1ed2e5;}.cls-2{fill:url(#未命名的渐变_29);}.cls-3{fill:#24a2eb;}</style><linearGradient id="未命名的渐变_29" x1="403.94" y1="477.58" x2="403.94" y2="117.69" gradientUnits="userSpaceOnUse"><stop offset="0" stop-color="#2c93d2"/><stop offset="1" stop-color="#3fbccf"/></linearGradient></defs><title>蓝绿色渐变发光现代几何方形科技边框</title><path class="cls-1" d="M144.3,117.69v29.5l29.5-29.5Zm3.72,3.72h16.06L148,137.48Z" transform="translate(-144.3 -117.69)"/><path class="cls-2" d="M643.07,152h-91l-34.34-34.34H188.08l-43.78,43V448.89L173,477.58H634.7l28.87-28.87V172.54ZM658.84,446,630.49,474.3H177.2L149,446.13V163.2L192,121H515.66l33.71,33.71h89.34l20.13,20.13Z" transform="translate(-144.3 -117.69)"/><polygon class="cls-1" points="426.5 30.58 420.84 30.58 390.84 0 396.5 0 426.5 30.58"/><polygon class="cls-3" points="471.87 349.61 477.54 349.61 507.54 319.02 501.87 319.02 471.87 349.61"/></svg>