<svg xmlns="http://www.w3.org/2000/svg" viewBox="0 0 241.545 170.653"><title>框1.4</title><path d="M797.762,467.19H568.125l-5.953-5.953V429.66l2.375-2.376V337.907l-2.375-2.376V303.954l5.222-5.224h36.122l2.74,2.741H759.631l2.74-2.741h36.123l5.223,5.224v31.577l-2.377,2.376v89.377l2.377,2.376v31.577Zm-229.487-.365H797.611l5.739-5.739V429.81l-2.375-2.375V337.756l2.375-2.375V304.105l-5.008-5.009H762.521l-2.74,2.741H606.105l-2.74-2.741h-35.82l-5.008,5.009v31.276l2.375,2.375v89.679l-2.375,2.375v31.276Z" transform="translate(-562.172 -298.73)" style="fill:#33bef2"/><polygon points="47.322 2.74 44.01 2.74 41.268 0 44.855 0 47.322 2.74" style="fill:#33bef2"/><polygon points="2.74 125.057 2.74 128.369 0 131.109 0 127.522 2.74 125.057" style="fill:#33bef2"/><polygon points="2.74 42.858 2.74 39.546 0 36.805 0 40.392 2.74 42.858" style="fill:#33bef2"/><polygon points="238.803 125.057 238.803 128.369 241.545 131.109 241.545 127.522 238.803 125.057" style="fill:#33bef2"/><polygon points="238.803 42.858 238.803 39.546 241.545 36.805 241.545 40.392 238.803 42.858" style="fill:#33bef2"/><polygon points="194.361 2.74 197.676 2.74 200.416 0 196.828 0 194.361 2.74" style="fill:#33bef2"/><polygon points="43.941 170.653 8.131 170.653 5.937 168.46 46.135 168.46 43.941 170.653" style="fill:#33bef2"/><polygon points="197.601 170.653 233.414 170.653 235.605 168.46 195.41 168.46 197.601 170.653" style="fill:#33bef2"/><rect x="44.01" y="2.056" width="153.379" height="0.73" style="fill:#33bef2"/></svg>