<svg xmlns="http://www.w3.org/2000/svg" viewBox="0 0 448.426 249.458"><title>框1.1</title><path d="M810.137,268.664a1.791,1.791,0,1,1,1.791,1.791A1.791,1.791,0,0,1,810.137,268.664Z" transform="translate(-458.289 -260.224)" style="fill:#33bef2"/><circle cx="442.237" cy="232.439" r="1.791" style="fill:#33bef2"/><path d="M831.648,503.5a1.791,1.791,0,1,1,1.791,1.792A1.79,1.79,0,0,1,831.648,503.5Z" transform="translate(-458.289 -260.224)" style="fill:#33bef2"/><path d="M867.648,276.333a2.15,2.15,0,1,1,2.151-2.149A2.152,2.152,0,0,1,867.648,276.333Zm0-3.582a1.433,1.433,0,1,0,1.434,1.433A1.434,1.434,0,0,0,867.648,272.751Z" transform="translate(-458.289 -260.224)" style="fill:#33bef2"/><path d="M899.324,272.016a2.149,2.149,0,1,1,2.151-2.15A2.151,2.151,0,0,1,899.324,272.016Zm0-3.582a1.433,1.433,0,1,0,1.434,1.432A1.434,1.434,0,0,0,899.324,268.434Z" transform="translate(-458.289 -260.224)" style="fill:#33bef2"/><path d="M904.566,467.248a2.15,2.15,0,1,1,2.149-2.149A2.151,2.151,0,0,1,904.566,467.248Zm0-3.583A1.433,1.433,0,1,0,906,465.1,1.435,1.435,0,0,0,904.566,463.665Z" transform="translate(-458.289 -260.224)" style="fill:#33bef2"/><path d="M806.383,509.682a2.15,2.15,0,1,1,2.148-2.15A2.151,2.151,0,0,1,806.383,509.682Zm0-3.582a1.433,1.433,0,1,0,1.431,1.432A1.434,1.434,0,0,0,806.383,506.1Z" transform="translate(-458.289 -260.224)" style="fill:#33bef2"/><polygon points="438.088 245.263 435.491 245.263 438.088 242.666 440.686 242.666 438.088 245.263" style="fill:#33bef2"/><polygon points="434.336 245.263 431.741 245.263 434.336 242.666 436.934 242.666 434.336 245.263" style="fill:#33bef2"/><polygon points="430.586 245.263 427.989 245.263 430.586 242.666 433.182 242.666 430.586 245.263" style="fill:#33bef2"/><polygon points="426.834 245.263 424.239 245.263 426.834 242.666 429.432 242.666 426.834 245.263" style="fill:#33bef2"/><polygon points="442.971 175.241 441.539 176.675 441.539 105.033 442.971 103.601 442.971 175.241" style="fill:#33bef2"/><polygon points="442.711 67.187 444.145 68.619 444.145 33.516 442.711 32.082 442.711 67.187" style="fill:#33bef2"/><polygon points="442.971 102.41 441.539 103.843 441.539 102.41 442.971 100.978 442.971 102.41" style="fill:#33bef2"/><polygon points="442.971 100.023 441.539 101.455 441.539 100.023 442.971 98.589 442.971 100.023" style="fill:#33bef2"/><polygon points="442.971 97.635 441.539 99.067 441.539 97.635 442.971 96.201 442.971 97.635" style="fill:#33bef2"/><polygon points="442.971 95.246 441.539 96.679 441.539 95.246 442.971 93.813 442.971 95.246" style="fill:#33bef2"/><polygon points="442.971 92.858 441.539 94.291 441.539 92.858 442.971 91.425 442.971 92.858" style="fill:#33bef2"/><polygon points="442.971 90.47 441.539 91.902 441.539 90.47 442.971 89.037 442.971 90.47" style="fill:#33bef2"/><rect x="437.334" y="18.471" width="1.195" height="1.193" style="fill:#33bef2"/><rect x="437.334" y="20.858" width="1.195" height="1.194" style="fill:#33bef2"/><rect x="437.334" y="23.246" width="1.195" height="1.194" style="fill:#33bef2"/><rect x="437.334" y="25.635" width="1.195" height="1.193" style="fill:#33bef2"/><rect x="437.334" y="28.023" width="1.195" height="1.194" style="fill:#33bef2"/><polygon points="429.547 12.342 429.547 17.165 434.231 17.165 429.547 12.342" style="fill:#33bef2"/><path d="M554.867,503.473a1.792,1.792,0,1,1-1.792-1.791A1.791,1.791,0,0,1,554.867,503.473Z" transform="translate(-458.289 -260.224)" style="fill:#33bef2"/><path d="M466.269,279.474a1.792,1.792,0,1,1-1.791-1.791A1.791,1.791,0,0,1,466.269,279.474Z" transform="translate(-458.289 -260.224)" style="fill:#33bef2"/><path d="M533.355,268.64a1.792,1.792,0,1,1-1.791-1.792A1.791,1.791,0,0,1,533.355,268.64Z" transform="translate(-458.289 -260.224)" style="fill:#33bef2"/><path d="M497.355,500.1a2.15,2.15,0,1,1,2.148-2.15A2.152,2.152,0,0,1,497.355,500.1Zm0-3.583a1.433,1.433,0,1,0,1.432,1.433A1.435,1.435,0,0,0,497.355,496.52Z" transform="translate(-458.289 -260.224)" style="fill:#33bef2"/><path d="M465.679,504.419a2.149,2.149,0,1,1,2.149-2.149A2.152,2.152,0,0,1,465.679,504.419Zm0-3.581a1.433,1.433,0,1,0,1.433,1.432A1.433,1.433,0,0,0,465.679,500.838Z" transform="translate(-458.289 -260.224)" style="fill:#33bef2"/><path d="M460.438,306.8a2.15,2.15,0,1,1,2.149-2.15A2.151,2.151,0,0,1,460.438,306.8Zm0-3.582a1.433,1.433,0,1,0,1.433,1.432A1.434,1.434,0,0,0,460.438,303.218Z" transform="translate(-458.289 -260.224)" style="fill:#33bef2"/><path d="M558.62,266.754a2.15,2.15,0,1,1,2.15-2.149A2.152,2.152,0,0,1,558.62,266.754Zm0-3.582a1.433,1.433,0,1,0,1.434,1.433A1.435,1.435,0,0,0,558.62,263.172Z" transform="translate(-458.289 -260.224)" style="fill:#33bef2"/><polygon points="10.338 6.904 12.936 6.904 10.338 9.502 7.742 9.502 10.338 6.904" style="fill:#33bef2"/><polygon points="14.089 6.904 16.687 6.904 14.089 9.502 11.493 9.502 14.089 6.904" style="fill:#33bef2"/><polygon points="17.84 6.904 20.438 6.904 17.84 9.502 15.244 9.502 17.84 6.904" style="fill:#33bef2"/><polygon points="21.592 6.904 24.189 6.904 21.592 9.502 18.996 9.502 21.592 6.904" style="fill:#33bef2"/><polygon points="5.455 71.672 6.888 70.239 6.888 141.881 5.455 143.313 5.455 71.672" style="fill:#33bef2"/><polygon points="5.715 179.727 4.283 178.294 4.283 213.399 5.715 214.831 5.715 179.727" style="fill:#33bef2"/><polygon points="5.455 144.503 6.888 143.07 6.888 144.503 5.455 145.936 5.455 144.503" style="fill:#33bef2"/><polygon points="5.455 146.892 6.888 145.458 6.888 146.892 5.455 148.324 5.455 146.892" style="fill:#33bef2"/><polygon points="5.455 149.279 6.888 147.847 6.888 149.279 5.455 150.712 5.455 149.279" style="fill:#33bef2"/><polygon points="5.455 151.667 6.888 150.234 6.888 151.667 5.455 153.1 5.455 151.667" style="fill:#33bef2"/><polygon points="5.455 154.056 6.888 152.623 6.888 154.056 5.455 155.488 5.455 154.056" style="fill:#33bef2"/><polygon points="5.455 156.443 6.888 155.011 6.888 156.443 5.455 157.876 5.455 156.443" style="fill:#33bef2"/><rect x="9.898" y="232.025" width="1.194" height="1.194" style="fill:#33bef2"/><rect x="9.898" y="229.638" width="1.194" height="1.193" style="fill:#33bef2"/><rect x="9.898" y="227.249" width="1.194" height="1.194" style="fill:#33bef2"/><rect x="9.898" y="224.861" width="1.194" height="1.194" style="fill:#33bef2"/><rect x="9.898" y="222.474" width="1.194" height="1.193" style="fill:#33bef2"/><polygon points="18.88 239.349 18.88 234.524 14.197 234.524 18.88 239.349" style="fill:#33bef2"/><polygon points="2.508 42.636 1.792 42.636 1.792 16.093 6.023 11.856 24.023 11.902 30.696 4.023 98.541 4.023 98.541 4.739 31.028 4.739 24.355 12.619 6.319 12.573 2.508 16.39 2.508 42.636" style="fill:#33bef2"/><polygon points="407.569 14.318 337.622 14.318 328.465 4.739 141.693 4.739 137.659 8.773 75.066 8.773 75.066 8.057 137.362 8.057 141.395 4.023 328.772 4.023 337.928 13.602 407.569 13.602 407.569 14.318" style="fill:#33bef2"/><polygon points="438.157 17.421 429.399 8.799 355.43 8.799 355.43 8.082 429.694 8.082 438.661 16.91 438.157 17.421" style="fill:#33bef2"/><polygon points="442.594 230.649 441.879 230.649 441.879 196.85 445.461 193.149 445.461 75.727 440.678 70.942 440.678 11.434 441.395 11.434 441.395 70.645 446.178 75.429 446.178 193.438 442.594 197.139 442.594 230.649" style="fill:#33bef2"/><polygon points="439.188 247.667 421.625 247.667 417.83 243.632 389.364 243.632 385.33 247.667 349.885 247.667 349.885 246.951 385.034 246.951 389.069 242.916 418.139 242.916 421.934 246.951 438.873 246.951 445.918 239.338 445.918 206.666 446.635 206.666 446.635 239.619 439.188 247.667" style="fill:#33bef2"/><polygon points="307.03 247.667 119.655 247.667 110.498 238.088 40.857 238.088 40.857 237.371 110.804 237.371 119.961 246.951 306.735 246.951 310.768 242.916 373.36 242.916 373.36 243.632 311.065 243.632 307.03 247.667" style="fill:#33bef2"/><polygon points="92.996 243.606 18.734 243.606 9.766 234.78 10.269 234.269 19.026 242.891 92.996 242.891 92.996 243.606" style="fill:#33bef2"/><polygon points="7.748 240.256 7.033 240.256 7.033 176.268 2.249 171.484 2.249 53.472 5.755 49.966 5.831 21.041 6.547 21.042 6.47 50.264 2.965 53.769 2.965 171.188 7.748 175.971 7.748 240.256" style="fill:#33bef2"/><polygon points="4.087 9.609 3.609 9.609 3.609 5.144 6.976 2.352 28.402 2.352 30.56 0 30.912 0.323 28.612 2.829 7.147 2.829 4.087 5.368 4.087 9.609" style="fill:#33bef2"/><rect x="3.848" y="8.718" width="2.676" height="0.892" style="fill:#33bef2"/><polygon points="68.39 4.562 66.388 2.829 31.293 2.829 31.293 2.352 66.566 2.352 68.703 4.2 68.39 4.562" style="fill:#33bef2"/></svg>