<svg xmlns="http://www.w3.org/2000/svg" viewBox="0 0 446.179 249.457"><title>框1.2</title><path d="M809.012,268.512a1.791,1.791,0,1,1,1.793,1.79A1.792,1.792,0,0,1,809.012,268.512Z" transform="translate(-459.413 -260.071)" style="fill:#33bef2"/><path d="M897.611,492.51A1.79,1.79,0,1,1,899.4,494.3,1.79,1.79,0,0,1,897.611,492.51Z" transform="translate(-459.413 -260.071)" style="fill:#33bef2"/><path d="M830.525,503.346a1.79,1.79,0,1,1,1.791,1.791A1.791,1.791,0,0,1,830.525,503.346Z" transform="translate(-459.413 -260.071)" style="fill:#33bef2"/><path d="M866.525,276.18a2.149,2.149,0,1,1,2.149-2.15A2.152,2.152,0,0,1,866.525,276.18Zm0-3.581a1.433,1.433,0,1,0,1.432,1.431A1.433,1.433,0,0,0,866.525,272.6Z" transform="translate(-459.413 -260.071)" style="fill:#33bef2"/><path d="M898.2,271.863a2.149,2.149,0,1,1,2.151-2.149A2.151,2.151,0,0,1,898.2,271.863Zm0-3.582a1.433,1.433,0,1,0,1.434,1.433A1.434,1.434,0,0,0,898.2,268.281Z" transform="translate(-459.413 -260.071)" style="fill:#33bef2"/><path d="M903.441,467.1a2.15,2.15,0,1,1,2.151-2.15A2.151,2.151,0,0,1,903.441,467.1Zm0-3.582a1.433,1.433,0,1,0,1.432,1.432A1.431,1.431,0,0,0,903.441,463.514Z" transform="translate(-459.413 -260.071)" style="fill:#33bef2"/><path d="M805.258,509.528a2.149,2.149,0,1,1,2.15-2.148A2.15,2.15,0,0,1,805.258,509.528Zm0-3.581a1.433,1.433,0,1,0,1.433,1.433A1.435,1.435,0,0,0,805.258,505.947Z" transform="translate(-459.413 -260.071)" style="fill:#33bef2"/><polygon points="435.839 245.262 433.243 245.262 435.839 242.665 438.436 242.665 435.839 245.262" style="fill:#33bef2"/><polygon points="432.089 245.262 429.491 245.262 432.089 242.665 434.685 242.665 432.089 245.262" style="fill:#33bef2"/><polygon points="428.337 245.262 425.741 245.262 428.337 242.665 430.935 242.665 428.337 245.262" style="fill:#33bef2"/><polygon points="424.585 245.262 421.989 245.262 424.585 242.665 427.183 242.665 424.585 245.262" style="fill:#33bef2"/><polygon points="440.724 175.241 439.29 176.674 439.29 105.032 440.724 103.6 440.724 175.241" style="fill:#33bef2"/><polygon points="440.462 67.186 441.895 68.619 441.895 33.515 440.462 32.082 440.462 67.186" style="fill:#33bef2"/><polygon points="440.724 102.41 439.29 103.842 439.29 102.41 440.724 100.977 440.724 102.41" style="fill:#33bef2"/><polygon points="440.724 100.023 439.29 101.454 439.29 100.023 440.724 98.589 440.724 100.023" style="fill:#33bef2"/><polygon points="440.724 97.634 439.29 99.066 439.29 97.634 440.724 96.201 440.724 97.634" style="fill:#33bef2"/><polygon points="440.724 95.246 439.29 96.678 439.29 95.246 440.724 93.813 440.724 95.246" style="fill:#33bef2"/><polygon points="440.724 92.857 439.29 94.29 439.29 92.857 440.724 91.425 440.724 92.857" style="fill:#33bef2"/><polygon points="440.724 90.47 439.29 91.902 439.29 90.47 440.724 89.037 440.724 90.47" style="fill:#33bef2"/><rect x="435.085" y="18.47" width="1.195" height="1.194" style="fill:#33bef2"/><rect x="435.085" y="20.857" width="1.195" height="1.194" style="fill:#33bef2"/><rect x="435.085" y="23.246" width="1.195" height="1.193" style="fill:#33bef2"/><rect x="435.085" y="25.634" width="1.195" height="1.194" style="fill:#33bef2"/><rect x="435.085" y="28.023" width="1.195" height="1.193" style="fill:#33bef2"/><polygon points="427.298 12.341 427.298 17.165 431.981 17.165 427.298 12.341" style="fill:#33bef2"/><path d="M553.742,503.32a1.791,1.791,0,1,1-1.791-1.791A1.79,1.79,0,0,1,553.742,503.32Z" transform="translate(-459.413 -260.071)" style="fill:#33bef2"/><path d="M463.354,280.4a2.03,2.03,0,1,1,2.029-2.03A2.031,2.031,0,0,1,463.354,280.4Zm0-3.581a1.552,1.552,0,1,0,1.552,1.551A1.553,1.553,0,0,0,463.354,276.814Z" transform="translate(-459.413 -260.071)" style="fill:#33bef2"/><path d="M509.865,272.332a1.194,1.194,0,1,1-1.194-1.193A1.194,1.194,0,0,1,509.865,272.332Z" transform="translate(-459.413 -260.071)" style="fill:#33bef2"/><path d="M638.984,270.674a1.433,1.433,0,1,1,1.432-1.433A1.434,1.434,0,0,1,638.984,270.674Zm0-2.388a.955.955,0,1,0,.955.955A.956.956,0,0,0,638.984,268.286Z" transform="translate(-459.413 -260.071)" style="fill:#33bef2"/><path d="M496.23,499.95a2.15,2.15,0,1,1,2.149-2.149A2.152,2.152,0,0,1,496.23,499.95Zm0-3.582a1.433,1.433,0,1,0,1.433,1.433A1.434,1.434,0,0,0,496.23,496.368Z" transform="translate(-459.413 -260.071)" style="fill:#33bef2"/><path d="M464.555,504.268a2.15,2.15,0,1,1,2.149-2.151A2.153,2.153,0,0,1,464.555,504.268Zm0-3.584a1.434,1.434,0,1,0,1.432,1.433A1.435,1.435,0,0,0,464.555,500.684Z" transform="translate(-459.413 -260.071)" style="fill:#33bef2"/><polygon points="8.089 6.903 10.686 6.903 8.089 9.501 5.493 9.501 8.089 6.903" style="fill:#33bef2"/><polygon points="11.841 6.903 14.438 6.903 11.841 9.501 9.244 9.501 11.841 6.903" style="fill:#33bef2"/><polygon points="15.592 6.903 18.189 6.903 15.592 9.501 12.995 9.501 15.592 6.903" style="fill:#33bef2"/><polygon points="19.343 6.903 21.94 6.903 19.343 9.501 16.746 9.501 19.343 6.903" style="fill:#33bef2"/><polygon points="3.206 71.672 4.639 70.238 4.639 141.88 3.206 143.314 3.206 71.672" style="fill:#33bef2"/><polygon points="3.466 179.727 2.034 178.294 2.034 213.398 3.466 214.832 3.466 179.727" style="fill:#33bef2"/><polygon points="3.206 144.503 4.639 143.069 4.639 144.503 3.206 145.935 3.206 144.503" style="fill:#33bef2"/><polygon points="3.206 146.892 4.639 145.458 4.639 146.892 3.206 148.323 3.206 146.892" style="fill:#33bef2"/><polygon points="3.206 149.279 4.639 147.847 4.639 149.279 3.206 150.712 3.206 149.279" style="fill:#33bef2"/><polygon points="3.206 151.668 4.639 150.234 4.639 151.668 3.206 153.1 3.206 151.668" style="fill:#33bef2"/><polygon points="3.206 154.056 4.639 152.622 4.639 154.056 3.206 155.487 3.206 154.056" style="fill:#33bef2"/><polygon points="3.206 156.443 4.639 155.011 4.639 156.443 3.206 157.876 3.206 156.443" style="fill:#33bef2"/><rect x="7.649" y="232.025" width="1.194" height="1.193" style="fill:#33bef2"/><rect x="7.649" y="229.637" width="1.194" height="1.193" style="fill:#33bef2"/><rect x="7.649" y="227.249" width="1.194" height="1.193" style="fill:#33bef2"/><rect x="7.649" y="224.861" width="1.194" height="1.193" style="fill:#33bef2"/><rect x="7.649" y="222.473" width="1.194" height="1.193" style="fill:#33bef2"/><polygon points="16.631 239.349 16.631 234.524 11.947 234.524 16.631 239.349" style="fill:#33bef2"/><polygon points="405.321 14.318 335.374 14.318 335.268 14.207 326.216 4.738 28.779 4.738 22.106 12.619 3.921 12.572 3.923 11.856 21.774 11.901 28.447 4.023 326.522 4.023 326.63 4.133 335.679 13.602 405.321 13.602 405.321 14.318" style="fill:#33bef2"/><polygon points="435.909 17.42 427.149 8.798 353.181 8.798 353.181 8.082 427.444 8.082 427.55 8.185 436.411 16.909 435.909 17.42" style="fill:#33bef2"/><polygon points="440.347 230.648 439.63 230.648 439.63 196.849 443.214 193.148 443.214 75.725 438.429 70.941 438.429 11.434 439.145 11.434 439.145 70.646 443.929 75.429 443.929 193.439 440.347 197.139 440.347 230.648" style="fill:#33bef2"/><polygon points="436.938 247.666 419.378 247.666 415.581 243.632 387.116 243.632 383.083 247.666 347.638 247.666 347.638 246.95 382.786 246.95 386.819 242.916 415.892 242.916 419.686 246.95 436.626 246.95 443.671 239.338 443.671 206.665 444.386 206.665 444.386 239.618 436.938 247.666" style="fill:#33bef2"/><polygon points="304.782 247.666 117.406 247.666 108.249 238.088 38.608 238.088 38.608 237.371 108.556 237.371 117.712 246.95 304.485 246.95 308.518 242.916 371.112 242.916 371.112 243.632 308.815 243.632 304.782 247.666" style="fill:#33bef2"/><polygon points="90.747 243.607 16.484 243.607 7.517 234.779 8.02 234.269 16.778 242.89 90.747 242.89 90.747 243.607" style="fill:#33bef2"/><polygon points="5.499 240.255 4.783 240.255 4.783 176.267 0 171.483 0 53.471 3.506 49.965 3.582 20.084 4.298 20.086 4.221 50.263 0.716 53.768 0.716 171.188 5.499 175.971 5.499 240.255" style="fill:#33bef2"/><polygon points="1.838 9.608 1.36 9.608 1.36 5.144 4.726 2.351 26.153 2.351 28.311 0 28.663 0.322 26.363 2.828 4.898 2.828 1.838 5.367 1.838 9.608" style="fill:#33bef2"/><rect x="1.599" y="8.717" width="2.677" height="0.892" style="fill:#33bef2"/><polygon points="86.758 4.561 84.756 2.828 29.044 2.828 29.044 2.351 84.934 2.351 87.071 4.2 86.758 4.561" style="fill:#33bef2"/><path d="M462.35,278.365a1,1,0,1,1,1,1A1,1,0,0,1,462.35,278.365Z" transform="translate(-459.413 -260.071)" style="fill:#33bef2"/><polygon points="23.496 18.533 5.731 18.533 5.731 18.056 23.289 18.056 28.94 12.022 48.183 12.022 48.183 12.5 29.147 12.5 23.496 18.533" style="fill:#33bef2"/><polygon points="32.963 21.814 7.996 21.814 5.331 19.361 5.654 19.009 8.183 21.335 32.767 21.335 35.076 19.059 35.173 19.059 146.729 18.947 155.247 8.932 178.376 8.932 178.376 9.408 155.467 9.408 146.95 19.424 146.839 19.424 35.271 19.536 32.963 21.814" style="fill:#33bef2"/></svg>