<svg xmlns="http://www.w3.org/2000/svg" viewBox="0 0 458.504 257.551"><title>框1.3</title><path d="M510.084,276.156a2.15,2.15,0,1,1,2.149-2.149A2.151,2.151,0,0,1,510.084,276.156Zm0-3.583a1.434,1.434,0,1,0,1.433,1.434A1.436,1.436,0,0,0,510.084,272.573Z" transform="translate(-453.249 -255.871)" style="fill:#33bef2"/><path d="M852.631,276.156a2.15,2.15,0,1,1,2.148-2.149A2.152,2.152,0,0,1,852.631,276.156Zm0-3.583a1.434,1.434,0,1,0,1.431,1.434A1.436,1.436,0,0,0,852.631,272.573Z" transform="translate(-453.249 -255.871)" style="fill:#33bef2"/><polygon points="329.114 26.64 129.333 26.64 120.925 18.493 58.626 18.493 58.626 17.777 121.215 17.777 129.624 25.924 328.836 25.924 337.754 17.777 397.59 17.777 397.59 18.493 338.032 18.493 329.114 26.64" style="fill:#33bef2"/><polygon points="398.735 255.668 338.913 255.668 333.815 251.594 126.706 251.594 122.355 255.668 59.77 255.668 59.77 254.95 122.073 254.95 126.421 250.878 334.067 250.878 339.163 254.95 398.735 254.95 398.735 255.668" style="fill:#33bef2"/><path d="M832,267.747a1.791,1.791,0,1,1,1.791,1.791A1.792,1.792,0,0,1,832,267.747Z" transform="translate(-453.249 -255.871)" style="fill:#33bef2"/><path d="M529.214,267.747a1.791,1.791,0,1,1,1.791,1.791A1.791,1.791,0,0,1,529.214,267.747Z" transform="translate(-453.249 -255.871)" style="fill:#33bef2"/><path d="M902.461,495.925a1.791,1.791,0,1,1,1.791,1.792A1.789,1.789,0,0,1,902.461,495.925Z" transform="translate(-453.249 -255.871)" style="fill:#33bef2"/><path d="M851.928,511.272a1.791,1.791,0,1,1,1.791,1.792A1.791,1.791,0,0,1,851.928,511.272Z" transform="translate(-453.249 -255.871)" style="fill:#33bef2"/><path d="M903.051,270.558a2.15,2.15,0,1,1,2.148-2.15A2.153,2.153,0,0,1,903.051,270.558Zm0-3.583a1.433,1.433,0,1,0,1.433,1.433A1.434,1.434,0,0,0,903.051,266.975Z" transform="translate(-453.249 -255.871)" style="fill:#33bef2"/><path d="M908.291,470.51a2.149,2.149,0,1,1,2.15-2.149A2.15,2.15,0,0,1,908.291,470.51Zm0-3.581a1.433,1.433,0,1,0,1.434,1.432A1.434,1.434,0,0,0,908.291,466.929Z" transform="translate(-453.249 -255.871)" style="fill:#33bef2"/><path d="M829.529,509.017a2.149,2.149,0,1,1,2.149-2.149A2.151,2.151,0,0,1,829.529,509.017Zm0-3.582a1.433,1.433,0,1,0,1.434,1.433A1.432,1.432,0,0,0,829.529,505.435Z" transform="translate(-453.249 -255.871)" style="fill:#33bef2"/><path d="M511.229,513.422a2.15,2.15,0,1,1,2.149-2.15A2.151,2.151,0,0,1,511.229,513.422Zm0-3.582a1.433,1.433,0,1,0,1.433,1.432A1.434,1.434,0,0,0,511.229,509.84Z" transform="translate(-453.249 -255.871)" style="fill:#33bef2"/><path d="M547.672,506.868a1.791,1.791,0,1,1,1.791,1.79A1.791,1.791,0,0,1,547.672,506.868Z" transform="translate(-453.249 -255.871)" style="fill:#33bef2"/><polygon points="446.854 252.877 444.256 252.877 446.854 250.28 449.45 250.28 446.854 252.877" style="fill:#33bef2"/><polygon points="443.102 252.877 440.504 252.877 443.102 250.28 445.698 250.28 443.102 252.877" style="fill:#33bef2"/><polygon points="439.35 252.877 436.754 252.877 439.35 250.28 441.948 250.28 439.35 252.877" style="fill:#33bef2"/><polygon points="435.6 252.877 433.003 252.877 435.6 250.28 438.196 250.28 435.6 252.877" style="fill:#33bef2"/><polygon points="451.475 66.443 452.909 67.876 452.909 32.772 451.475 31.339 451.475 66.443" style="fill:#33bef2"/><rect x="446.577" y="22.265" width="1.193" height="1.194" style="fill:#33bef2"/><rect x="446.577" y="24.652" width="1.193" height="1.194" style="fill:#33bef2"/><rect x="446.577" y="27.04" width="1.193" height="1.194" style="fill:#33bef2"/><rect x="446.577" y="29.428" width="1.193" height="1.194" style="fill:#33bef2"/><rect x="446.577" y="31.816" width="1.193" height="1.194" style="fill:#33bef2"/><polygon points="438.311 15.724 438.311 20.548 442.995 20.548 438.311 15.724" style="fill:#33bef2"/><polygon points="446.922 20.856 438.165 12.233 380.541 12.233 380.541 11.519 438.458 11.519 447.426 20.346 446.922 20.856" style="fill:#33bef2"/><polygon points="96.214 251.355 13.897 251.355 11.26 247.607 11.844 247.194 14.269 250.638 96.214 250.638 96.214 251.355" style="fill:#33bef2"/><polygon points="451.36 240.054 450.643 240.054 450.643 199.742 454.225 196.042 454.225 78.62 449.442 73.836 449.442 14.328 450.159 14.328 450.159 73.54 454.942 78.323 454.942 196.332 451.36 200.033 451.36 240.054" style="fill:#33bef2"/><polygon points="447.952 255.282 430.389 255.282 426.594 251.248 377.901 251.248 377.901 250.531 426.905 250.531 430.7 254.565 447.639 254.565 454.684 246.953 454.684 214.281 455.401 214.281 455.401 247.233 447.952 255.282" style="fill:#33bef2"/><path d="M463.017,279.341a1.792,1.792,0,1,1-1.792-1.79A1.791,1.791,0,0,1,463.017,279.341Z" transform="translate(-453.249 -255.871)" style="fill:#33bef2"/><path d="M462.431,508.765a2.15,2.15,0,1,1,2.149-2.15A2.152,2.152,0,0,1,462.431,508.765Zm0-3.582a1.433,1.433,0,1,0,1.433,1.432A1.433,1.433,0,0,0,462.431,505.183Z" transform="translate(-453.249 -255.871)" style="fill:#33bef2"/><path d="M457.185,309.055a2.149,2.149,0,1,1,2.149-2.149A2.15,2.15,0,0,1,457.185,309.055Zm0-3.582a1.433,1.433,0,1,0,1.434,1.433A1.434,1.434,0,0,0,457.185,305.473Z" transform="translate(-453.249 -255.871)" style="fill:#33bef2"/><polygon points="12.125 10.647 14.722 10.647 12.125 13.244 9.528 13.244 12.125 10.647" style="fill:#33bef2"/><polygon points="15.876 10.647 18.474 10.647 15.876 13.244 13.279 13.244 15.876 10.647" style="fill:#33bef2"/><polygon points="19.627 10.647 22.225 10.647 19.627 13.244 17.03 13.244 19.627 10.647" style="fill:#33bef2"/><polygon points="23.379 10.647 25.976 10.647 23.379 13.244 20.782 13.244 23.379 10.647" style="fill:#33bef2"/><polygon points="6.311 199.227 4.879 197.794 4.879 232.897 6.311 234.33 6.311 199.227" style="fill:#33bef2"/><rect x="10.955" y="244.957" width="1.195" height="1.194" style="fill:#33bef2"/><rect x="10.955" y="242.569" width="1.195" height="1.194" style="fill:#33bef2"/><rect x="10.955" y="240.182" width="1.195" height="1.193" style="fill:#33bef2"/><rect x="10.955" y="237.793" width="1.195" height="1.194" style="fill:#33bef2"/><rect x="10.955" y="235.405" width="1.195" height="1.193" style="fill:#33bef2"/><polygon points="9.535 249.196 8.818 249.196 8.818 189.984 4.035 185.201 4.035 67.193 7.618 63.491 7.618 23.47 8.333 23.47 8.333 63.78 4.752 67.482 4.752 184.905 9.535 189.689 9.535 249.196" style="fill:#33bef2"/><polygon points="4.294 48.288 3.578 48.288 3.578 15.335 11.025 7.287 28.588 7.287 32.384 11.321 75.965 11.321 75.965 12.038 32.074 12.038 28.279 8.004 11.339 8.004 4.294 15.617 4.294 48.288" style="fill:#33bef2"/><polygon points="130.263 23.881 328.241 23.881 352.122 0 106.383 0 130.263 23.881" style="fill:#33bef2"/><polygon points="96.848 0 113.606 16.716 118.381 16.716 101.624 0 96.848 0" style="fill:#33bef2"/><polygon points="87.302 0 101.666 14.328 106.441 14.328 92.079 0 87.302 0" style="fill:#33bef2"/><polygon points="77.756 0 89.726 11.94 94.502 11.94 82.531 0 77.756 0" style="fill:#33bef2"/><polygon points="356.672 0 339.916 16.716 344.692 16.716 361.45 0 356.672 0" style="fill:#33bef2"/><polygon points="366.219 0 351.856 14.328 356.633 14.328 370.995 0 366.219 0" style="fill:#33bef2"/><polygon points="375.766 0 363.797 11.94 368.573 11.94 380.541 0 375.766 0" style="fill:#33bef2"/><polygon points="0 0 0 2.388 82.616 2.388 82.616 0 54.805 0 0 0" style="fill:#33bef2"/><polygon points="394.727 0 375.889 0 375.889 2.388 458.504 2.388 458.504 0 394.727 0" style="fill:#33bef2"/></svg>