<svg id="_" data-name="ͼ" xmlns="http://www.w3.org/2000/svg" viewBox="0 0 140.14 32.15"><defs><style>.cls-1,.cls-2{fill:red;}.cls-1{fill-rule:evenodd;}.cls-2{font-size:14px;font-family:FZZCHJW--GB1-0, FZZhengHeiS-B-GB;}.cls-3{letter-spacing:0.2em;}</style></defs><title>logo</title><path class="cls-1" d="M-167.13,334.52h2.63l3.33,5v-5h2.38v9.83h-2.27l-3.19-4.8v4.8h-2.88v-9.83Zm17.51,2.63h.89v-1l2.57-1.66v2.63h1.47v2.12h-1.47v2.94h1.4v2H-147a1.71,1.71,0,0,1-1.69-1.72v-3.19h-.89v-2.12Zm-4.12-.3a3.74,3.74,0,0,1,3.68,3.77,4.17,4.17,0,0,1-.06.71c-1.66,0-3.15.07-4.76.07v.1a1.16,1.16,0,0,0,1.14,1.18,1.14,1.14,0,0,0,1-.52h2.41a3.67,3.67,0,0,1-3.36,2.24,3.74,3.74,0,0,1-3.68-3.78,3.74,3.74,0,0,1,3.68-3.77Zm0,2a1.16,1.16,0,0,0-1.14,1.18v.1h2.29v-.1a1.16,1.16,0,0,0-1.15-1.18Zm-46.53-21.75c-7.36,0-14.28,6-14.71,13.44-.49,8.44,8.3,14.9,15.81,14.9h22.69a6.06,6.06,0,0,0,6-6.12V334h28.3v-4.47H-179.9V334H-177l.09,6.44-20.82.06c-4.87,0-10.58-4.19-10.26-9.67a9.68,9.68,0,0,1,9.55-8.73h13.93a6.82,6.82,0,0,1,6.09,3.35h7.7a13.33,13.33,0,0,0-12.27-8.32Zm32.13,2h5l2.25,5.11,2.24-5.11h5.17l2.25,5.11,2.24-5.11h5l-4,9.44h-5.21l-2.81-5.68-2.81,5.68h-5.53Z" transform="translate(215 -317.15)"/><text class="cls-2" transform="translate(75.75 12.22)"><tspan class="cls-3">长城网</tspan><tspan x="50.39" y="0">科</tspan><tspan class="cls-3" x="0" y="15.23">智慧医</tspan><tspan x="50.39" y="15.23">疗</tspan></text></svg>