<svg id="图层_1" data-name="图层 1" xmlns="http://www.w3.org/2000/svg" viewBox="0 0 589.5 325.01"><defs><style>.cls-1,.cls-2{fill:none;}.cls-1{stroke:#82b3dc;}.cls-1,.cls-2,.cls-3{stroke-miterlimit:10;stroke-width:2px;}.cls-2{stroke:#263980;}.cls-3{fill:#263980;stroke:#a0dffe;}</style></defs><title>画板 2</title><rect class="cls-1" x="1" y="1" width="587.5" height="323" rx="5.67" ry="5.67"/><path class="cls-2" d="M92.79,136.73V125.42a5.68,5.68,0,0,1,5.67-5.67H109.8" transform="translate(-91.79 -118.75)"/><path class="cls-2" d="M663.31,119.75h11.31a5.68,5.68,0,0,1,5.67,5.67v11.34" transform="translate(-91.79 -118.75)"/><polygon class="cls-3" points="573 32.54 573 15 16.5 15 16.5 49 556.54 49 573 32.54"/><path class="cls-2" d="M92.79,425.78v11.31a5.68,5.68,0,0,0,5.67,5.67H109.8" transform="translate(-91.79 -118.75)"/><path class="cls-2" d="M663.31,442.76h11.31a5.68,5.68,0,0,0,5.67-5.67V425.75" transform="translate(-91.79 -118.75)"/></svg>