<?xml version="1.0" standalone="no"?>
<!DOCTYPE svg PUBLIC "-//W3C//DTD SVG 1.1//EN" "http://www.w3.org/Graphics/SVG/1.1/DTD/svg11.dtd" >
<svg xmlns="http://www.w3.org/2000/svg">
<metadata>Generated by IcoMoon</metadata>
<defs>
<font id="SEkin" horiz-adv-x="1024">
<font-face units-per-em="1024" ascent="960" descent="-64" />
<missing-glyph horiz-adv-x="1024" />
<glyph unicode="&#x20;" horiz-adv-x="512" d="" />
<glyph unicode="&#xe900;" glyph-name="slide-close" horiz-adv-x="1509" d="M727.541-63.946c-44.646 0-80.838 36.192-80.838 80.838s36.192 80.838 80.838 80.838v0h700.595c44.646 0 80.838-36.192 80.838-80.838s-36.192-80.838-80.838-80.838v0zM80.838 367.189c-44.646 0-80.838 36.192-80.838 80.838s36.192 80.838 80.838 80.838v0h1347.298c44.646 0 80.838-36.192 80.838-80.838s-36.192-80.838-80.838-80.838v0zM80.838 798.324c-44.646 0-80.838 36.192-80.838 80.838s36.192 80.838 80.838 80.838v0h1347.298c44.646 0 80.838-36.192 80.838-80.838s-36.192-80.838-80.838-80.838v0z" />
<glyph unicode="&#xe901;" glyph-name="table" d="M-0.4 959.2h1023.2v-255.8h-1023.2v255.8zM-0.4 959.2h64v-1023.2h-64v1023.2zM-0.4 0h1023.2v-64h-1023.2v64zM-0.4 959.2h1023.2v-64h-1023.2v64zM959 959.2h64v-1023.2h-64v1023.2zM63.6 511.6h895.4v-64h-895.4v64zM319.4 703.4h64v-703.4h-64v703.4zM639.2 703.4h64v-703.4h-64v703.4zM63.6 255.8h895.4v-64h-895.4v64z" />
<glyph unicode="&#xe902;" d="M945.8 907.2c13.6 0 25.8-12 25.8-25.8v-870.4c0-13.6-12-25.8-25.8-25.8h-870.4c-13.6 0-25.8 12-25.8 25.8v871c0 13.6 12 25.8 25.8 25.8l870.4-0.6zM945.8 958.6h-870.4c-42.6 0-76.6-34.2-76.6-76.6v-870.4c0-42.6 34.2-76.6 76.6-76.6h870.4c42.6 0 76.6 34.2 76.6 76.6v870.4c0.2 42.4-34 76.6-76.6 76.6v0z" />
<glyph unicode="&#xe903;" d="M848.2 958.6h-719.8c-48.8 0-88.8-40-89.8-88.8v-211.6h955.6v154.4c0 80.4-64.6 146-146 146v0zM176.2 760.6c-19 0-34.2 15.4-34.2 34.2 0 19 15.2 34.2 34.2 34.2s34.2-15.2 34.2-34.2c0-18.8-15.4-34.2-34.2-34.2v0zM292.2 760.6c-18.8 0-34.2 15.2-34.2 34.2s15.2 34.2 34.2 34.2c19 0 34.2-15.2 34.2-34.2 0-18.8-15.2-34.2-34.2-34.2v0zM408.2 760.6c-19 0-34.2 15.2-34.2 34.2s15.2 34.2 34.2 34.2 34.2-15.2 34.2-34.2c0-18.8-15.2-34.2-34.2-34.2v0z" />
<glyph unicode="&#xe904;" d="M270.6 306.6l104 104c10.6 10 10.6 28.4 0 38.4l-6.8 5.8c-10.4 10.6-28.4 10.6-38.4 0l-120.2-118.2c-1.6-1-3.6-2.6-4.2-3.2l-6.8-6.8c-10.4-11-10.4-28.4 0-39.4l6.8-6.8c1.6-1.6 2.6-2.6 4.2-3.2l119.2-119.8c10.6-10 28.4-10 38.4 0l6.8 6.8c10.6 10 10.6 28.4 0 38.4l-103 104zM825.6 326.4l-6.8 6.8c-1.6 1.6-2.6 2.6-4.2 3.2l-119.8 119.8c-10 10-28.4 10-38.4 0l-6.8-6.8c-10-10-10-28.4 0-38.4l104-104-104-104c-10-10-10-28.4 0-38.4l6.8-6.8c10-10 28.4-10 38.4 0l119.8 119.8c1.6 1 3.2 2.6 4.2 3.2l6.8 6.8c10 10.6 10 27.8 0 38.8v0zM430.2 127l115.6 393.2 61.4-17.8-115-393.2-62 17.8z" />
<glyph unicode="&#xe905;" d="M208.4-18.4l-186.8 574.8 488.8 355.2 489-355.2-186.8-574.8h-604.2z" />
<glyph unicode="&#xe906;" d="M510.4 911.6l-55.6-40.4 464.8-337.6-179.4-552h72.4l186.8 574.8-489 355.2z" />
<glyph unicode="&#xe907;" d="M812.6-41.2h-604.2c-10 0-18.6 6.4-21.6 15.8l-186.8 574.8c-3 9.4 0.4 19.8 8.4 25.6l488.8 355.2c8 5.8 18.8 5.8 26.8 0l489-355.2c8-5.8 11.2-16 8.4-25.6l-186.8-574.8c-3.2-9.4-12-15.8-22-15.8v0zM224.8 4.4h571.2l176.6 543.2-462.2 335.8-462-335.6 176.4-543.4z" />
<glyph unicode="&#xe908;" d="M274 82.2l-91.2 438 327.6 238 327.6-238-125.2-385.2-438.8-52.8z" />
<glyph unicode="&#xe909;" d="M514 764l-69-50.2 305.6-222-117.2-361 83.4 10 124.8 385.2-327.6 238z" />
<glyph unicode="&#xe90a;" d="M274 59.6c-10.8 0-20 7.6-22.4 18.2l-91.2 438c-1.8 8.8 1.8 17.8 8.8 23.2l327.6 238c8 5.8 18.8 5.8 26.8 0l327.6-238c8-5.8 11.2-16 8.4-25.6l-125.2-385.2c-2.8-8.4-10.2-14.4-19-15.6l-441.4-52.8zM208.2 510.4l83.8-403 403.8 48.6 115.6 355.6-301 218.4-302.2-219.6z" />
<glyph unicode="&#xe90b;" d="M376.4 215.8l6.6 254.2 127.4 140.6 144.2-161.8-36.4-157.8-241.8-75.2z" />
<glyph unicode="&#xe90c;" d="M510.4 610.6l-30-33 94.4-106-36.4-157.8-160.8-50-1.2-48 241.8 75.2 36.4 157.8-144.2 161.8z" />
<glyph unicode="&#xe90d;" d="M376.4 193c-4.8 0-9.8 1.6-13.8 4.6-5.8 4.4-9.2 11.4-9 18.8l6.8 254.2c0.2 5.4 2.2 10.8 6 14.8l127.4 140.6c4.4 4.8 10.6 7.6 17 7.6s12.6-2.8 17-7.6l144.2-162c5-5.4 6.8-13.2 5.2-20.2l-36.6-157.8c-1.8-7.8-7.8-14.2-15.4-16.6l-241.8-75.4c-2.4-0.8-4.8-1-7-1v0zM405.6 460.8l-5.6-214 199 61.8 30.8 133.6-119.6 134.2-104.6-115.6z" />
<glyph unicode="&#xe90e;" d="M230-3.4l-37.8 25.6 295 435.4c3.2 4.8 8.2 8.2 13.8 9.4l493.2 111.6 10-44.4-484.2-109.6-290-428z" />
<glyph unicode="&#xe90f;" d="M775.2-15.8l-283.2 440.4-458.6 109.6 10.6 44.4 467.4-111.6c5.6-1.4 10.8-4.8 14-9.8l288.2-448.2-38.4-24.8z" />
<glyph unicode="&#xe910;" d="M487.8 911.6h45.6v-467h-45.6v467z" />
<glyph unicode="&#xe911;" d="M798.2 127.8c-51.2 0-96 44.8-96 96s44.8 96 96 96c51.2 0 96-44.8 96-96s-44.8-96-96-96v0z" />
<glyph unicode="&#xe912;" d="M414.2 447.8c-51.2 0-96 44.8-96 96s44.8 96 96 96c51.2 0 96-44.8 96-96s-44.8-96-96-96v0z" />
<glyph unicode="&#xe913;" d="M702.2 703.8c-38.4 0-64 25.6-64 64s25.6 64 64 64c38.4 0 64-25.6 64-64s-25.6-64-64-64v0z" />
<glyph unicode="&#xe914;" d="M958.2 511.8c-38.4 0-64 25.6-64 64s25.6 64 64 64c38.4 0 64-25.6 64-64s-25.6-64-64-64v0z" />
<glyph unicode="&#xe915;" d="M190.2 639.8c-38.4 0-64 25.6-64 64s25.6 64 64 64c38.4 0 64-25.6 64-64s-25.6-64-64-64v0z" />
<glyph unicode="&#xe916;" d="M510.2 191.8c-38.4 0-64 25.6-64 64s25.6 64 64 64c38.4 0 64-25.6 64-64s-25.6-64-64-64v0z" />
<glyph unicode="&#xe917;" d="M702.2 447.8c-38.4 0-64 25.6-64 64s25.6 64 64 64c38.4 0 64-25.6 64-64s-25.6-64-64-64v0z" />
<glyph unicode="&#xe918;" d="M254.2 127.8c-38.4 0-64 25.6-64 64s25.6 64 64 64c38.4 0 64-25.6 64-64s-25.6-64-64-64v0z" />
<glyph unicode="&#xe919;" d="M-1.8-32.2v992h64v-960h960v-64h-1024z" />
<glyph unicode="&#xe91a;" glyph-name="pie" d="M511.2 479.6v447.6c0 19.2-12.8 32-32 32-262 0-479.6-217.4-479.6-479.6 0-19.2 12.8-32 32-32h447.6c19.2 0 32 12.8 32 32v0zM447.4 511.6h-383.8c12.8 204.6 179 364.4 383.8 383.6v-383.6zM543.2 895.2v-64c230.2 0 415.6-185.4 415.6-415.6s-185.4-415.6-415.6-415.6c-230.2 0-415.6 185.4-415.6 415.6h-64c0-262.2 217.4-479.6 479.6-479.6s479.6 217.4 479.6 479.6c0 262.2-217.4 479.6-479.6 479.6v0z" />
<glyph unicode="&#xe91b;" glyph-name="menu-4" d="M1009.4 344.8c-4.4-28.8-22.2-48.8-44.4-48.8h-4.4c-73.4 0-133.2-60-133.2-135.4 0-24.4 11.2-51 11.2-51 11.2-26.6 2.2-57.8-20-73.4h-2.2l-128.8-73.4h-2.2c-6.6-2.2-15.6-4.4-24.4-4.4-17.8 0-37.8 8.8-48.8 20-15.6 17.8-66.6 64.4-106.6 64.4s-91-46.6-106.6-62.2c-11.2-13.4-28.8-20-48.8-20-8.8 0-17.8 2.2-24.4 4.4h-2.2l-124.4 71h-2.2c-22.2 15.6-31 48.8-20 73.4 0 0 11.2 26.6 11.2 51 0 73.2-60 135.4-133.2 135.4-20 0-37.8 17.8-44.4 48.8 0 2.2-11.2 57.8-11.2 102.2s11.2 100 11.2 102.2c4.4 28.8 22.2 48.8 44.4 48.8h4.4c73.4 0 133.2 60 133.2 135.4 0 24.4-11.2 51-11.2 51-13.4 22.2-4.4 55.6 20 71h2.2l133.2 73.4h2.2c4.4 4.4 11.2 6.6 20 6.6 17.8 0 35.6-6.6 48.8-20 15.6-15.6 64.4-60 104.4-60s88.8 42.2 104.4 57.8c11.2 13.4 28.8 20 46.6 20 8.8 0 17.8-2.2 24.4-4.4h2.2l128.6-70.6h2.2c22.2-15.6 31-48.8 20-73.4 0 0-11.2-26.6-11.2-51 0-73.2 60-135.4 133.2-135.4h4.4c20 0 37.8-17.8 44.4-48.8 0-2.2 11.2-57.8 11.2-102.2-2-44.6-13.2-100-13.2-102.4v0zM967.2 540.4c-2.2 6.6-2.2 8.8-4.4 11.2-97.8 0-177.6 80-177.6 180 0 31 11.2 62.2 15.6 68.8 2.2 6.6 0 15.6-4.4 20l-124.4 68.8h-6.6c-6.6 0-13.4-2.2-15.6-6.6-6.6-6.6-71-73.4-137.8-73.4-66.6 0-131 66.6-137.8 73.4-2.2 6.6-8.8 8.8-15.6 8.8h-6.6l-128.8-71c-4.4-4.4-6.6-13.4-4.4-20 0 0 15.6-35.6 15.6-68.8 0-97.8-80-180-177.6-180-2.2-2.2-2.2-6.6-4.4-11.2 0 0-8.8-53.4-8.8-93.2 0-40 8.8-93.2 8.8-93.2 2.2-6.6 2.2-8.8 4.4-11.2 97.8 0 177.6-80 177.6-180 0-28.8-11.2-57.8-15.6-68.8-2.2-6.6 0-15.6 4.4-20l122.2-68.8h6.6c6.6 0 13.4 2.2 15.6 6.6 2.2 2.2 71 77.8 140 77.8s133.2-71 140-77.8c2.2-2.2 8.8-6.6 15.6-6.6h6.6l126.6 71c4.4 4.4 6.6 13.4 4.4 20-2.2 4.4-15.6 35.6-15.6 68.8 0 97.8 80 180 177.6 180 2.2 2.2 2.2 6.6 4.4 11.2 0 0 8.8 53.4 8.8 93.2 0.2 37.6-8.8 91-8.8 91v0zM509.6 269.4c-97.8 0-177.8 80-177.8 177.8s80 177.6 177.8 177.6c97.8 0 177.6-80 177.6-177.6 0.2-97.8-79.8-177.8-177.6-177.8v0zM509.6 582.6c-73.4 0-135.4-60-135.4-135.4 0-75.6 60-135.6 135.4-135.6 75.6 0 135.4 60 135.4 135.6 0.2 75.4-62 135.4-135.4 135.4v0z" />
<glyph unicode="&#xe91c;" glyph-name="set-12" d="M1009.4 344.8c-4.4-28.8-22.2-48.8-44.4-48.8h-4.4c-73.4 0-133.2-60-133.2-135.4 0-24.4 11.2-51 11.2-51 11.2-26.6 2.2-57.8-20-73.4h-2.2l-128.8-73.4h-2.2c-6.6-2.2-15.6-4.4-24.4-4.4-17.8 0-37.8 8.8-48.8 20-15.6 17.8-66.6 64.4-106.6 64.4s-91-46.6-106.6-62.2c-11.2-13.4-28.8-20-48.8-20-8.8 0-17.8 2.2-24.4 4.4h-2.2l-124.4 71h-2.2c-22.2 15.6-31 48.8-20 73.4 0 0 11.2 26.6 11.2 51 0 73.2-60 135.4-133.2 135.4-20 0-37.8 17.8-44.4 48.8 0 2.2-11.2 57.8-11.2 102.2s11.2 100 11.2 102.2c4.4 28.8 22.2 48.8 44.4 48.8h4.4c73.4 0 133.2 60 133.2 135.4 0 24.4-11.2 51-11.2 51-13.4 22.2-4.4 55.6 20 71h2.2l133.2 73.4h2.2c4.4 4.4 11.2 6.6 20 6.6 17.8 0 35.6-6.6 48.8-20 15.6-15.6 64.4-60 104.4-60s88.8 42.2 104.4 57.8c11.2 13.4 28.8 20 46.6 20 8.8 0 17.8-2.2 24.4-4.4h2.2l128.6-70.6h2.2c22.2-15.6 31-48.8 20-73.4 0 0-11.2-26.6-11.2-51 0-73.2 60-135.4 133.2-135.4h4.4c20 0 37.8-17.8 44.4-48.8 0-2.2 11.2-57.8 11.2-102.2-2-44.6-13.2-100-13.2-102.4v0zM967.2 540.4c-2.2 6.6-2.2 8.8-4.4 11.2-97.8 0-177.6 80-177.6 180 0 31 11.2 62.2 15.6 68.8 2.2 6.6 0 15.6-4.4 20l-124.4 68.8h-6.6c-6.6 0-13.4-2.2-15.6-6.6-6.6-6.6-71-73.4-137.8-73.4-66.6 0-131 66.6-137.8 73.4-2.2 6.6-8.8 8.8-15.6 8.8h-6.6l-128.8-71c-4.4-4.4-6.6-13.4-4.4-20 0 0 15.6-35.6 15.6-68.8 0-97.8-80-180-177.6-180-2.2-2.2-2.2-6.6-4.4-11.2 0 0-8.8-53.4-8.8-93.2 0-40 8.8-93.2 8.8-93.2 2.2-6.6 2.2-8.8 4.4-11.2 97.8 0 177.6-80 177.6-180 0-28.8-11.2-57.8-15.6-68.8-2.2-6.6 0-15.6 4.4-20l122.2-68.8h6.6c6.6 0 13.4 2.2 15.6 6.6 2.2 2.2 71 77.8 140 77.8s133.2-71 140-77.8c2.2-2.2 8.8-6.6 15.6-6.6h6.6l126.6 71c4.4 4.4 6.6 13.4 4.4 20-2.2 4.4-15.6 35.6-15.6 68.8 0 97.8 80 180 177.6 180 2.2 2.2 2.2 6.6 4.4 11.2 0 0 8.8 53.4 8.8 93.2 0.2 37.6-8.8 91-8.8 91v0zM509.6 269.4c-97.8 0-177.8 80-177.8 177.8s80 177.6 177.8 177.6c97.8 0 177.6-80 177.6-177.6 0.2-97.8-79.8-177.8-177.6-177.8v0zM509.6 582.6c-73.4 0-135.4-60-135.4-135.4 0-75.6 60-135.6 135.4-135.6 75.6 0 135.4 60 135.4 135.6 0.2 75.4-62 135.4-135.4 135.4v0z" />
<glyph unicode="&#xe91d;" glyph-name="view-mode" d="M991 959.2h-959.4c-19.2 0-32-12.8-32-32v-959.2c0-19.2 12.8-32 32-32h959.2c19.2 0 32 12.8 32 32v959.2c0 19.2-12.6 32-31.8 32v0zM959 895.2v-191.8h-895.4v191.8h895.4zM63.6 0v639.4h895.4v-639.4h-895.4zM799 518h-287.8c-19.2 0-32-12.8-32-32s12.8-32 32-32h287.8c19.2 0 32 12.8 32 32s-19.2 32-32 32v0zM799 338.8h-575.4c-12.8 0-32-12.8-32-32s12.8-32 32-32h569.2c19.2 0 32 12.8 32 32-0.2 19.2-13 32-25.8 32v0zM799 166.2h-575.4c-19.2 0-32-12.8-32-32s12.8-32 32-32h569.2c19.2 0 32 12.8 32 32-0.2 19.2-13 32-25.8 32v0zM146.8 799.4c0-28.2 23-51.2 51.2-51.2s51.2 23 51.2 51.2c0 28.2-23 51.2-51.2 51.2-28.4-0.2-51.2-23-51.2-51.2v0zM313 799.4c0-18.2 9.8-35.2 25.6-44.4s35.4-9.2 51.2 0c15.8 9.2 25.6 26 25.6 44.4 0 18.2-9.8 35.2-25.6 44.4s-35.4 9.2-51.2 0c-15.8-9.4-25.6-26.2-25.6-44.4v0zM473 799.4c0-28.2 23-51.2 51.2-51.2s51.2 23 51.2 51.2c0 18.2-9.8 35.2-25.6 44.4s-35.4 9.2-51.2 0c-16-9.4-25.6-26.2-25.6-44.4v0z" />
<glyph unicode="&#xe91e;" glyph-name="img" d="M768 532.8c39.6-0.8 76.6 23.4 96.8 63.4 20 40 20 89.6 0 129.6s-57 64.2-96.8 63.4c-59.8-1.2-107.8-58.4-107.8-128.2 0-70 48-127 107.8-128.2v0zM960 960h-896c-35.6 0-64-34-64-75.6v-874.2c0-41.6 28.4-75.6 64-75.6h896c35.6 0 64 34 64 75.6v874.2c0 41.6-28.4 75.6-64 75.6v0zM724.4 432c-7.2 10.2-18 16.2-29.2 16.6-11.6 0-19.8-6.4-29.2-15.2l-42.8-42.2c-9-7.4-16-12.6-26.2-12.6-9.2 0-18.2 3.8-25.2 11-3.4 3.6-6.6 7.2-9.8 11l-123 155.4c-9.6 12.8-23.6 20.2-38.2 20-15.4 0-29.4-8.8-38.4-20.8l-289.2-407.6v695.6c2.2 18.2 14.4 31.2 30 31.2h817.6c15.8 0 28.6-13.6 29.4-32l0.6-695.4-226.4 285z" />
<glyph unicode="&#xe91f;" glyph-name="folder" d="M938.6-62.4h-853.4c-47 0-85.2 43.2-85.2 96v830.4c0 52.8 38.4 96 85.2 96h349.2c47 0 85.2-43.2 85.2-96v-35c0-26.4 19.2-48 42.6-48h376.2c47 0 85.2-43.2 85.2-96v-650.6c0.4-53.6-38-96.8-85-96.8zM85.2 912c-23.4 0-42.6-21.6-42.6-48v-830.2c0-26.4 19.2-48 42.6-48h853.4c23.4 0 42.6 21.6 42.6 48v651c0 26.4-19.2 48-42.6 48h-376.2c-47 0-85.2 43.2-85.2 96v35.2c0 26.4-19.2 48-42.6 48h-349.4zM21.4 571.4h1002.6v-48h-1002.6v48z" />
<glyph unicode="&#xe920;" glyph-name="text" d="M91.4 339.2h-92.2l220.2 568.4h102.4l220.2-563.2h-92.2l-56.4 148.4h-245.8l-56.2-153.6zM168.2 559.4h204.8l-102.4 271.4h-5.2l-97.2-271.4zM552.2 620.8h471v71.6h-471v-71.6zM-0.8 195.8h1024v71.6h-1024v-71.6zM552.2 405.8h471v71.6h-471v-71.6zM-0.8-14h1024v71.6h-1024v-71.6zM552.2 902.4v-71.6h471v71.6h-471z" />
<glyph unicode="&#xe921;" d="M-0.2 959.2h64v-1023h-64v1023z" />
<glyph unicode="&#xe922;" d="M-0.2 0h1023v-64h-1023v64z" />
<glyph unicode="&#xe923;" d="M371.2 457.4l52.4 36.8 146.6-209.6-52.4-36.6z" />
<glyph unicode="&#xe925;" d="M64 320.6l322.8 226 36.6-52.4-358-250.8-1.4 77.2zM481.2 300.4l471.4 330 36.6-52.4-471.4-330-36.6 52.4z" />
<glyph unicode="&#xe926;" d="M946-31h-898c-15.8 0-28.6 11.4-28.6 25.2v871.2c0 14 12.8 25.2 28.6 25.2s28.6-11.4 28.6-25.2v-845.8h869.4c15.8 0 28.6-11.4 28.6-25.4s-12.8-25.2-28.6-25.2v0z" />
<glyph unicode="&#xe927;" d="M49 942.8l48.2-82.2h-96.4z" />
<glyph unicode="&#xe928;" d="M1024.8-1.8l-82-48.2v96.4z" />
<glyph unicode="&#xe929;" d="M244.4 613.8h86c22.2 0 40.4-18.2 40.4-40.4v-461.2c0-22.2-18.2-40.4-40.4-40.4h-86c-22.2 0-40.4 18.2-40.4 40.4v461.2c0 22.2 18.2 40.4 40.4 40.4v0z" />
<glyph unicode="&#xe92a;" d="M510.2 858.8h86c22.2 0 40.4-18.2 40.4-40.4v-706.2c0-22.2-18.2-40.4-40.4-40.4h-86c-22.2 0-40.4 18.2-40.4 40.4v706.2c0 22.2 18.2 40.4 40.4 40.4v0z" />
<glyph unicode="&#xe92b;" d="M776 499.2h86c22.2 0 40.4-18.2 40.4-40.4v-346.6c0-22.2-18.2-40.4-40.4-40.4h-86c-22.2 0-40.4 18.2-40.4 40.4v346.6c0 22.2 18 40.4 40.4 40.4v0z" />
<glyph unicode="&#xe92d;" glyph-name="child-13" d="M620.4 8.4h-449.4c-26.4 0-51.6 10.4-70.2 29s-29 43.8-29 70.2v679.2c0 26.4 10.4 51.6 29 70.2s43.8 29.2 70.2 29.2h679.2c26.4 0 51.6-10.4 70.2-29 18.8-18.8 29-43.6 29-70.2l-1.4-449.4v-0.2c0.2-20 16.4-36.2 36.6-36.2 20 0 36.4 16 36.6 36.2l1.6 449.4v0.2c0 45.8-18.2 89.6-50.4 122-32.6 32-76.4 50.2-122.2 50.2h-679.2c-45.8 0-89.6-18.2-122-50.4-32.2-32.4-50.2-76.2-50.2-122v-679.2c0-45.8 18-89.6 50.4-122s76.2-50.4 122-50.4h449.4c20.2 0 36.6 16.4 36.6 36.6-0.2 20.2-16.6 36.6-36.8 36.6v0zM1012-2.4l-139.6 139.6c66.2 93 50 221.4-37.2 295.2s-216.4 68.4-297.2-12.4-86.2-210-12.4-297.2c73.8-87.2 202-103.4 295.2-37.2l139.6-139.6c14.2-14.2 37.4-14.2 51.6 0 14.4 14.2 14.4 37.4 0 51.6v0zM693.8 118c-69.8 0-129.8 49.4-143.6 117.8-13.6 68.4 23 137 87.6 163.8 64.4 26.8 138.8 4.2 177.6-53.8s31.2-135.4-18.2-184.8c-27.4-27.8-64.6-43.2-103.4-43v0zM803.4 629.8c20.2 0 36.6 16.4 36.6 36.6s-16.4 36.6-36.6 36.6l-585.2 0.2c-20.2 0-36.6-16.4-36.6-36.6s16.4-36.6 36.6-36.6l585.2-0.2zM437.8 410.6c13 0 25.2 7 31.6 18.2 6.6 11.4 6.6 25.2 0 36.6s-18.6 18.2-31.6 18.2h-219.6c-20.2 0-36.6-16.4-36.6-36.6s16.4-36.6 36.6-36.6l219.6 0.2zM218.2 264.4c-20.2 0-36.6-16.4-36.6-36.6s16.4-36.6 36.6-36.6h146.2c13.2-0.2 25.4 6.8 32 18.2s6.6 25.4 0 36.8c-6.6 11.4-18.8 18.2-32 18.2h-146.2z" />
<glyph unicode="&#xe92e;" glyph-name="btn-1" d="M837.8 776.4c60.2 0 109.2-49 109.2-109.2v-582.6c0-60.2-49-109.2-109.2-109.2h-509.8c-60.2 0-109.2 49-109.2 109.2v582.6c0 60.2 49 109.2 109.2 109.2h509.8zM837.8 812.8h-509.8c-80.4 0-145.6-65.2-145.6-145.6v-582.6c0-80.4 65.2-145.6 145.6-145.6h509.8c80.4 0 145.6 65.2 145.6 145.6v582.6c0 80.4-65.2 145.6-145.6 145.6v0zM182.4 122.2c-60.2 0-109.2 49-109.2 109.2v582.6c0 60.2 49 109.2 109.2 109.2h509.8c60.2 0 109.2-49 109.2-109.2v-1.2h36.4v1.2c0 80.4-65.2 145.6-145.6 145.6h-509.8c-80.6 0-145.8-65.2-145.8-145.6v-582.6c0-80.4 65.2-145.6 145.6-145.6v36.4zM394.8 539.8h407.4v-36.4h-407.4v36.4zM365.2 539.8h36.4v-36.4h-36.4v36.4zM394.8 394h407.4v-36.4h-407.4v36.4zM365.2 394h36.4v-36.4h-36.4v36.4zM394.8 248.4h334.6v-36.4h-334.6v36.4zM365.2 248.4h36.4v-36.4h-36.4v36.4z" />
<glyph unicode="&#xe92f;" glyph-name="btn-2" d="M898.844 789.333h-597.333c-73.956 0-130.844-56.889-130.844-130.844v-597.333c0-68.267 56.889-125.156 130.844-125.156h597.333c68.267 0 130.844 56.889 130.844 130.844v591.644c-5.689 73.956-62.578 130.844-130.844 130.844zM898.844 704c22.756 0 45.511-17.067 45.511-45.511v-597.333c0-22.756-17.067-45.511-45.511-45.511h-597.333c-22.756 0-45.511 17.067-45.511 45.511v597.333c0 22.756 17.067 45.511 45.511 45.511h597.333zM170.667 192h-39.822c-22.756 0-45.511 17.067-45.511 45.511v591.644c0 22.756 17.067 45.511 45.511 45.511h597.333c22.756 0 45.511-17.067 45.511-45.511v-39.822h79.644v39.822c0 73.956-56.889 130.844-125.156 130.844h-597.333c-73.956 0-130.844-56.889-130.844-130.844v-597.333c0-68.267 56.889-125.156 130.844-125.156h39.822v85.333zM557.511 192v341.333c0 22.756 17.067 45.511 45.511 45.511 22.756 0 45.511-17.067 45.511-45.511v-341.333c0-22.756-17.067-45.511-45.511-45.511s-45.511 22.756-45.511 45.511zM768 317.156h-341.333c-22.756 0-45.511 17.067-45.511 45.511 0 22.756 17.067 45.511 45.511 45.511h341.333c22.756 0 45.511-17.067 45.511-45.511 0-22.756-22.756-45.511-45.511-45.511z" />
<glyph unicode="&#xe930;" glyph-name="menu-1" d="M623.8 630h-42v42c0 17.6-14.4 32-32 32h-75c-17.6 0-32-14.2-32-32v-42h-42c-17.6 0-32-14.4-32-32v-75c0-17.6 14.2-32 32-32h42v-42c0-17.6 14.2-31.8 32-31.8h75c17.6 0 32 14.2 32 31.8v42h42c17.6 0 32 14.4 32 32v75c-0.2 17.6-14.4 32-32 32zM623.8 523h-74v-74h-75v74h-74v75h74v74h75v-74h74v-75zM917.8 908.4h-811.2c-58.6 0-106.4-47.8-106.4-106.4v-562.6c0-58.6 47.8-106.4 106.4-106.4h202v-91.6h-35.2c-14.6 0-26.6-12-26.6-26.6s12-26.6 26.6-26.6h477.6c14.6 0 26.6 11.8 26.6 26.6s-12 26.6-26.6 26.6h-35.2v91.6h202c58.6 0 106.4 47.8 106.4 106.4v562.6c0 58.6-47.6 106.4-106.4 106.4zM361.8 41.4v91.2h300.8v-91.2h-300.8zM53.4 785h917.6v-448.2h-917.6v448.2zM106.6 855.2h811.2c24 0 44.2-16.2 50.8-38.2h-912.8c6.6 21.8 26.8 38.2 50.8 38.2zM917.8 186.2h-811.2c-29.2 0-53.2 24-53.2 53.2v65.6h917.6v-65.6c0-29.2-23.8-53.2-53.2-53.2zM512.2 289.6c-23.8 0-43.2-19.4-43.2-43.2s19.4-43.2 43.2-43.2c23.8 0 43.2 19.4 43.2 43.2 0.2 23.8-19.2 43.2-43.2 43.2zM512.2 235c-6.2 0-11.4 5-11.4 11.4 0 6.2 5 11.4 11.4 11.4 6.2 0 11.4-5 11.4-11.4 0-6.2-5-11.4-11.4-11.4z" />
<glyph unicode="&#xe931;" glyph-name="styles" d="M977.4-64h-930.8c-25.8 0-46.6 20.8-46.6 46.6v930.8c0 25.8 20.8 46.6 46.6 46.6h931c25.6 0 46.4-20.8 46.4-46.6v-931c0-25.6-20.8-46.4-46.6-46.4v0zM931 820.4c0 25.8-20.8 46.6-46.6 46.6h-744.8c-25.6 0-46.6-21-46.6-46.6v-139.6h837.8v139.6zM931 587.6h-838v-512c0-25.8 20.8-46.6 46.6-46.6h744.8c25.8 0 46.6 20.8 46.6 46.6v512zM837.8 75.6h-93c-25.8 0-46.6 20.8-46.6 46.6s20.8 46.6 46.6 46.6h93c25.8 0 46.6-20.8 46.6-46.6s-20.8-46.6-46.6-46.6v0zM837.8 261.8h-93c-25.8 0-46.6 20.8-46.6 46.6s20.8 46.6 46.6 46.6h93c25.8 0 46.6-20.8 46.6-46.6s-20.8-46.6-46.6-46.6v0zM837.8 448h-93c-25.8 0-46.6 20.8-46.6 46.6s20.8 46.6 46.6 46.6h93c25.8 0 46.6-20.8 46.6-46.6s-20.8-46.6-46.6-46.6v0zM605 122.2h-418.8c-25.8 0-46.6 20.8-46.6 46.6s20.8 46.6 46.6 46.6h419c25.8 0 46.6-20.8 46.6-46.6-0.2-25.8-21-46.6-46.8-46.6v0zM605 261.8h-418.8c-25.8 0-46.6 20.8-46.6 46.6s20.8 46.6 46.6 46.6h419c25.8 0 46.6-20.8 46.6-46.6-0.2-25.8-21-46.6-46.8-46.6v0zM605 401.4h-418.8c-25.8 0-46.6 20.8-46.6 46.6s20.8 46.6 46.6 46.6h419c25.8 0 46.6-20.8 46.6-46.6-0.2-25.8-21-46.6-46.8-46.6v0zM558.6 820.4c25.8 0 46.6-20.8 46.6-46.6s-20.8-46.6-46.6-46.6-46.6 20.8-46.6 46.6c0 25.8 20.8 46.6 46.6 46.6v0zM698.2 820.4c25.8 0 46.6-20.8 46.6-46.6s-20.8-46.6-46.6-46.6c-25.8 0-46.6 20.8-46.6 46.6s20.8 46.6 46.6 46.6v0zM837.8 820.4c25.8 0 46.6-20.8 46.6-46.6s-20.8-46.6-46.6-46.6c-25.8 0-46.6 20.8-46.6 46.6s21 46.6 46.6 46.6v0z" />
<glyph unicode="&#xe932;" glyph-name="slide-open" horiz-adv-x="1509" d="M80.842 960h1347.368c44.648 0 80.842-36.194 80.842-80.842s-36.194-80.842-80.842-80.842h-1347.368c-44.648 0-80.842 36.194-80.842 80.842s36.194 80.842 80.842 80.842zM80.842 528.842h1347.368c44.648 0 80.842-36.194 80.842-80.842s-36.194-80.842-80.842-80.842h-1347.368c-44.648 0-80.842 36.194-80.842 80.842s36.194 80.842 80.842 80.842zM80.842 97.684h700.632c44.648 0 80.842-36.194 80.842-80.842s-36.194-80.842-80.842-80.842h-700.632c-44.648 0-80.842 36.194-80.842 80.842s36.194 80.842 80.842 80.842z" />
<glyph unicode="&#xe933;" glyph-name="set-2" d="M986.2 118h-480c-16.2 63-73.4 109.8-141.8 109.8-68.2 0-125.4-46.6-141.8-109.8h-187.2c-20.2 0-36.6-16.4-36.6-36.6s16.4-36.6 36.6-36.6h187.4c16.2-63 73.4-109.8 141.8-109.8 68.2 0 125.4 46.6 141.8 109.8h480c20.2 0 36.6 16.4 36.6 36.6-0.2 20.4-16.6 36.6-36.8 36.6v0zM364.6 7.2c-41 0-74.2 33.2-74.2 74.2s33.2 74.2 74.2 74.2 74.2-33.2 74.2-74.2c0-41-33.2-74.2-74.2-74.2v0zM986.2 483.8h-187.4c-16.2 63-73.4 109.8-141.8 109.8-68.2 0-125.4-46.6-141.8-109.8h-480c-20.2 0-36.6-16.4-36.6-36.6s16.4-36.6 36.6-36.6h480c16.2-63 73.4-109.8 141.8-109.8 68.2 0 125.4 46.6 141.8 109.8h187.4c20.2 0 36.6 16.4 36.6 36.6s-16.4 36.6-36.6 36.6v0zM657 373c-41 0-74.2 33.2-74.2 74.2s33.2 74.2 74.2 74.2c41 0 74.2-33.2 74.2-74.2 0.2-41-33-74.2-74.2-74.2v0zM35.4 776.4h187.4c16.2-63 73.4-109.8 141.8-109.8 68.2 0 125.4 46.6 141.8 109.8h480c20.2 0 36.6 16.4 36.6 36.6s-16.4 36.6-36.6 36.6h-480c-16.4 63-73.6 109.6-141.8 109.6s-125.4-46.6-141.8-109.8h-187.4c-20.2 0-36.6-16.4-36.6-36.6s16.4-36.4 36.6-36.4v0zM364.6 887.2c41 0 74.2-33.2 74.2-74.2s-33.2-74.2-74.2-74.2-74.2 33.2-74.2 74.2c-0.2 41 33 74.2 74.2 74.2v0z" />
<glyph unicode="&#xe934;" glyph-name="par-2" d="M711.6 501.4h-65.6v65.8c0 18-14.6 32.4-32.4 32.4h-99.8c-8.6 0-16.8-3.4-23-9.6-6-6-9.4-14.4-9.4-23v-65.8h-65.8c-18 0-32.4-14.6-32.4-32.4v-99.6c0-18 14.6-32.4 32.4-32.4h65.8v-65.8c0-18 14.6-32.4 32.4-32.4h99.6c18 0 32.4 14.6 32.4 32.4v65.8h65.6c18 0 32.4 14.6 32.4 32.4v99.6c0.2 18-14.2 32.6-32.2 32.6zM711.6 369.2h-98.2v-98.2h-99.6v98.2h-98.2v99.6h98.2v98.2h99.6v-98.2h98.2v-99.6zM997 744h-540c-8.4 65.6-50.2 104-115.6 104h-314.4c-14.8 0-27-12.2-27-27v-702.6c0-43.4 35.2-78.6 78.6-78.6 0 0 0.2 0 0.2 0s0.2 0 0.2 0h866.6c43.4 0 78.6 35.2 78.6 78.6v598.6c-0.2 15-12.4 27-27.2 27zM103.4 717v-598.6c0-13.4-11-24.4-24.4-24.4 0 0-0.2 0-0.2 0s-0.2 0-0.2 0c-13.4 0-24.4 11-24.4 24.4v675.4h287.2c34.6 0 54.4-16.6 60.8-49.8h-271.8c-15 0-27-12-27-27zM945.4 94h-792c2.4 7.6 3.8 15.8 3.8 24.2h694.4c9 0 16.2 7.2 16.2 16.2s-7.2 16.2-16.2 16.2h-694.2v539.4h812.6v-539.4h-55c-9 0-16.2-7.2-16.2-16.2s7.2-16.2 16.2-16.2h55c-0.4-13.4-11.2-24.2-24.6-24.2z" />
<glyph unicode="&#xe935;" glyph-name="menu-5" d="M711.6 501.4h-65.6v65.8c0 18-14.6 32.4-32.4 32.4h-99.8c-8.6 0-16.8-3.4-23-9.6-6-6-9.4-14.4-9.4-23v-65.8h-65.8c-18 0-32.4-14.6-32.4-32.4v-99.6c0-18 14.6-32.4 32.4-32.4h65.8v-65.8c0-18 14.6-32.4 32.4-32.4h99.6c18 0 32.4 14.6 32.4 32.4v65.8h65.6c18 0 32.4 14.6 32.4 32.4v99.6c0.2 18-14.2 32.6-32.2 32.6zM711.6 369.2h-98.2v-98.2h-99.6v98.2h-98.2v99.6h98.2v98.2h99.6v-98.2h98.2v-99.6zM997 744h-540c-8.4 65.6-50.2 104-115.6 104h-314.4c-14.8 0-27-12.2-27-27v-702.6c0-43.4 35.2-78.6 78.6-78.6 0 0 0.2 0 0.2 0s0.2 0 0.2 0h866.6c43.4 0 78.6 35.2 78.6 78.6v598.6c-0.2 15-12.4 27-27.2 27zM103.4 717v-598.6c0-13.4-11-24.4-24.4-24.4 0 0-0.2 0-0.2 0s-0.2 0-0.2 0c-13.4 0-24.4 11-24.4 24.4v675.4h287.2c34.6 0 54.4-16.6 60.8-49.8h-271.8c-15 0-27-12-27-27zM945.4 94h-792c2.4 7.6 3.8 15.8 3.8 24.2h694.4c9 0 16.2 7.2 16.2 16.2s-7.2 16.2-16.2 16.2h-694.2v539.4h812.6v-539.4h-55c-9 0-16.2-7.2-16.2-16.2s7.2-16.2 16.2-16.2h55c-0.4-13.4-11.2-24.2-24.6-24.2z" />
<glyph unicode="&#xe936;" glyph-name="par-1" d="M938.6-62.4h-853.4c-47 0-85.2 43.2-85.2 96v830.4c0 52.8 38.4 96 85.2 96h349.2c47 0 85.2-43.2 85.2-96v-35c0-26.4 19.2-48 42.6-48h376.2c47 0 85.2-43.2 85.2-96v-650.6c0.4-53.6-38-96.8-85-96.8zM85.2 912c-23.4 0-42.6-21.6-42.6-48v-830.2c0-26.4 19.2-48 42.6-48h853.4c23.4 0 42.6 21.6 42.6 48v651c0 26.4-19.2 48-42.6 48h-376.2c-47 0-85.2 43.2-85.2 96v35.2c0 26.4-19.2 48-42.6 48h-349.4zM21.4 571.4h1002.6v-48h-1002.6v48z" />
<glyph unicode="&#xe937;" glyph-name="btn-3" d="M403.6 177.2v161.6h-161.6c-89.2 0-161.6-72.4-161.6-161.6 0-89.4 72.4-161.6 161.6-161.6 89.2-0.2 161.6 72.2 161.6 161.6v0zM484.4 177.2c0-134-108.6-242.6-242.6-242.6s-242.4 108.6-242.4 242.6c0 134 108.6 242.6 242.6 242.6h242.6v-242.6zM619.2 177.2v161.6h161.6c89.4 0 161.6-72.4 161.6-161.6 0-89.4-72.4-161.6-161.6-161.6-89.2-0.2-161.6 72.2-161.6 161.6v0zM538.4 177.2c0-134 108.6-242.6 242.6-242.6s242.6 108.6 242.6 242.6c0 134-108.6 242.6-242.6 242.6h-242.6v-242.6zM403.6 716v-161.6h-161.6c-89.2 0-161.6 72.4-161.6 161.6s72.2 161.8 161.6 161.8c89.2 0 161.6-72.4 161.6-161.8v0zM484.4 716c0 134-108.6 242.6-242.4 242.6s-242.6-108.6-242.6-242.6 108.6-242.4 242.6-242.4h242.6v242.4zM619.2 716v-161.6h161.6c89.4 0 161.6 72.4 161.6 161.6s-72.4 161.6-161.6 161.6c-89.2 0.2-161.6-72.2-161.6-161.6v0zM538.4 716c0 134 108.6 242.6 242.6 242.6s242.6-108.6 242.6-242.6-108.6-242.6-242.6-242.6h-242.6v242.6z" />
<glyph unicode="&#xe938;" glyph-name="par-3" d="M705.6 504h-62.4v62.4c0 17.6-14.4 32-32 32h-95.8c-8.4 0-16.6-3.4-22.6-9.4s-9.4-14.2-9.4-22.6v-62.4h-62.4c-17.8 0-32-14.4-32-32v-96c0-17.6 14.4-32 32-32h62.4v-62.4c0-17.6 14.4-32 32-32h96c17.6 0 32 14.4 32 32v62.4h62.4c17.6 0 32 14.4 32 32v95.8c-0.2 17.8-14.6 32.2-32.2 32.2zM705.6 376h-94.4v-94.4h-96v94.4h-94.4v95.8h94.4v94.4h95.8v-94.4h94.4v-95.8zM893.2 924.4h-17c-7.4 20.8-27 35.6-50.2 35.6h-112.6c-23.2 0-43-14.8-50.4-35.6h-532.2c-29.4 0-53.4-24-53.4-53.4v-881.6c0-29.4 24-53.4 53.4-53.4h762.4c29.4 0 53.4 24 53.4 53.4v881.6c0 29.6-23.8 53.4-53.4 53.4zM712.6 871h0.6v35.6h112.4v-267.8l-53.4 31.2-59.4-31.2v232.2zM893.2-10.6h-642.4v715.8c0 8.8-7.2 16-16 16s-16-7.2-16-16v-715.8h-88v881.6h88v-98.8c0-8.8 7.2-16 16-16s16 7.2 16 16v98.8h429.8v-232.2c0-11.2 5.8-21.6 15.4-27.4 5-3 10.8-4.6 16.6-4.6 5 0 10.2 1.2 14.8 3.6l43.8 23 38.4-22.2c5-3 10.6-4.4 16.2-4.4s11 1.4 16 4.2c10 5.8 16 16.4 16 27.8v232.2h35.4v-881.6zM592.4 81.4h-60.6c-8.8 0-16-7.2-16-16s7.2-16 16-16h60.6c8.8 0 16 7.2 16 16s-7.2 16-16 16zM660.6 135.4h-196.8c-8.8 0-16-7.2-16-16s7.2-16 16-16h196.8c8.8 0 16 7.2 16 16s-7.2 16-16 16zM173.4 97.6c-8.8 0-16-7.2-16-16v-32.6c0-8.8 7.2-16 16-16s16 7.2 16 16v32.6c0 8.8-7.2 16-16 16zM173.4 844.8c-8.8 0-16-7.2-16-16v-22.6c0-8.8 7.2-16 16-16s16 7.2 16 16v22.6c0 8.8-7.2 16-16 16zM173.4 276.6c-8.8 0-16-7.2-16-16v-122c0-8.8 7.2-16 16-16s16 7.2 16 16v122c0 9-7.2 16-16 16z" />
<glyph unicode="&#xe939;" glyph-name="par-7" d="M999.6 221.4l-103.6 67.2-14.6 501.2c-0.8 50.6-55.6 72.2-137.4 89-69.8 14.2-153 22-234.8 22-81.6 0-164-7.8-232-22.2-80-16.8-133.6-38.4-134.4-89l-14.8-501-103.6-67.2c-15.2-10-24.4-27-24.4-45.2v-111.4c0-29.8 24-53.8 53.8-53.8h916.4c29.8 0 53.8 24 53.8 53.8v111.4c0 18.2-9.2 35.2-24.4 45.2zM196.4 788.8c0 21.8 140 58.4 312.6 58.4s318.4-36.6 318.4-58.4l14.6-498.2h-660l14.4 498.2zM970.2 64.8h-916.4v94.8h647.4c8.8 0 16.2 7.2 16.2 16.2 0 8.8-7.2 16.2-16.2 16.2h-623.4l102.4 66.6h663.6l102.4-66.6h-123.2c-8.8 0-16.2-7.2-16.2-16.2s7.2-16.2 16.2-16.2h147.2v-94.8zM632.4 642.4h-47.6v47.6c0 17.8-14.4 32.2-32.2 32.2h-81c-17.8 0-32.2-14.4-32.2-32.2v-47.6h-47.6c-17.8 0-32.2-14.4-32.2-32.2v-81c0-17.8 14.4-32.2 32.2-32.2h47.6v-47.6c0-17.8 14.4-32.2 32.2-32.2h81c17.8 0 32.2 14.4 32.2 32.2v47.6h47.6c17.8 0 32.2 14.4 32.2 32.2v80.8c0 17.8-14.4 32.4-32.2 32.4zM632.4 529h-79.8v-79.8h-81v79.8h-79.8v81h79.8v79.8h81v-79.8h79.8v-81z" />
<glyph unicode="&#xe93a;" glyph-name="btn-4" d="M742 945c20.6 20.6 54.6 20 76.4-1.8l117.2-117.2c21.6-21.6 22.4-55.8 1.8-76.4l-577.4-577.4c-10.2-10.2-30-21.8-44.4-25.6l-186.2-50.8c-28.4-7.8-45.4 9.2-38.4 37.6l48.2 190.2c3.6 14.2 15 34.2 25.2 44.2l577.6 577.2zM203.6 328.6c-3.8-3.8-10.6-15.6-11.8-20.8l-37.8-148.8 145 39.6c5.8 1.6 17.6 8.4 21.8 12.6l577.6 577.4-117.2 117.4-577.6-577.4zM740.2 865l117.2-117.2-39.2-39.2-117.2 117.4 39.2 39zM271 396l117.2-117.2-39-39-117.2 117 39 39.2zM76.6-36.4c0 15.2 12.2 27.6 27.8 27.6h856.6c15.2 0 27.6-12.4 27.6-27.6s-12.4-27.6-27.6-27.6h-856.6c-7.4 0-14.4 2.8-19.6 8s-8.2 12.2-8.2 19.6v0z" />
<glyph unicode="&#xe93b;" glyph-name="par-14" d="M704.6 371.2l47.2 47.2c12.4 12.4 12.4 32.6 0 45l-70.8 70.8c-6.2 6.2-14.4 9.4-22.4 9.4-8.2 0-16.2-3-22.4-9.4l-47.2-47.2-47.2 47.2c-6.2 6.2-14.4 9.4-22.6 9.4s-16.2-3-22.4-9.4l-70.8-70.8c-12.4-12.4-12.4-32.6 0-45l47.2-47.2-47.4-47.2c-12.4-12.4-12.4-32.6 0-45l70.8-70.8c6-6 14-9.4 22.4-9.4s16.6 3.4 22.4 9.4l47.2 47.2 47.2-47.2c6-6 14-9.4 22.4-9.4s16.6 3.4 22.4 9.4l70.8 70.8c12.4 12.4 12.4 32.6 0 45l-46.8 47.2zM658.6 230.8l-69.8 69.8-69.8-69.8-70.8 70.8 69.8 69.8-69.8 69.6 70.8 70.8 69.8-69.6 69.6 69.6 70.8-70.8-69.6-69.8 69.8-69.6-70.8-70.8zM987.2 457.6l-310 309.8c-36.8 36.8-102.8 63.6-156.6 63.6-2.6 0-5.4 0-8-0.2l-243.6-12.8c-10-0.6-19.8-2.4-29.2-5-46.8 96.6-62 112-67.4 117.4-19 19.2-44.4 29.6-71.4 29.6v0c-27 0-52.4-10.4-71.4-29.6-19-19-29.6-44.4-29.6-71.4s10.6-52.4 29.6-71.4c16-16 66-42.6 117.4-67.4-2.6-9.4-4.4-19-5-29l-12.6-243.4c-2.8-55 24.4-126 63.4-165l309.8-309.8c23.8-23.8 55.4-36.8 89.2-36.8s65.4 13 89.2 36.8l306.2 306.4c23.8 23.8 36.8 55.4 36.8 89.2s-13 65.2-36.8 89zM159.2 749.6c-51 24.8-94.8 48.2-107.2 60.4-13 13-20.2 30.4-20.2 49 0 18.4 7.2 35.8 20.2 49 13 13 30.4 20.4 49 20.4v0c18.4 0 35.8-7.2 49-20.4 6.4-6.4 22.8-29.2 60.4-107.2-21.2-12.2-39-30-51.2-51.2zM949.6 316.6l-306.2-306.2c-14.2-14.2-33-21.4-51.6-21.4-18.8 0-37.4 7.2-51.6 21.4l-310 309.8c-28.4 28.4-50 84.6-48 124.6l12.6 243.4c0.2 3 0.8 5.8 1.4 8.6 9-4.2 17.8-8.2 26-11.8-3.4-19.8 2.6-41 17.8-56.2 12.2-12.2 28.4-19 45.6-19s33.4 6.8 45.6 19c25.2 25.2 25.2 66 0 91.2-12.2 12.2-28.4 18.8-45.6 18.8s-33.4-6.6-45.6-18.8c-1.8-1.8-3.2-4-4.8-6-9 4.2-18.2 8.4-27.4 12.6 14 21.6 37.6 37 64 38.4l243.4 12.6c1.8 0 3.6 0.2 5.6 0.2 39.6 0 92-20.8 119.2-48l309.6-309.8c28.4-28.4 28.4-75 0-103.4zM292 689c-8.2 3.6-17 7.4-26 11.4 5.6 4.2 12.4 6.8 19.6 6.8 8.8 0 17-3.4 23-9.6 6.2-6.2 9.6-14.4 9.6-23 0-8.8-3.4-17-9.6-23-12.4-12.4-33.8-12.4-46.2 0-5.6 5.6-8.4 12.6-9.2 19.8 12.8-5.6 22.2-9.6 26-11.4 2-0.8 4.2-1.2 6.2-1.2 6.2 0 12 3.6 14.6 9.6 3.8 7.8 0 17-8 20.6z" />
<glyph unicode="&#xe93c;" glyph-name="child-1" d="M513.2 524.4c-42.6 0-77.2-34.6-77.2-77.4 0-42.6 34.6-77.4 77.2-77.4s77.4 34.6 77.4 77.4c0 42.6-34.8 77.4-77.4 77.4zM513.2 401.8c-25 0-45.2 20.2-45.2 45.2s20.2 45.2 45.2 45.2c25 0 45.2-20.2 45.2-45.2s-20.2-45.2-45.2-45.2zM699.6 554.6c-3.2 41.4-8 81.4-14.6 119.2 122.6 38 207 34.2 225.2 2.6 12.6-21.6 0.4-72.6-71.2-150.2-10-10.8-9.2-27.8 1.6-37.8 11-10 27.8-9.2 37.8 1.6 80.8 87.8 108 161.6 78 213.2-40.2 69.6-165 62.6-306.4 15.2-0.2 0-0.6 0-0.8 0-2.6-0.4-4.8-1.4-7-2.6-42.2-14.6-85.8-32.6-129-53.4-37.4 18-74.6 33.8-110.6 47 28.2 125.2 74 196.4 110.4 196.4 24.6 0 62-34.8 93.2-132.6 4.6-14 19.6-21.8 33.6-17.4 14 4.6 21.8 19.6 17.2 33.6-35.2 111-85 169.6-143.8 169.6-80.4 0-136.8-111.8-166.4-258 0-0.2-0.2-0.4-0.2-0.4-0.8-2.4-1.2-4.6-1.2-7-8.6-44-14.6-90.8-18.4-138.8-34.2-23.4-66.6-47.6-96-72.2-19.4 17.8-37 35.8-52.6 53.6-53.4 60.6-77.2 114.4-62.2 140.2 12.6 21.6 62.4 36.6 165.2 13.6 14.4-3.2 28.6 5.8 31.8 20.2s-5.8 28.8-20.2 32c-116.2 26-193.4 12.4-223.2-39.2-28.4-49.2-4.8-119.2 68.2-202.4 21.6-24.4 47-49.2 75-73.8 0.6-0.6 1.2-1.2 1.8-1.6 33.6-29.2 71.2-58.2 112-86 3.2-41.4 8-81.4 14.6-119.2-122.6-38-207-34-225.2-2.4-12.6 22-0.2 73.4 72.6 151.8 10 10.8 9.4 27.8-1.4 37.8s-27.8 9.4-37.8-1.4c-81-87.4-109.2-163.6-79.6-215 20.8-36 64.2-51.6 121-51.6 52.8 0 117.2 13.6 185.4 36.4 0.2 0 0.6 0 0.8 0 2.4 0.4 4.8 1.4 6.8 2.4 42.2 14.6 86 32.8 129.2 53.4 37.4-18 74.6-33.8 110.6-47-28.2-125.2-74-196.4-110.4-196.4-24.4 0-61.8 34.6-93 132-4.6 14-19.6 21.8-33.6 17.2s-21.8-19.6-17.2-33.6c35.6-110.6 85.4-169 144-169 80.4 0 136.8 111.6 166.4 257.8 0 0.2 0.2 0.4 0.4 0.6 0.8 2.6 1.2 5 1.2 7.6 8.6 43.8 14.6 90.6 18.4 138.2 34.2 23.4 66.6 47.6 96 72.2 19.4-18 37.2-35.8 52.8-53.6 53.4-60.6 77-114.4 62-140.2-12.4-21.6-62.2-36.6-164.6-13.8-14.4 3.2-28.6-5.8-31.8-20.4-3.2-14.4 6-28.6 20.4-31.8 38.2-8.4 72-12.6 101.6-12.6 59.8 0 101 17.4 121 52 28.4 49.4 4.8 119.2-68.4 202.4-48.2 54.4-113.6 110-189.4 161.6zM323.4 407.2c-18 13.2-35.2 26.4-51.4 39.8 16.2 13.4 33.6 26.6 51.4 39.8-0.4-13.2-0.6-26.6-0.6-39.8 0-13.4 0.2-26.6 0.6-39.8zM633.8 656.2c3.4-20.8 6.4-42.6 8.8-64.6-11.2 6.8-22.6 13.8-34.2 20.4-11.6 6.8-23.2 13.2-35 19.4 20.8 9.2 41 17.6 60.4 24.8zM392.4 656c19.8-7.4 40-15.8 60.4-24.8-11.6-6.4-23.2-12.8-34.8-19.4s-23-13.6-34.4-20.6c2.4 22.8 5.4 44.4 8.8 64.8zM392.6 237.8c-3.4 20.8-6.4 42.6-8.8 64.8 11.2-7 22.6-13.8 34.2-20.4 11.6-6.8 23.2-13.2 35-19.4-20.8-9.4-41-17.6-60.4-25zM634 238c-19.8 7.4-40 15.8-60.4 24.8 11.6 6.4 23.4 12.8 34.8 19.4 11.6 6.6 23 13.6 34.4 20.6-2.4-22.8-5.4-44.4-8.8-64.8zM648.2 369.4c-21.6-14.2-43.8-27.8-66.4-41-23.2-13.4-46-25.8-68.2-37-23 11.6-46 24-68.6 37-22.8 13.2-44.8 27-66.2 40.8-1.4 25.6-2.2 51.6-2.2 77.8 0 27 0.8 52.8 2 77.6 21.6 14 43.6 27.8 66.4 41 23.2 13.4 46 25.8 68.2 37 23-11.6 46-24 68.6-37 22.8-13.2 44.8-27 66.2-41 1.4-25.6 2.2-51.6 2.2-77.8 0-26.6-0.8-52.6-2-77.4zM703 407.2c0.4 13.2 0.6 26.6 0.6 39.8 0 13.4-0.2 26.6-0.6 39.8 18-13.2 35.2-26.4 51.4-39.8-16.2-13.4-33.4-26.6-51.4-39.8z" />
<glyph unicode="&#xe93d;" glyph-name="child-2" d="M991 959.2h-959.4c-19.2 0-32-12.8-32-32v-959.2c0-19.2 12.8-32 32-32h959.2c19.2 0 32 12.8 32 32v959.2c0 19.2-12.6 32-31.8 32v0zM959 895.2v-191.8h-895.4v191.8h895.4zM63.6 0v639.4h895.4v-639.4h-895.4zM799 518h-287.8c-19.2 0-32-12.8-32-32s12.8-32 32-32h287.8c19.2 0 32 12.8 32 32s-19.2 32-32 32v0zM799 338.8h-575.4c-12.8 0-32-12.8-32-32s12.8-32 32-32h569.2c19.2 0 32 12.8 32 32-0.2 19.2-13 32-25.8 32v0zM799 166.2h-575.4c-19.2 0-32-12.8-32-32s12.8-32 32-32h569.2c19.2 0 32 12.8 32 32-0.2 19.2-13 32-25.8 32v0zM146.8 799.4c0-28.2 23-51.2 51.2-51.2s51.2 23 51.2 51.2c0 28.2-23 51.2-51.2 51.2-28.4-0.2-51.2-23-51.2-51.2v0zM313 799.4c0-18.2 9.8-35.2 25.6-44.4s35.4-9.2 51.2 0c15.8 9.2 25.6 26 25.6 44.4 0 18.2-9.8 35.2-25.6 44.4s-35.4 9.2-51.2 0c-15.8-9.4-25.6-26.2-25.6-44.4v0zM473 799.4c0-28.2 23-51.2 51.2-51.2s51.2 23 51.2 51.2c0 18.2-9.8 35.2-25.6 44.4s-35.4 9.2-51.2 0c-16-9.4-25.6-26.2-25.6-44.4v0z" />
<glyph unicode="&#xe93e;" glyph-name="child-3" d="M741.2 873.6c-91.8 0-176.6-44.6-229.2-117.4-52.4 72.8-137.4 117.4-229.2 117.4-156 0-282.8-127-282.8-282.8 0-93.2 46.2-159.4 83.2-212.8 109.4-157 386-353.4 397.8-361.8 9.2-6.6 20-9.8 31-9.8 10.8 0 21.6 3.2 31 9.8 11.8 8.2 288.4 204.6 397.8 361.8 37 53.2 83.2 119.6 83.2 212.8 0 155.8-126.8 282.8-282.8 282.8zM896.8 408.6c-105.4-151.2-384.8-348.6-384.8-348.6s-279.4 197.4-384.8 348.6c-38.8 55.8-73.6 108.8-73.6 182.2 0 126.6 102.6 229.2 229.2 229.2 93.6 0 173.8-56.2 209.4-136.6v0.4h0.2c2.6-8.4 10.4-14.4 19.6-14.4s17 6 19.6 14.4h0.2c35.8 80.2 116 136.2 209.4 136.2 126.6 0 229.2-102.6 229.2-229.2 0-73.4-34.8-126.4-73.6-182.2zM876 470h-108.2c-6.8 0-12.8-4.2-15.2-10.6l-27-74-54.6 163c-2.2 6.4-8.2 10.8-15 11-7.2 0.2-13-4-15.4-10.4l-50.4-133.6-20.6 48.6c-2.6 6-8.4 9.8-14.8 9.8h-97.2c-6.8 0-12.8-4.4-15.2-10.8l-26.8-77-54.4 162.4c-2.2 6.4-8.2 10.8-15 11s-13-4-15.4-10.4l-50.2-133.6-20.6 48.4c-2.6 6-8.4 9.8-14.8 9.8h-97.2c-8.8 0-16-7.2-16-16 0-9 7.2-16.2 16-16.2h86.6l32.2-75.8c2.6-6 8.4-9.8 15.2-9.8 6.6 0.2 12.4 4.2 14.8 10.4l48.6 129 54.8-163.8c2.2-6.6 8.2-10.8 15.2-11 0 0 0 0 0.2 0 6.8 0 12.8 4.2 15.2 10.8l39 110.2h75.2l32.2-75.8c2.6-6 8.8-9.8 15.2-9.8 6.6 0.2 12.4 4.2 14.8 10.4l48.4 129 54.8-163.8c2.2-6.4 8.2-10.8 15-11 0 0 0.2 0 0.2 0 6.8 0 12.8 4.2 15.2 10.6l38.8 106.8h96.4c8.8 0 16 7.2 16 16.2 0.2 8.8-7 16-16 16z" />
<glyph unicode="&#xe93f;" glyph-name="child-4" d="M955.4 214.2c-63.2 109.2-164.4 190.2-284.6 228.2-9.4 3-19.8 0.4-27-6.6-2.2-2.2-4.4-4.2-6.6-6.2-0.6-0.4-1.2-1-1.6-1.6-42.8-41-92-74-115.4-89-25 16.6-78.8 53.8-116.4 89.2-0.4 0.4-1 1-1.4 1.4-2.2 2.2-4.6 4.2-6.8 6.4-7 7-17.4 9.6-26.8 6.6-120.2-37.8-221.4-118.8-284.6-228.2-4.8-8.2-4.8-18.4 0-26.8 90-155.2 257-251.6 435.8-251.6s345.8 96.4 435.6 251.4c4.6 8.4 4.6 18.4-0.2 26.8zM159.8 170.4c-7.4 9.8-14.4 20-21 30.4 31 49.6 71 91.8 117.6 125.4-28.2-33.2-54-71.4-76.8-114.6-7-13.2-13.6-27.2-19.8-41.2zM536-10v176.6c0 8.8-7.2 16-16 16s-16-7.2-16-16v-176.6c-124 4.4-240.2 60.6-321.4 152.4 7.8 18.8 16.2 37 25.2 54.4 44 84.4 100 149 163 189.2 50.2-46.2 121-92.2 133.2-100v-48.2c0-8.8 7.2-16 16-16s16 7.2 16 16v48c13.4 8 76.6 46.8 133.2 100 64-40.8 120.6-106.8 164.8-193 8.2-16.2 16-33.2 23.2-50.4-80.8-92-197.2-148-321.2-152.4zM880.2 170.4c-5.6 12.6-11.6 25-17.8 37-23.2 45-49.6 84.6-78.8 118.6 46.4-33.6 86.6-75.8 117.4-125.4-6.4-10.2-13.4-20.2-20.8-30.2zM520 432.8c116.4 0 211 94.6 211 211v105.2c0 116.4-94.6 211-211 211s-211-94.6-211-211v-105.2c0-116.4 94.6-211 211-211zM362.4 749c0 87 70.8 157.6 157.6 157.6 87 0 157.6-70.8 157.6-157.6v-105.2c0-87-70.6-157.6-157.6-157.6s-157.6 70.8-157.6 157.6v105.2zM743.2 231.8h-16.4v16.6c0 17.6-14.2 32-32 32h-49.2c0 0 0 0 0 0-8.4 0-16.6-3.4-22.6-9.4s-9.4-14.2-9.4-22.6v-16.6h-16.6c-17.6 0-32-14.4-32-32v-49.2c0-17.6 14.4-32 32-32h16.6v-16.6c0-17.6 14.4-32 32-32h49.2c17.6 0 32 14.4 32 32v16.6h16.4c17.8 0 32 14.4 32 32v49.2c0 17.6-14.4 32-32 32zM743.2 150.4h-48.4v-48.6h-49.2v48.6h-48.6v49.2h48.6v48.6h49.2v-48.6h48.4v-49.2z" />
<glyph unicode="&#xe940;" glyph-name="child-5" d="M742.8 229.8h-60.6v3.6c0 8.8-7.2 16-15.8 16-8.8 0-15.8-7.2-15.8-16v-3.6h-60.6c-8.8 0-15.8-7.2-15.8-15.8v-93.4c0-8.8 7-15.8 15.8-15.8h153c8.8 0 16 7.2 16 15.8v93.4c-0.4 8.8-7.4 15.8-16.2 15.8zM726.8 136.4h-121.2v61.6h44.6v-3.6c0-8.8 7.2-15.8 15.8-15.8 8.8 0 15.8 7.2 15.8 15.8v3.6h44.6v-61.6zM666.2 261.8c4.2 0 8.2 1.6 11.4 4.6 3 3 4.6 7 4.6 11.2s-1.6 8.2-4.6 11.2c-6 6-16.4 6-22.4 0-3-3-4.6-7-4.6-11.2s1.8-8.2 4.6-11.2c2.8-3 7-4.6 11-4.6zM943.8 212.4c-62.8 108.4-163 188.8-282.4 226.4-9.4 3-19.6 0.4-26.6-6.6-2.2-2.2-4.4-4.2-6.4-6.2-0.6-0.4-1.2-1-1.8-1.6-42.6-40.6-91.2-73.4-114.4-88.2-25 16.6-78.2 53.4-115.6 88.4-0.4 0.4-1 1-1.4 1.4-2.2 2-4.6 4.2-6.6 6.2-7 7-17.2 9.6-26.6 6.6-119.4-37.6-219.8-118-282.4-226.4-4.8-8.2-4.8-18.4 0-26.6 89-154 254.8-249.6 432.2-249.6 177.6 0 343.2 95.6 432.2 249.6 4.6 8.2 4.6 18.4-0.2 26.6zM154.2 169c-7.4 9.8-14.4 19.8-20.8 30.2 30.6 49.2 70.6 91 116.6 124.4-28-32.8-53.6-70.8-76.2-113.8-7-13.2-13.4-26.8-19.6-40.8zM527.6-10.2v175.2c0 8.8-7.2 15.8-15.8 15.8-8.8 0-15.8-7.2-15.8-15.8v-175.2c-123.2 4.4-238.4 60.2-319 151.4 7.8 18.6 16.2 36.8 25 54 43.8 83.8 99.2 147.8 161.8 187.8 50-46 120.2-91.6 132.2-99.2v-47.8c0-8.8 7.2-15.8 15.8-15.8 8.8 0 15.8 7.2 15.8 15.8v47.6c13.2 8 76 46.4 132.2 99.4 63.6-40.4 119.6-106 163.6-191.6 8.2-16 15.8-33 23.2-50.2-80.6-91.2-196-147-319-151.4zM869.2 169c-5.6 12.6-11.4 24.8-17.6 36.8-23 44.6-49.4 83.8-78.2 117.8 46.2-33.4 85.8-75.4 116.6-124.4-6.4-10.4-13.6-20.4-20.8-30.2zM511.6 429.4c115.4 0 209.4 94 209.4 209.4v261.6c0 11-6.8 20.8-17 24.8-61.8 23.2-126.4 35-192.4 35s-130.6-11.8-192.4-35.2c-10.2-4-17.2-13.8-17.2-24.8v-261.6c0.2-115.2 94.2-209.2 209.6-209.2zM355.2 881.8c101 34 212 34 313 0v-134.6h-313v134.6zM355.2 715.4h313v-76.6c0-86.2-70.2-156.4-156.6-156.4s-156.4 70.2-156.4 156.4v76.6zM549.8 842h-22.2v22.4c0 8.8-7.2 15.8-15.8 15.8-8.8 0-15.8-7.2-15.8-15.8v-22.4h-22.4c-8.8 0-15.8-7.2-15.8-15.8 0-8.8 7.2-15.8 15.8-15.8h22.4v-22.4c0-8.8 7.2-15.8 15.8-15.8 8.8 0 15.8 7.2 15.8 15.8v22.2h22.2c8.8 0 15.8 7.2 15.8 15.8 0.2 9-7 16-15.8 16z" />
<glyph unicode="&#xe941;" glyph-name="par-11" d="M995.6 789.4h-472.2c-8.6 0-14.2 2.8-20 8.6l-96.8 96.8c-5.6 5.6-11.4 8.6-20 8.6h-358.2c-17-0.2-28.4-11.6-28.4-28.8v-853.4c0-17 11.4-28.4 28.4-28.4h967.2c17 0 28.4 11.4 28.4 28.4v739.6c0 17.2-11.4 28.6-28.4 28.6zM967.2 49.8h-910.4v796.4h318.6l88.2-88.2c17-17 37-25.6 59.8-25.6h443.8c0 0 0-682.6 0-682.6zM458 607.2l241.8-241.8-162.2-162.2-241.8 242 14.2 148 148 14zM466.4 664.2l-184.8-17c-14.2 0-25.6-11.4-25.6-25.6l-17-184.8c0-8.6 2.8-17 8.6-22.8l273-273c5.6-5.6 14.2-8.6 20-8.6 5.6 0 14.2 2.8 20 8.6l202 202c11.4 11.4 11.4 28.4 0 39.8l-273.4 272.8c-5.6 5.8-14.2 8.6-22.8 8.6zM369.8 504.8c0-15.8 12.8-28.4 28.4-28.4s28.4 12.8 28.4 28.4c0 15.8-12.8 28.4-28.4 28.4s-28.4-12.6-28.4-28.4z" />
<glyph unicode="&#xe942;" glyph-name="child-6" d="M948.4 214.4c-63.2 109.2-164.4 190.2-284.6 228.2-9.4 3-19.8 0.4-26.8-6.6-2.2-2.2-4.4-4.2-6.6-6.2-0.6-0.4-1.2-1-1.6-1.6-42.8-41-92-74-115.4-89-25 16.6-78.8 53.8-116.4 89.2-0.4 0.4-0.8 1-1.4 1.4-2.2 2.2-4.6 4.2-6.6 6.4-7 7-17.4 9.6-27 6.6-120.4-37.8-221.4-118.8-284.6-228.2-4.8-8.2-4.8-18.4 0-26.8 89.8-155.2 256.6-251.6 435.6-251.6 178.8 0 345.8 96.4 435.4 251.4 4.8 8.4 4.8 18.6 0 26.8zM152.6 170.8c-7.4 9.8-14.4 20-21 30.4 31 49.6 71 91.8 117.6 125.4-28.2-33.2-54-71.4-76.8-114.6-7-13.4-13.4-27.2-19.8-41.2zM529-9.8v176.6c0 8.8-7.2 16-16 16s-16-7.2-16-16v-176.6c-124 4.4-240.2 60.6-321.4 152.4 8 18.8 16.2 37 25.4 54.4 44 84.4 100 149 163 189.2 50.2-46.2 121-92.2 133.2-100v-48.2c0-8.8 7.2-16 16-16s16 7.2 16 16v48c13.4 8 76.6 46.8 133.2 100 64-40.8 120.4-106.8 164.8-193 8.4-16.2 16-33.2 23.2-50.4-81.2-91.8-197.4-148-321.4-152.4zM873.2 170.8c-5.6 12.6-11.6 25-17.6 37-23.2 45-49.6 84.6-78.8 118.6 46.4-33.6 86.6-75.8 117.4-125.4-6.6-10.4-13.8-20.4-21-30.2zM736.2 232h-16.6v16.6c0 17.6-14.4 32-32 32h-49.2c-8.6 0-16.6-3.4-22.6-9.4s-9.4-14.2-9.4-22.6v-16.6h-16.6c-17.6 0-32-14.4-32-32v-49.2c0-17.6 14.4-32 32-32h16.6v-16.6c0-17.6 14.4-32 32-32h49.2c17.6 0 32 14.4 32 32v16.6h16.6c17.6 0 32 14.4 32 32v49.2c0 17.8-14.4 32-32 32zM736.2 150.8h-48.6v-48.6h-49.2v48.6h-48.6v49.2h48.6v48.6h49.2v-48.6h48.6v-49.2zM301.8 644.2c0-116.4 94.6-211 211-211s211 94.6 211 211v105.2c0.2 116.2-94.6 210.8-210.8 210.8-46.4 0-89-15.2-123.8-40.6-62.2-3-111.8-55-111.8-119 0-27.4 9.2-52.6 24.6-72.8v-83.6zM670.6 749.2v-105.2c0-87-70.8-157.6-157.6-157.6-87 0-157.8 70.8-157.8 157.6v44.6c12.4-4.4 25.6-7 39.4-7 49.4 0 91.8 31.4 109 75.4h166.6c0-2.6 0.4-5.2 0.4-7.8zM513 907c73.2 0 134.6-50.2 152.4-117.8h-154c0.4 3.8 0.6 7.8 0.6 11.8s-0.2 7.8-0.6 11.8h90.4c8.8 0 16 7.2 16 16s-7.2 16-16 16h-98.2c-8.6 21.8-23.2 40.4-41.8 53.6 16 5.4 33.2 8.6 51.2 8.6zM394.6 888c47 0 85.2-39 85.2-87.2 0-48-38.2-87.2-85.2-87.2s-85.4 39-85.4 87.2c0 48.2 38.4 87.2 85.4 87.2zM394.6 769.4c17 0 30.8 14 30.8 31.4s-13.8 31.4-30.8 31.4c-17 0-30.8-14-30.8-31.4s13.8-31.4 30.8-31.4z" />
<glyph unicode="&#xe943;" glyph-name="par-12" d="M711 335h-369.2c-48.2 0-85.2-37-85.2-85.2v-56.8c0-17 14.2-28.4 28.4-28.4h28.4v-198.8c0-17 14.2-28.4 28.4-28.4h340.8c14.2 0 28.4 11.4 28.4 28.4v198.8h56.8c14.2 0 28.4 11.4 28.4 28.4v56.8c0 48.2-37 85.2-85.2 85.2zM654.2-5.8h-284v170.4h284c0 0 0-170.4 0-170.4zM739.4 221.4h-426v28.4c0 14.2 14.2 28.4 28.4 28.4h369.2c14.2 0 28.4-14.2 28.4-28.4 0 0 0-28.4 0-28.4zM594.6 951.2c-48.2 8.6-93.8 8.6-142 5.6-241.4-28.2-434.6-230-451.6-471.4-11.4-184.6 73.8-349.4 210.2-448.8 12.6-9.4 30.4-6.8 39.8 5.6 3.6 5 5.6 10.8 5.6 17 0 8.6-5.6 17-11.4 22.8-122.2 90.8-196 241.4-184.6 397.6 14.2 216 187.4 395 400.4 420.6 17 2.8 34 2.8 51.2 2.8 250 0 454.4-204.4 454.4-454.4 0-147.6-71-284-187.4-366.4-8.6-5.6-11.4-14.2-11.4-22.8 0-22.8 25.6-37 45.4-22.8 133.4 96.6 218.6 255.6 210.2 431.6-8.6 241.6-193.2 440.4-428.8 483zM344.6 423c-2.8 22.8-2.8 48.2 5.6 73.8 17 59.6 71 108 133.4 119.2 108 19.8 201.6-62.4 201.6-167.6 0-8.6 0-17-2.8-25.6-2.8-17 11.4-31.2 28.4-31.2 14.2 0 25.6 11.4 28.4 22.8 5.6 34 2.8 68.2-11.4 105-34 93.8-119.2 156.2-218.6 153.4-125-2.8-224.4-102.2-224.4-227.2 0-11.4 0-22.8 2.8-31.2 2.8-14.2 14.2-25.6 28.4-25.6 17.2 3 31.4 17.2 28.6 34.2zM824.6 448.6c0-15.6 12.8-28.4 28.4-28.4s28.4 12.8 28.4 28.4-12.8 28.4-28.4 28.4c-15.6 0-28.4-12.8-28.4-28.4v0zM143 448.6c0-15.6 12.8-28.4 28.4-28.4s28.4 12.8 28.4 28.4c0 0 0 0 0 0 0 15.6-12.8 28.4-28.4 28.4s-28.4-12.8-28.4-28.4c0 0 0 0 0 0z" />
<glyph unicode="&#xe944;" glyph-name="child-7" d="M944.6 903.2h-142.2v28.4c0 14.2-14.2 28.4-28.4 28.4s-28.4-14.2-28.4-28.4v-28.4h-455.2v28.4c0 14.2-14.2 28.4-28.4 28.4s-28.4-14.2-28.4-28.4v-28.4h-142.2c-14.2 0-28.4-14.2-28.4-28.4v-910.2c0-14.2 14.2-28.4 28.4-28.4h853.4c14.2 0 28.4 14.2 28.4 28.4v910c0 14.2-14.4 28.6-28.6 28.6zM119.8 846.2h113.8v-28.4c0-14.2 14.2-28.4 28.4-28.4s28.4 14.2 28.4 28.4v28.4h455.2v-28.4c0-14.2 14.2-28.4 28.4-28.4s28.4 14.2 28.4 28.4v28.4h113.8v-170.6h-796.4v170.6zM916.2-7.2h-796.4v625.8h796.4v-625.8zM432.6 391.2h56.8v-56.8c0-14.2 14.2-28.4 28.4-28.4s28.4 14.2 28.4 28.4v56.8h56.8c14.2 0 28.4 14.2 28.4 28.4s-14.2 28.4-28.4 28.4h-56.8v56.8c0 14.2-14.2 28.4-28.4 28.4s-28.4-14.2-28.4-28.4v-56.8h-56.8c-14.2 0-28.4-14.2-28.4-28.4s14.2-28.4 28.4-28.4zM262 192h512c14.2 0 28.4 14.2 28.4 28.4s-14.2 28.4-28.4 28.4h-512c-14.2 0-28.4-14.2-28.4-28.4s14.2-28.4 28.4-28.4zM262 78.2h512c14.2 0 28.4 14.2 28.4 28.4s-14.2 28.4-28.4 28.4h-512c-14.2 0-28.4-14.2-28.4-28.4s14.2-28.4 28.4-28.4z" />
<glyph unicode="&#xe945;" glyph-name="child-8" d="M772.6 531.6c0 14.2-14.2 28.4-28.4 28.4h-512c-14.2 0-28.4-14.2-28.4-28.4s14.2-28.4 28.4-28.4h512c14.2 0 28.4 14.2 28.4 28.4zM400 389.4h-162.2c-17 0-31.2-11.4-31.2-28.4 0-14.2 14.2-28.4 31.2-28.4h162.2c17 0 31.2 14.2 31.2 28.4 0 17-14.2 28.4-31.2 28.4zM400 218.8h-162.2c-17 0-31.2-11.4-31.2-28.4 0-14.2 14.2-28.4 31.2-28.4h162.2c17 0 31.2 14.2 31.2 28.4 0 17-14.2 28.4-31.2 28.4zM744.2 730.8h-512c-14.2 0-28.4-14.2-28.4-28.4s14.2-28.4 28.4-28.4h512c14.2 0 28.4 14.2 28.4 28.4s-14.2 28.4-28.4 28.4zM488.2-8.8h-398.2v910.2h796.4v-426.6c0-17 11.4-28.4 28.4-28.4s28.4 11.4 28.4 28.4v455c0 14.2-14.2 28.4-28.4 28.4h-853.4c-14.2 0-28.4-14.2-28.4-28.4v-967.2c0-14.2 14.2-28.4 28.4-28.4h426.6c17 0 28.4 11.4 28.4 28.4s-11.2 28.6-28.2 28.6zM772.6 389.4c-125.2 0-227.6-102.4-227.6-227.6s102.4-227.6 227.6-227.6 227.6 102.4 227.6 227.6-102.4 227.6-227.6 227.6zM772.6-8.8c-93.8 0-170.6 76.8-170.6 170.6s76.8 170.6 170.6 170.6 170.6-76.8 170.6-170.6-76.8-170.6-170.6-170.6zM858 190.4h-56.8v56.8c0 14.2-14.2 28.4-28.4 28.4s-28.4-14.2-28.4-28.4v-85.4c0-14.2 14.2-28.4 28.4-28.4h85.2c14.2 0 28.4 14.2 28.4 28.4 0 14.4-14.2 28.6-28.4 28.6z" />
<glyph unicode="&#xe946;" glyph-name="child-9" d="M233.6 360.6c0-14.2 14.2-28.4 28.4-28.4h341.4c14.2 0 28.4 14.2 28.4 28.4s-14.2 28.4-28.4 28.4h-341.4c-14.2 0.2-28.4-14.2-28.4-28.4zM603.4 218.4h-341.4c-14.2 0-28.4-11.4-28.4-28.4 0-14.2 14.2-28.4 28.4-28.4h341.4c14.2 0 28.4 14.2 28.4 28.4 0 17-14.2 28.4-28.4 28.4zM262 502.8h170.6c14.2 0 28.4 14.2 28.4 28.4s-14.2 28.4-28.4 28.4h-170.6c-14.2 0-28.4-14.2-28.4-28.4 0-14 14.2-28.4 28.4-28.4zM944.6 958h-711c-14.2 0-28.4-14.2-28.4-28.4v-142.2h-113.8c-14.2 0-28.4-14.2-28.4-28.4v-796.4c0-14.2 14.2-28.4 28.4-28.4h682.6c17 0 28.4 11.4 28.4 28.4v85.4h142.2c14.2 0 28.4 14.2 28.4 28.4v853.2c0.2 14.2-14.2 28.4-28.4 28.4zM745.6-9.2h-625.8v739.6h625.8v-739.6zM774 787.4h-512v113.8h654.2v-796.4h-113.8v654c0 14.4-14.2 28.6-28.4 28.6z" />
<glyph unicode="&#xe947;" glyph-name="par-9" d="M967.2 913.8h-910.4c-31.2 0-56.8-25.6-56.8-57v-654.2c0-31.2 25.6-56.8 56.8-56.8h341.4v-113.8h-312.8c-14.2 0-28.4-14.2-28.4-28.4s14.2-28.4 28.4-28.4h853.4c14.2 0 28.4 14.2 28.4 28.4s-14.2 28.4-28.4 28.4h-313v113.8h341.4c31.2 0 56.8 25.6 56.8 56.8v654.2c0 31.4-25.6 57-56.8 57zM568.8 32h-113.8v113.8h113.8v-113.8zM967.2 202.6h-910.4v654.2h910.2v-654.2zM256 316.4c14.2 0 28.4 14.2 28.4 28.4v142.2c0 14.2-14.2 28.4-28.4 28.4s-28.4-14.2-28.4-28.4v-142.2c0-14.2 14.2-28.4 28.4-28.4zM426.6 316.4c14.2 0 28.4 14.2 28.4 28.4v256c0 14.2-14.2 28.4-28.4 28.4s-28.4-14.2-28.4-28.4v-256c0-14.2 14.2-28.4 28.4-28.4zM597.4 316.4c14.2 0 28.4 14.2 28.4 28.4v199.2c0 14.2-14.2 28.4-28.4 28.4s-28.4-14.2-28.4-28.4v-199.2c-0.2-14.2 14.2-28.4 28.4-28.4zM768 316.4c14.2 0 28.4 14.2 28.4 28.4v313c0 14.2-14.2 28.4-28.4 28.4s-28.4-14.2-28.4-28.4v-312.8c0-14.4 14.2-28.6 28.4-28.6z" />
<glyph unicode="&#xe948;" glyph-name="par-15" d="M801.2 449.2l203.6 203.6c17.8 17.8 17.8 44.2 0 62l-230.2 230c-17.8 17.8-44.2 17.8-62 0l-203.6-203.6-203.6 203.6c-17.8 17.8-44.2 17.8-62 0l-230.2-230.2c-17.8-17.8-17.8-44.2 0-62l203.6-203.6-203.6-203.6c-17.8-17.8-17.8-44.2 0-62l230.2-230.2c8.8-8.8 20.6-11.8 32.4-11.8s23.6 3 32.4 11.8l203.8 203.8 203.6-203.6c8.8-8.8 20.6-11.8 32.4-11.8s23.6 3 32.4 11.8l230.2 230.2c17.8 17.8 17.8 44.2 0 62 0-0.2-209.4 203.6-209.4 203.6zM742 891.8l209.6-209.6-191.8-191.8-209.6 209.6c0 0 191.8 191.8 191.8 191.8zM275.8 6.4l-209.4 209.6 191.8 191.8 209.6-209.6-192-191.8zM742 6.4l-675.6 675.8 209.4 209.6 675.8-675.8-209.6-209.6zM391 449.2c0-16.2 13.2-29.6 29.6-29.6s29.6 13.2 29.6 29.6-13.2 29.6-29.6 29.6-29.6-13.4-29.6-29.6v0zM479.4 537.6c0-16.2 13.2-29.6 29.4-29.6s29.6 13.2 29.6 29.4c0 0 0 0 0 0 0 16.2-13.2 29.6-29.6 29.6-16.2 0.2-29.4-13-29.4-29.4 0 0 0 0 0 0zM479.4 360.6c0-16.2 13.2-29.6 29.4-29.6s29.6 13.2 29.6 29.4c0 0 0 0 0 0 0 16.2-13.2 29.6-29.6 29.6-16.2 0-29.4-13.2-29.4-29.4 0 0 0 0 0 0zM568 449.2c0-16.2 13.2-29.6 29.6-29.6 16.2 0 29.6 13.2 29.6 29.6s-13.2 29.6-29.6 29.6c-16.4-0.2-29.6-13.4-29.6-29.6v0zM352.6 487.4l118 118c11.8 11.8 11.8 29.6 0 41.4s-29.6 11.8-41.4 0l-118-118c-11.8-11.8-11.8-29.6 0-41.4s29.6-11.8 41.4 0zM547.4 251.4c11.8-11.8 29.6-11.8 41.4 0l118 118c11.8 11.8 11.8 29.6 0 41.4s-29.6 11.8-41.4 0l-118-118c-11.8-12-11.8-29.6 0-41.4z" />
<glyph unicode="&#xe949;" glyph-name="child-10" d="M1015.4 356c-144.6 141.6-292.2 189.8-452 141.6 48.2 159.6 0 307.4-144.6 452-12 12-30.2 12-42.2 0s-12-30.2 0-42.2c141.6-141.6 177.8-280.2 111.4-436.8-156.6-63.4-295.2-30.2-436.8 111.4-12 12-30.2 12-42.2 0s-12-30.2 0-42.2c108.4-108.4 217-159.6 334.4-159.6 39.2 0 78.4 6 117.4 18-48.2-159.6 0-307.4 141.6-452 6-6 15-9 21-9 9 0 15 3 21 9 12 12 12 30.2 0 42.2-141.6 141.6-177.8 280.2-111.4 436.8 156.6 63.2 295.2 30.2 436.8-111.4 6-6 15-9 21-9 9 0 15 3 21 9 15.6 12.2 15.6 30.2 3.6 42.2zM280.2 488.6c6-6 15-9 21-9s15 3 21 9l150.6 150.6c12 12 12 30.2 0 42.2s-30.2 12-42.2 0l-150.6-150.6c-11.8-9-11.8-30.2 0.2-42.2zM180.8 542.8c9 0 15 3 21 9l211 211c12 12 12 30.2 0 42.2s-30.2 12-42.2 0l-211-211c-12-12-12-30.2 0-42.2 6-6 12.2-9 21.2-9zM744.2 413.4c-12 12-30.2 12-42.2 0l-150.6-150.6c-12-12-12-30.2 0-42.2 6-6 15-9 21-9s15 3 21 9l150.6 150.6c12.2 9 12.2 30 0.2 42.2zM822.4 353l-210.8-210.8c-12-12-12-30.2 0-42.2 6-6 15-9 21-9s15 3 21 9l210.8 210.8c12 12 12 30.2 0 42.2-11.8 12.2-29.8 12.2-42 0z" />
<glyph unicode="&#xe94a;" glyph-name="par-4" d="M653.4 301.8h-113.8v113.8c0 14.2-14.2 28.4-28.4 28.4s-28.4-14.2-28.4-28.4v-113.8h-113.8c-14.2 0-28.4-14.2-28.4-28.4s14.2-28.4 28.4-28.4h113.8v-113.8c0-14.2 14.2-28.4 28.4-28.4s28.4 14.2 28.4 28.4v113.8h113.8c14.2 0 28.4 14.2 28.4 28.4 0.2 14.2-14.2 28.4-28.4 28.4zM994.8 728.4h-204.8l-17 145c-2.8 14.2-14.2 25.6-28.4 25.6h-463.8c-14.2 0-25.6-11.4-28.4-25.6l-17-145h-204.8c-14.2 0-28.6-14.2-28.6-28.4v-682.6c0-14.2 14.2-28.4 28.4-28.4h967.2c14.2 0 28.4 14.2 28.4 28.4v682.6c-2.8 14.2-17 28.4-31.2 28.4zM306.4 842.2h412.4l14.2-113.8h-440.8l14.2 113.8zM56.2 671.6h910.2v-113.8h-142.2v28.4c0 14.2-14.2 28.4-28.4 28.4s-28.4-14.2-28.4-28.4v-28.4h-512v28.4c0 14.2-14.2 28.4-28.4 28.4s-28.4-14.2-28.4-28.4v-28.4h-142.4c0 0 0 113.8 0 113.8zM966.4 45.8h-910.2v455h910.2v-455z" />
<glyph unicode="&#xe94b;" glyph-name="child-11" d="M318.8 417.6h-56.8c-14.2 0-28.4-14.2-28.4-28.4s14.2-28.4 28.4-28.4h56.8c14.2 0 28.4 14.2 28.4 28.4 0.2 14.2-14 28.4-28.4 28.4zM318.8 588.2h-56.8c-14.2 0-28.4-14.2-28.4-28.4s14.2-28.4 28.4-28.4h56.8c14.2 0 28.4 14.2 28.4 28.4s-14 28.4-28.4 28.4zM774 417.6h-341.4c-14.2 0-28.4-14.2-28.4-28.4s14.2-28.4 28.4-28.4h341.4c14.2 0 28.4 14.2 28.4 28.4s-14.2 28.4-28.4 28.4zM318.8 246.8h-56.8c-14.2 0-28.4-14.2-28.4-28.4s14.2-28.4 28.4-28.4h56.8c14.2 0 28.4 14.2 28.4 28.4s-14 28.4-28.4 28.4zM774 246.8h-341.4c-14.2 0-28.4-14.2-28.4-28.4s14.2-28.4 28.4-28.4h341.4c14.2 0 28.4 14.2 28.4 28.4s-14.2 28.4-28.4 28.4zM774 588.2h-341.4c-14.2 0-28.4-14.2-28.4-28.4s14.2-28.4 28.4-28.4h341.4c14.2 0 28.4 14.2 28.4 28.4s-14.2 28.4-28.4 28.4zM944.6 844.2h-142.2v85.4c0 14.2-14.2 28.4-28.4 28.4s-28.4-14.2-28.4-28.4v-85.4h-455.2v85.4c0 14.2-14.2 28.4-28.4 28.4s-28.4-14.2-28.4-28.4v-85.4h-142.2c-17 0-28.4-11.4-28.4-28.4v-853.4c0-17 11.4-28.4 28.4-28.4h853.4c17 0 28.4 11.4 28.4 28.4v853.4c0 17-11.4 28.4-28.6 28.4zM916.2-9.2h-796.4v796.6h113.8v-28.4c0-14.2 14.2-28.4 28.4-28.4s28.4 14.2 28.4 28.4v28.4h455.2v-28.4c0-14.2 14.2-28.4 28.4-28.4s28.4 14.2 28.4 28.4v28.4h113.8v-796.6z" />
<glyph unicode="&#xe94c;" glyph-name="par-13" d="M1001.8 415.8h-183.8c-12 105.4-84.4 192.8-180.8 225.8 39.2 33.2 60.2 81.4 60.2 135.6 0 99.4-81.4 180.8-180.8 180.8s-180.8-81.4-180.8-180.8c0-54.2 24-102.4 60.2-135.6-96.4-33.2-168.6-120.4-180.8-225.8h-183.2c-15 0-30.2-15-30.2-30.2 0-15 15-30.2 30.2-30.2h30v-391.6c0-15 15-30.2 30.2-30.2h843.2c15 0 30.2 15 30.2 30.2v391.8h30.2c15 0 30.2 15 30.2 30.2-0.2 15-9.2 30-24.2 30zM399.4 777.2c0 66.2 54.2 120.4 120.4 120.4s120.4-54.2 120.4-120.4-54.2-120.4-120.4-120.4-120.4 54.2-120.4 120.4zM489.8 596.6h60.2c105.4 0 192.8-78.4 207.8-180.8h-475.8c15 102.4 102.4 180.8 207.8 180.8zM911.4-5.8h-783v361.4h783v-361.4zM610.2 144.8h-180.8c-15 0-30.2 15-30.2 30.2 0 15 15 30.2 30.2 30.2h180.8c15 0 30.2-15 30.2-30.2s-15.2-30.2-30.2-30.2zM489.8 84.6v180.8c0 15 15 30.2 30.2 30.2 15 0 30.2-15 30.2-30.2v-180.8c0-15-15-30.2-30.2-30.2s-30.2 15.2-30.2 30.2z" />
<glyph unicode="&#xe94d;" glyph-name="par-10" d="M904.4 267.6c-18 0-30-12-30-30v-240.4h-721.2v240.4c0 18-12 30-30 30s-30-12-30-30v-240.4c0-33 27-60.2 60.2-60.2h721.2c33 0 60.2 27 60.2 60.2v240.4c-0.2 18-12.2 30-30.4 30zM784.2 628.4h-540.8c-15 0-30-15-30-30s15-30 30-30h541c15 0 30 15 30 30 0 14.8-15 30-30.2 30zM513.8 267.6c-15 0-30-15-30-30v-60.2h-60.2c-15 0-30-15-30-30s15-30 30-30h60.2v-60.2c0-15 15-30 30-30s30 15 30 30v60.2h60.2c15 0 30 15 30 30s-15 30-30 30h-60.2v60.2c0 15-15 30-30 30zM1021.6 508.2l-111.2 429.6c-3 12-15 21-30 21h-736.2c-15 0-27-9-30-21l-111.2-429.6c-3-9.2-3-21.2-3-30.2 0-99.2 81.2-180.4 180.4-180.4 75.2 0 138.2 45 165.2 108.2 27-63.2 90.2-108.2 165.2-108.2s138.2 45 165.2 108.2c27-63.2 90.2-108.2 165.2-108.2 99.2 0 180.4 81.2 180.4 180.4 3 9 3 21 0 30.2zM844.4 357.8c-48 0-90.2 27-111.2 72.2-9 21-30 36-54 36s-45-15-54-36c-18-45-63.2-72.2-111.2-72.2s-90.2 27-111.2 72.2c-9 21-30 36-54 36s-45-15-54-36c-18-45-63.2-72.2-111.2-72.2-66.2 0-120.2 54-120.2 120.2v18l104.8 402.8h688.2l105.2-402.8v-18c3-66-51.2-120.2-117.2-120.2z" />
<glyph unicode="&#xe94e;" glyph-name="child-12" d="M995.6 899.2h-967.2c-17 0-28.4-11.4-28.4-28.6v-853.4c0-17 11.4-28.4 28.4-28.4h967.2c17 0 28.4 11.4 28.4 28.4v853.4c0 17.2-11.4 28.6-28.4 28.6zM967.2 842.2v-568.8h-910.4v568.8h910.4zM56.8 45.8v170.6h910.2v-170.6h-910.2zM540.4 159.6h-398.2c-14.2 0-28.4-14.2-28.4-28.4s14.2-28.4 28.4-28.4h398.2c14.2 0 28.4 14.2 28.4 28.4s-14.2 28.4-28.4 28.4zM881.8 159.6h-170.6c-14.2 0-28.4-11.4-28.4-28.4 0-14.2 14.2-28.4 28.4-28.4h170.6c14.2 0 28.4 14.2 28.4 28.4 0 17-14.2 28.4-28.4 28.4zM142.2 500.8h113.8c11.4 0 20 5.6 25.6 17l88.2 176.4 173.6-347c5.6-8.6 14.2-17 25.6-17s20 5.6 25.6 17l116.6 233.2 31.2-62.6c5.6-8.6 14.2-17 25.6-17h113.8c17 0 28.4 11.4 28.4 28.4s-11.4 28.4-28.4 28.4h-96.8l-48.4 96.8c-8.6 20-42.6 20-51.2 0l-116.6-233.2-173.4 347c-8.6 20-42.6 20-51.2 0l-105.2-210.4h-96.8c-17 0-28.4-11.4-28.4-28.4s11.4-28.6 28.4-28.6z" />
<glyph unicode="&#xe94f;" glyph-name="menu-2" horiz-adv-x="1092" d="M68.281 823.054v-203.989c-0.001-0.146-0.002-0.32-0.002-0.493 0-37.652 30.523-68.174 68.174-68.174 0.173 0 0.346 0.001 0.519 0.002h203.962c0.146-0.001 0.319-0.002 0.493-0.002 37.663 0 68.195 30.532 68.195 68.195 0 0.166-0.001 0.331-0.002 0.497v-0.025 203.989c0 0.095 0.001 0.208 0.001 0.321 0 37.734-30.59 68.324-68.324 68.324-0.128 0-0.256 0-0.383-0.001h-203.969c-0.14 0.001-0.306 0.002-0.472 0.002-37.663 0-68.195-30.532-68.195-68.195 0-0.173 0.001-0.346 0.002-0.519v0.027zM-0.043 823.054c-0.001 0.152-0.001 0.333-0.001 0.513 0 75.362 61.093 136.455 136.455 136.455 0.188 0 0.376 0 0.564-0.001h203.96c0.146 0.001 0.319 0.001 0.492 0.001 75.362 0 136.455-61.093 136.455-136.455 0-0.173 0-0.346-0.001-0.519v0.027-203.989c0-0.133 0.001-0.291 0.001-0.449 0-75.374-61.103-136.476-136.476-136.476-0.165 0-0.331 0-0.496 0.001h-203.963c-0.133 0-0.291-0.001-0.449-0.001-75.374 0-136.476 61.103-136.476 136.476 0 0.158 0 0.316 0.001 0.474v-0.025zM68.281 276.913v-203.967c-0.001-0.146-0.002-0.319-0.002-0.493 0-37.663 30.532-68.195 68.195-68.195 0.166 0 0.331 0.001 0.497 0.002h203.964c0.108-0.001 0.236-0.001 0.364-0.001 37.734 0 68.324 30.59 68.324 68.324 0 0.128 0 0.256-0.001 0.384v-0.020 203.967c0.001 0.108 0.001 0.236 0.001 0.364 0 37.734-30.59 68.324-68.324 68.324-0.128 0-0.256 0-0.384-0.001h-203.969c-0.14 0.001-0.306 0.002-0.472 0.002-37.663 0-68.195-30.532-68.195-68.195 0-0.173 0.001-0.346 0.002-0.519v0.027zM-0.043 276.913c-0.001 0.146-0.001 0.319-0.001 0.492 0 75.362 61.093 136.455 136.455 136.455 0.188 0 0.376 0 0.564-0.001h203.96c0.146 0.001 0.319 0.001 0.492 0.001 75.362 0 136.455-61.093 136.455-136.455 0-0.173 0-0.346-0.001-0.519v0.027-203.967c0.001-0.14 0.001-0.305 0.001-0.471 0-75.374-61.103-136.476-136.476-136.476-0.165 0-0.331 0-0.496 0.001h-203.963c-0.133 0-0.291-0.001-0.449-0.001-75.374 0-136.476 61.103-136.476 136.476 0 0.165 0 0.331 0.001 0.496v-0.026zM614.4 891.74h477.86v-68.26h-477.86v68.26zM614.4 618.66h477.86v-68.26h-477.86v68.26zM614.4 345.6h477.86v-68.26h-477.86v68.26zM614.4 72.519h477.86v-68.26h-477.86v68.26z" />
<glyph unicode="&#xe950;" glyph-name="child-14" d="M180.8 355.6h241v-241c0-18 15-30.2 30.2-30.2s30.2 12 30.2 30.2v241h241c15 0 30.2 12 30.2 30.2s-15 30.2-30.2 30.2h-241.4v240.8c0 18-15 30.2-30.2 30.2s-30.2-12-30.2-30.2v-241h-240.6c-15 0-30.2-12-30.2-30.2s15-30 30.2-30zM993.8 958h-783c-15 0-30.2-12-30.2-30.2s15-30.2 30.2-30.2h753v-753c0-18 15-30.2 30.2-30.2 15 0 30.2 12 30.2 30.2v783.2c-0.2 18.2-15.2 30.2-30.4 30.2zM873.4 837.6h-843.2c-15.2 0-30.2-12.2-30.2-30.2v-843.2c0-18 15-30.2 30.2-30.2h843.2c15 0 30.2 12 30.2 30.2v843.2c0 18-15.2 30.2-30.2 30.2zM843.2 777.2v-783h-783v783c0 0 783 0 783 0z" />
<glyph unicode="&#xe951;" glyph-name="menu-3" horiz-adv-x="1026" d="M512.882 886.688c0.121 0.002 0.263 0.004 0.405 0.004 1.561 0 3.082-0.169 4.546-0.491l-0.14 0.026 389.212-196.46-389.212-196.46c-1.294-0.297-2.779-0.467-4.304-0.467-0.178 0-0.356 0.002-0.533 0.007l0.026-0.001c-0.145-0.004-0.316-0.006-0.488-0.006-1.532 0-3.024 0.17-4.459 0.492l0.135-0.026-389.312 196.46 389.212 196.46c1.465 0.205 3.168 0.328 4.897 0.341h0.015zM512.882 959.779c-13.271 0-26.462-2.526-36.526-7.558l-445.685-224.787c-40.896-20.588-40.896-54.448 0-75.036l445.685-225.007c10.023-5.032 23.255-7.538 36.526-7.538s26.462 2.506 36.546 7.538l445.685 225.007c40.876 20.588 40.876 54.448 0 75.036l-445.685 225.007c-10.023 5.032-23.375 7.558-36.546 7.558zM982.964 582.174c-0.036 0-0.078 0-0.121 0-7.799 0-15.133-1.99-21.523-5.49l0.234 0.117-469.741-252.131c-20.268-10.865-27.264-35.102-15.456-53.866 7.899-12.59 22.332-19.606 37.107-19.606 0.036 0 0.078 0 0.121 0 7.799 0 15.133 1.99 21.523 5.49l-0.234-0.117 469.741 252.151c20.268 10.886 27.264 35.122 15.456 53.886-7.975 11.866-21.349 19.57-36.521 19.57-0.206 0-0.412-0.001-0.617-0.004h0.031zM42.921 582.174c-0.193 0.003-0.421 0.005-0.65 0.005-15.154 0-28.508-7.706-36.358-19.413l-0.1-0.158c-11.808-18.764-4.932-43.001 15.456-53.886l470.202-252.331c6.138-3.383 13.453-5.373 21.234-5.373 0.062 0 0.124 0 0.186 0h-0.010c0.19-0.003 0.413-0.005 0.638-0.005 15.163 0 28.527 7.705 36.39 19.413l0.1 0.157c11.788 18.744 4.912 43.001-15.476 53.866l-470.182 252.351c-6.162 3.383-13.504 5.373-21.309 5.373-0.042 0-0.085 0-0.127 0h0.007zM982.964 424.665c-0.040 0-0.087 0-0.134 0-7.797 0-15.127-1.998-21.507-5.509l0.231 0.117-469.741-252.111c-20.268-10.865-27.264-35.102-15.456-53.866 7.899-12.59 22.332-19.566 37.107-19.566 0.036 0 0.078 0 0.121 0 7.799 0 15.133 1.99 21.523 5.49l-0.234-0.117 469.741 252.111c20.268 10.865 27.264 35.122 15.456 53.886-8.028 11.869-21.439 19.568-36.649 19.568-0.161 0-0.322-0.001-0.483-0.003h0.025zM42.921 424.665c-0.187 0.003-0.407 0.005-0.628 0.005-15.16 0-28.521-7.705-36.379-19.413l-0.1-0.157c-11.808-18.764-4.932-43.021 15.456-53.886l470.202-252.371c6.138-3.383 13.453-5.373 21.234-5.373 0.062 0 0.124 0 0.186 0h-0.010c0.19-0.003 0.415-0.005 0.64-0.005 15.158 0 28.519 7.696 36.388 19.394l0.099 0.157c11.788 18.764 4.912 43.021-15.476 53.886l-470.182 252.371c-6.155 3.395-13.492 5.393-21.296 5.393-0.047 0-0.094 0-0.141 0h0.007zM982.964 267.136c-0.052 0-0.114 0-0.176 0-7.78 0-15.096-1.99-21.465-5.489l0.232 0.117-469.741-252.111c-20.268-10.865-27.264-35.122-15.456-53.866 7.899-12.59 22.332-19.566 37.107-19.566 0.052 0 0.114 0 0.176 0 7.78 0 15.096 1.99 21.465 5.489l-0.232-0.117 469.741 252.111c20.268 10.865 27.264 35.122 15.456 53.886-7.981 11.855-21.351 19.55-36.519 19.55-0.207 0-0.413-0.001-0.62-0.004h0.031zM42.921 267.136c-0.194 0.003-0.423 0.005-0.652 0.005-15.149 0-28.5-7.697-36.355-19.393l-0.099-0.157c-11.808-18.764-4.932-43.021 15.456-53.886l470.202-252.331c6.149-3.395 13.479-5.393 21.276-5.393 0.047 0 0.095 0 0.142 0h-0.007c0.19-0.003 0.413-0.005 0.638-0.005 15.163 0 28.527 7.705 36.39 19.413l0.1 0.157c11.788 18.764 4.912 43.021-15.476 53.886l-470.182 252.331c-6.144 3.383-13.467 5.373-21.254 5.373-0.062 0-0.124 0-0.186 0h0.010z" />
<glyph unicode="&#xe952;" glyph-name="par-5" d="M398.2 329.2c-14.2 0-28.4-14.2-28.4-28.4s14.2-28.4 28.4-28.4h85.4v-85.4c0-14.2 14.2-28.4 28.4-28.4s28.4 14.2 28.4 28.4v85.4h85.4c14.2 0 28.4 14.2 28.4 28.4s-14.2 28.4-28.4 28.4h-85.4v85.4c0 14.2-14.2 28.4-28.4 28.4s-28.4-14.2-28.4-28.4v-85.4c0 0-85.4 0-85.4 0zM995.6 613.6h-28.4v116.6c0 28.4-25.6 54-56.8 54h-56.8v57c0 31.2-25.6 56.8-56.8 56.8h-683c-31.2 0-56.8-25.6-56.8-56.8v-170.6h-28.6c-17-0.2-28.4-11.6-28.4-28.6v-625.8c0-17 11.4-28.4 28.4-28.4h967.2c17 0 28.4 11.4 28.4 28.4v569c0 17-11.4 28.4-28.4 28.4zM910.2 613.6h-440.8c-8.6 0-17 2.8-25.6 5.6l-91 45.6c-8.6 2.8-17 5.6-25.6 5.6h-99.6v56.8h682.6c0 0.2 0-113.6 0-113.6zM113.8 841.2h682.6v-56.8h-568.8c-31.2 0-56.8-22.8-56.8-54v-59.8h-57c0-0.2 0 170.6 0 170.6zM967.2 44.6h-910.4v569h270.2l91-45.6c17-8.6 34.2-11.4 51.2-11.4h497.8c0.2 0 0.2-512 0.2-512z" />
<glyph unicode="&#xe953;" glyph-name="child-15" d="M574.8 817.8h-28.4v28.4c0 14.2-14.2 28.4-28.4 28.4s-28.4-14.2-28.4-28.4v-28.4h-28.4c-14.2 0-28.4-14.2-28.4-28.4s14.2-28.4 28.4-28.4h28.4v-28.4c0-14.2 14.2-28.4 28.4-28.4s28.4 14.2 28.4 28.4v28.2h28.4c14.2 0 28.4 14.2 28.4 28.4 0.2 14.4-14 28.6-28.4 28.6zM711.4 354.2c56.8 51.2 91 125.2 91 207.6v324.2c0 11.4-5.6 22.8-17 25.6-37 14.2-136.6 48.4-267.4 48.4s-227.6-34.2-267.4-48.4c-11.4-5.6-17-14.2-17-25.6v-312.8c0-85.4 37-162.2 93.8-219-150.8-34.2-264.6-170.8-264.6-332.8 0-48.4 37-85.4 85.4-85.4h739.6c48.4 0 85.4 37 85.4 85.4 0 162-111 295.8-261.8 332.8zM518 24.2l-96.8 76.8-96.6 71 37 91 162.2-236-5.8-2.8zM404.2 303c28.4-14.2 59.8-22.8 93.8-22.8h20c39.8 0 79.6 8.6 113.8 25.6l-111-167.8c0 0-116.6 165-116.6 165zM555 84l119.4 179.2 37-88.2-96.8-74-45.4-37c0 0-14.2 20-14.2 20zM290.4 576c54 20 130.8 42.6 227.6 42.6 28.4 0 54-2.8 82.4-5.6 14.2-2.8 31.2 8.6 31.2 25.6 2.8 14.2-8.6 31.2-25.6 31.2-28.4 2.8-59.8 5.6-88.2 5.6-96.8 0-179.2-22.8-227.6-39.8v230.6c42.6 14.2 122.4 37 227.6 37s184.8-22.8 227.6-37v-230.4c-8.6 2.8-20 5.6-31.2 11.4-14.2 5.6-31.2-2.8-34.2-20-5.6-14.2 2.8-31.2 20-34.2 17-5.6 34.2-11.4 48.4-17v-14.2c0-125.2-102.4-227.6-227.6-227.6h-14.2c-119.4 8.6-213.4 111-213.4 236v5.8h-2.8zM119.8 21.4c0 125.2 79.6 230.4 190.6 267.4l-37-93.8c-8.6-22.8-2.8-51.2 20-65.4l96.8-71.2 79.6-62.6h-321.6c-17-3-28.4 8.4-28.4 25.6zM887.8-7.2h-270.2l-17 25.6 48.4 37 96.8 71.2c20 14.2 28.4 42.6 20 65.4l-37 93.8c111-39.8 190.6-145 190.6-267.4-3.2-14.2-14.6-25.6-31.6-25.6z" />
<glyph unicode="&#xe954;" glyph-name="par-8" d="M944.6 958h-853.2c-14.2 0-28.4-14.2-28.4-28.4v-967.2c0-14.2 14.2-28.4 28.4-28.4h853.4c14.2 0 28.4 14.2 28.4 28.4v967.2c0 14.2-14.4 28.4-28.6 28.4zM745.6 901.2v-170.6l-22.8 17-34.2 25.6-34.2-25.6-22.8-17v170.6c0.2 0 114 0 114 0zM119.8-9.2v910.4h113.8v-910.2h-113.8zM916.2-9.2h-625.8v910.4h284.4v-227.6c0-17 14.2-28.4 28.4-28.4 5.6 0 11.4 2.8 17 5.6l68.2 51.2 68.2-51.2c5.6-2.8 11.4-5.6 17-5.6 14.2 0 28.4 11.4 28.4 28.4v227.6h113.8c0.4 0 0.4-910.4 0.4-910.4zM432.6 389.2h56.8v-56.8c0-14.2 14.2-28.4 28.4-28.4s28.4 14.2 28.4 28.4v56.8h56.8c14.2 0 28.4 14.2 28.4 28.4s-14.2 28.4-28.4 28.4h-56.8v56.8c0 14.2-14.2 28.4-28.4 28.4s-28.4-14.2-28.4-28.4v-56.8h-56.8c-14.2 0-28.4-14.2-28.4-28.4s11.4-28.4 28.4-28.4zM802.4 246.8h-369.8c-14.2 0-28.4-14.2-28.4-28.4s14.2-28.4 28.4-28.4h369.8c14.2 0 28.4 14.2 28.4 28.4s-14.2 28.4-28.4 28.4zM802.4 133.2h-369.8c-14.2 0-28.4-14.2-28.4-28.4s14.2-28.4 28.4-28.4h369.8c14.2 0 28.4 14.2 28.4 28.4 0 14-14.2 28.4-28.4 28.4z" />
<glyph unicode="&#xe955;" glyph-name="par-6" d="M654.2 586.2h-284.4c-14.2 0-28.4-14.2-28.4-28.4s14.2-28.4 28.4-28.4h284.4c14.2 0 28.4 14.2 28.4 28.4s-14.2 28.4-28.4 28.4zM654.2 444h-284.4c-14.2 0-28.4-14.2-28.4-28.4s14.2-28.4 28.4-28.4h284.4c14.2 0 28.4 14.2 28.4 28.4s-14.2 28.4-28.4 28.4zM654.2 301.8h-284.4c-14.2 0-28.4-14.2-28.4-28.4s14.2-28.4 28.4-28.4h284.4c14.2 0 28.4 14.2 28.4 28.4s-14.2 28.4-28.4 28.4zM995.6 45.8h-28.4v512c0 14.2-14.2 28.4-28.4 28.4h-142.2v85.4c0 31.2-25.6 56.8-56.8 56.8h-199.2v57h28.4c14.2 0 28.4 14.2 28.4 28.4 0 17-14.2 28.4-28.4 28.4h-28.4v28.4c0 14.2-14.2 28.4-28.4 28.4s-28.4-14.2-28.4-28.4v-28.4h-28.4c-14.2 0-28.4-11.4-28.4-28.4 0-14.2 14.2-28.4 28.4-28.4h28.4v-56.8h-199.2c-31.2 0-56.8-25.6-56.8-56.8v-199.2h-142.4c-14.2 0-28.4-14.2-28.4-28.4v-398.2h-28.6c-14.2 0-28.4-14.2-28.4-28.4s14.2-28.4 28.4-28.4h967.2c14.2 0 28.4 14.2 28.4 28.4s-14.2 28.2-28.4 28.2zM113.8 415.6h113.8v-369.8h-113.8v369.8zM568.8 45.8h-113.8v56.8h113.8v-56.8zM625.8 45.8v85.4c0 14.2-14.2 28.4-28.4 28.4h-170.6c-14.2 0-28.4-14.2-28.4-28.4v-85.4h-113.8v625.8h455.2v-625.8h-114zM796.4 45.8v483.6h113.8v-483.6h-113.8z" />
<glyph unicode="&#xe956;" glyph-name="pre" horiz-adv-x="1431" d="M714.917 959.383c-510.655 0-714.917-510.646-714.917-510.646s204.262-510.666 714.917-510.666 714.92 510.666 714.92 510.666-204.262 510.646-714.92 510.646zM714.917 142.34c-169.215 0.002-306.39 137.178-306.39 306.393s137.177 306.393 306.393 306.393c169.215 0 306.391-137.175 306.393-306.39v0c-0.002-169.217-137.179-306.394-306.396-306.396v0zM868.12 448.736c0-0.005 0-0.011 0-0.017 0-84.612-68.592-153.203-153.203-153.203s-153.203 68.592-153.203 153.203c0 84.612 68.592 153.203 153.203 153.203v0c84.597-0.022 153.172-68.591 153.203-153.184v-0.003z" />
<glyph unicode="&#xe957;" glyph-name="save-as" d="M831.186 960h-582.79c-40.44-0.032-73.217-32.801-73.26-73.236v-102.302h-101.942c-40.398-0.049-73.135-32.776-73.2-73.166v-702.118c0.063-40.398 32.801-73.128 73.195-73.178h702.349c40.422 0.024 73.189 32.762 73.26 73.171v102.309h101.948c40.438 0.034 73.212 32.803 73.254 73.236v582.584zM678.912 901.296v-204.61h-204.66v204.61zM790.014-5.29l-731.296-0.064-0.064 731.17h116.546v-541.096c0.043-40.439 32.82-73.208 73.257-73.24h541.621v-116.77zM848.734 170.184h-614.878v731.112h181.674v-211.78c0.030-28.419 23.064-51.448 51.482-51.47h219.072c28.415 0.033 51.441 23.056 51.48 51.466v211.784h69.352l158.36-158.32 0.064-572.856h-116.606z" />
<glyph unicode="&#xe958;" glyph-name="back" d="M511.998-64c-282.75 0-512 229.244-512 512s229.248 512 512 512 512-229.25 512-512-229.246-512-512-512zM511.998 874.688c-235.648 0-426.69-191.048-426.69-426.688s191.040-426.692 426.688-426.692 426.688 191.040 426.688 426.692-191.038 426.688-426.686 426.688zM593.922 163.776l-280.836 284.224 280.836 284.286 60.222-61-220.668-223.286 220.668-223.36z" />
<glyph unicode="&#xe959;" glyph-name="export" horiz-adv-x="1104" d="M1102.865 651.67c0-34.184-27.619-43.953-336.973-273.59-43.953-32.66-45.947 0-45.947 0v152.024c-271.176 3.677-339.391-124.978-428.868-288.817-27.623 259.937 62.382 534.523 428.817 532.004v167.199c-0.263-0.265 9.343 35.345 40.486 9.979 317.069-258.939 343.54-274.853 342.486-298.798zM367.061 727.548h-130.284c-77.508 0-98.723-24.205-98.723-97.984v-457.276c0-83.191 29.669-97.993 98.723-97.993h460.809c76.458 0 98.775 22.162 98.775 97.993v68.421c0 19.793 22.793 61.389 69.055 61.389 47.63 0 68.947-41.811 68.947-61.546v-195.085c0-59.494-49.048-108.176-109.017-108.176h-716.33c-0.032 0-0.070 0-0.108 0-59.892 0-108.492 48.343-108.908 108.137v710.891c0 59.505 49.048 108.191 109.017 108.191h258.568c30.819 0 61.285-30.774 61.285-60.809 0-65.326-32.141-76.148-61.809-76.148z" />
<glyph unicode="&#xe95a;" glyph-name="save" d="M1021.234 685.507c-2.076 2.072-5.532 5.528-6.224 10.368l-257.203 257.209c-1.384 1.384-7.6 6.916-12.448 6.916h-708.717c-22.122 0-36.634-14.52-36.634-36.644v-950.712c0-22.122 14.52-36.642 36.642-36.642h950.706c22.124 0 36.642 14.52 36.642 36.642v708.713c-0.606 1.641-1.551 3.033-2.757 4.148l-0.007 0.006zM331.885 880.484c-0.008 0.12-0.012 0.259-0.012 0.4 0 3.606 2.924 6.53 6.53 6.53 0.138 0 0.275-0.004 0.411-0.013l-0.019 0.001h345.715c0.117 0.007 0.254 0.012 0.392 0.012 3.61 0 6.536-2.926 6.536-6.536 0-0.139-0.004-0.276-0.013-0.412l0.001 0.019v-172.854c0.007-0.116 0.012-0.252 0.012-0.389 0-3.612-2.928-6.54-6.54-6.54-0.136 0-0.272 0.004-0.406 0.012l0.018-0.001h-345.715c-0.116-0.007-0.251-0.012-0.388-0.012-3.609 0-6.534 2.925-6.534 6.534 0 0.139 0.004 0.277 0.013 0.414l-0.001-0.019zM691.427 16.204c0.007-0.117 0.012-0.253 0.012-0.39 0-3.609-2.925-6.534-6.534-6.534-0.138 0-0.276 0.004-0.412 0.013l0.019-0.001h-345.715c-0.118-0.008-0.255-0.012-0.394-0.012-3.605 0-6.528 2.923-6.528 6.528 0 0.139 0.004 0.278 0.013 0.415l-0.001-0.019v259.287c-0.008 0.118-0.012 0.256-0.012 0.396 0 3.608 2.924 6.532 6.532 6.532 0.137 0 0.273-0.004 0.409-0.013l-0.019 0.001h345.715c0.117 0.007 0.254 0.012 0.392 0.012 3.61 0 6.536-2.926 6.536-6.536 0-0.138-0.004-0.275-0.013-0.41l0.001 0.019zM950.706 16.204c0.008-0.118 0.012-0.257 0.012-0.396 0-3.605-2.923-6.528-6.528-6.528-0.139 0-0.276 0.004-0.413 0.013l0.019-0.001h-172.86c-0.118-0.008-0.255-0.012-0.394-0.012-3.606 0-6.53 2.924-6.53 6.53 0 0.139 0.004 0.276 0.013 0.413l-0.001-0.019v302.845c0 22.124-14.518 36.642-36.648 36.642h-432.141c-22.122 0-36.642-14.518-36.642-36.642v-302.845c0.007-0.117 0.012-0.254 0.012-0.392 0-3.608-2.924-6.532-6.532-6.532-0.139 0-0.277 0.004-0.415 0.013l0.019-0.001h-172.854c-0.118-0.008-0.257-0.012-0.396-0.012-3.608 0-6.532 2.924-6.532 6.532 0 0.138 0.004 0.275 0.013 0.411l-0.001-0.019v864.28c-0.008 0.118-0.012 0.257-0.012 0.396 0 3.609 2.925 6.534 6.534 6.534 0.139 0 0.276-0.004 0.413-0.013l-0.019 0.001h172.854c0.118 0.008 0.255 0.012 0.394 0.012 3.609 0 6.534-2.925 6.534-6.534 0-0.139-0.004-0.278-0.013-0.415l0.001 0.019v-216.414c0-22.122 14.52-36.648 36.642-36.648h432.141c22.13 0 36.648 14.526 36.648 36.648v155.572c-0.012 0.143-0.019 0.308-0.019 0.476 0 2.668 1.727 4.932 4.124 5.736l0.043 0.012c0.654 0.444 1.46 0.709 2.329 0.709 0.153 0 0.305-0.008 0.454-0.024l-0.018 0.002c0.056 0.002 0.122 0.003 0.188 0.003 1.844 0 3.502-0.799 4.647-2.069l0.005-0.006 172.86-172.852c1.275-1.157 2.072-2.82 2.072-4.67 0-0.060-0.001-0.119-0.002-0.179v0.009z" />
<glyph unicode="&#xe95b;" glyph-name="kpi" horiz-adv-x="1025" d="M512.189 960c0.912 0.006 1.992 0.009 3.072 0.009 71.078 0 138.678-14.892 199.85-41.725l-3.199 1.251c123.355-53.17 219.722-149.406 271.777-269.333l1.287-3.33c25.6-58.852 40.493-127.409 40.493-199.443s-14.893-140.591-41.769-202.758l1.276 3.315c-27.414-63.245-64.492-117.262-109.998-162.864l0.009 0.009c-45.599-45.371-99.716-82.231-159.736-107.964l-3.339-1.273c-57.992-25.227-125.547-39.904-196.529-39.904-1.125 0-2.249 0.004-3.372 0.011l0.173-0.001c-0.883-0.006-1.926-0.009-2.971-0.009-62.824 0-122.931 11.632-178.286 32.859l3.412-1.15c-58.109 22.141-108.272 51.672-152.484 88.157l0.911-0.73 124.77 265.578q22.981-37.163 42.682-68.846 16.399-27.329 32.831-51.91t22.986-33.363q12.033-15.268 22.432-28.415c6.991-8.613 17.247-14.34 28.855-15.286l0.148-0.010q22.986-3.274 32.831 8.194c7.43 8.856 14.639 18.662 21.207 28.917l0.682 1.138c4.157 6.407 8.354 13.929 12.067 21.726l0.526 1.226q9.296 18.576 22.432 45.899t29.551 60.652q16.399 33.334 32.831 68.303 38.299 80.862 85.386 180.322l116.011-62.298-47.064 337.697-297.679-182.51 130.233-44.808-137.901-283.028q-31.728 51.356-54.72 89.615-9.845 16.399-19.152 31.14t-15.861 25.684l-9.856 16.399q4.388-8.736 0.565-2.731t-12.582 16.964c-6.441 7.954-12.886 15.080-19.692 21.841l-0.014 0.014c-5.106 6.053-12.434 10.093-20.711 10.854l-0.121 0.009q-25.163 0-36.111-12.57c-7.168-8.248-13.080-17.833-17.289-28.287l-0.241-0.677q-2.188-4.371-10.942-23.495t-22.986-47.539-30.643-63.383l-34.997-67.732q-16.399-34.963-31.734-66.663t-26.266-53.55c-29.171 39.805-53.145 85.82-69.58 135.275l-1.013 3.519c-15.619 46.639-24.631 100.343-24.631 156.151 0 0.814 0.002 1.628 0.006 2.441v-0.125c-0.006 0.944-0.010 2.060-0.010 3.177 0 70.896 14.696 138.36 41.208 199.511l-1.254-3.247c27.076 63.287 64.002 117.331 109.454 162.862l-0.007-0.007c45.666 45.416 99.747 82.426 159.691 108.479l3.362 1.301c57.961 25.565 125.544 40.446 196.604 40.446 1.101 0 2.2-0.004 3.299-0.011l-0.168 0.001z" />
<glyph unicode="&#xe95c;" glyph-name="wd-kpi" d="M987.408 9.232h-914.224v914.176c0 20.209-16.383 36.592-36.592 36.592s-36.592-16.383-36.592-36.592v-950.848c0-0.005 0-0.010 0-0.016 0-20.2 16.376-36.576 36.576-36.576 0.006 0 0.011 0 0.017 0h950.815c19.895 0.429 35.859 16.658 35.859 36.616s-15.964 36.187-35.819 36.615l-0.040 0.001zM293.936 249.568c-34.383 0-62.256-27.873-62.256-62.256s27.873-62.256 62.256-62.256c34.383 0 62.256 27.873 62.256 62.256v0c0.001 0.133 0.002 0.29 0.002 0.447 0 10.157-2.535 19.723-7.006 28.098l0.157-0.321 107.952 176.16 53.792-15.728 144.8-106.224c5.368-3.987 12.125-6.382 19.441-6.382 1.608 0 3.189 0.116 4.735 0.339l-0.176-0.021 86.992 13.424 3.664-4.128c11.095-10.297 26.008-16.615 42.397-16.615 34.463 0 62.4 27.937 62.4 62.4 0 16.417-6.34 31.353-16.704 42.493l0.035-0.038c-11.284 11.243-26.85 18.193-44.040 18.193-25.692 0-47.757-15.527-57.324-37.708l-0.155-0.405-73.808-11.2-138.48 101.408c-2.857 2.156-6.227 3.811-9.883 4.757l-0.197 0.043-42.4 12.496 43.072 70.256 121.328-83.12c5.131-3.587 11.5-5.732 18.37-5.732 11.041 0 20.789 5.54 26.615 13.991l0.071 0.109c0.736 1.312 1.36 2.24 1.936 3.2l112.704 198.592c34.048 0.545 61.44 28.274 61.44 62.4 0 34.467-27.941 62.408-62.408 62.408-0.34 0-0.68-0.003-1.019-0.008l0.051 0.001c-34.371-0.054-62.222-27.889-62.304-62.248v-0.008c0.013-11.183 2.917-21.685 8.005-30.802l-0.165 0.322-95.872-168.784-120.24 82.48-1.344 0.624c-4.828 2.98-10.68 4.745-16.944 4.745-11.599 0-21.784-6.053-27.569-15.172l-0.079-0.133-70.208-114.528-73.76 21.488c-7.423 26.708-31.525 45.984-60.129 45.984-34.41 0-62.304-27.894-62.304-62.304s27.894-62.304 62.304-62.304c0.006 0 0.012 0 0.018 0h-0.001c0.073 0 0.16 0 0.246 0 16.151 0 30.849 6.224 41.825 16.405l-0.039-0.036 56.72-16.368-98.592-160.736z" />
<glyph unicode="&#xe95f;" glyph-name="detail" d="M580.239 238.080c-14.247 0-24.299 2.258-29.995 6.903-5.848 4.516-8.692 13.044-8.692 25.496 0.313 8.001 1.279 15.576 2.849 22.928l-0.157-0.875c1.801 9.742 3.9 18.446 6 26.094l27.449 94.494c2.671 8.301 4.633 17.992 5.507 27.995l0.036 0.51c1.050 10.493 1.501 17.695 1.501 21.742 0.019 0.571 0.030 1.241 0.030 1.915 0 18.671-8.359 35.39-21.54 46.618l-0.086 0.071c-14.393 12.418-34.792 18.627-61.491 18.627-16.784-0.209-32.846-2.993-47.907-7.975l1.12 0.321c-16.651-5.080-33.867-11.097-51.889-18.294l-7.338-29.25c5.396 1.947 11.695 4.047 19.191 6.147 6.576 1.972 14.149 3.169 21.98 3.301l0.072 0.001c14.546 0 24.271-2.258 29.543-7.202 5.080-4.803 7.648-13.197 7.648-25.349-0.058-7.891-0.929-15.546-2.533-22.928l0.134 0.734c-1.801-8.704-3.9-17.255-6.152-25.801l-27.59-94.951c-2.258-8.845-4.047-17.842-5.402-26.845-1.027-6.968-1.625-15.028-1.648-23.224v-0.025c-0.009-0.392-0.014-0.854-0.014-1.317 0-18.88 8.607-35.75 22.111-46.9l0.103-0.083c14.845-12.598 35.56-18.898 62.383-18.898 0.715-0.013 1.558-0.020 2.403-0.020 15.466 0 30.366 2.42 44.344 6.903l-1.027-0.284c13.197 4.516 30.745 10.95 52.793 19.355l7.338 29.244c-5.099-2.147-11.256-4.154-17.602-5.676l-0.85-0.172c-6.739-1.91-14.51-3.102-22.528-3.3l-0.117-0.002zM609.189 686.56c-11.687 10.887-27.416 17.569-44.705 17.569-0.575 0-1.149-0.007-1.72-0.022l0.084 0.002c-0.313 0.005-0.683 0.008-1.054 0.008-17.522 0-33.486-6.668-45.494-17.605l0.054 0.048c-11.963-10.179-19.502-25.247-19.502-42.076 0-0.077 0-0.153 0-0.23v0.012c-0.001-0.099-0.001-0.216-0.001-0.334 0-16.75 7.544-31.739 19.421-41.752l0.082-0.067c12.34-10.809 28.608-17.402 46.417-17.402s34.077 6.593 46.499 17.472l-0.081-0.070c11.779 10.117 19.193 25.027 19.193 41.67 0 0.17-0.001 0.34-0.002 0.509v-0.026c0.001 0.109 0.001 0.237 0.001 0.366 0 16.722-7.409 31.713-19.123 41.87l-0.069 0.058zM512.003 960c-282.771 0-512.003-229.231-512.003-512.003s229.231-512.003 512.003-512.003c282.771 0 512.003 229.231 512.003 512.003 0 0.018 0 0.036 0 0.054v-0.003c0 0.010 0 0.022 0 0.034 0 282.725-229.194 511.918-511.918 511.918-0.030 0-0.060 0-0.090 0h0.005zM512.003-17.507c-0.022 0-0.048 0-0.073 0-257.050 0-465.43 208.38-465.43 465.43s208.38 465.43 465.43 465.43c257.050 0 465.43-208.38 465.43-465.43v0c0-0.025 0-0.055 0-0.085 0-257.003-208.342-465.346-465.346-465.346-0.004 0-0.008 0-0.012 0h0.001z" />
<glyph unicode="&#xe960;" glyph-name="org" d="M204.798 288.005h273.056v-64.019h-273.056v64.019zM375.469 704.001v95.956h-68.298v-95.956h-102.368v-64.008h102.402v-95.99h68.298v95.984h102.39v64.008zM204.798 447.997h273.056v-63.986h-273.056v63.986zM785.076 287.994h68.258v-64.008h-68.258v64.008zM924.471 607.995h-241.797v250.665c0 65.775-31.27 101.341-102.379 101.341h-475.054c-72.023 0-105.224-37.338-105.224-96.001v-928.005h1024.006v578.686c0 63.094-32.23 93.32-99.551 93.32zM614.416 607.995v-608.009h-136.539v127.999h-273.073v-127.999h-136.539v831.993c0 34.674 25.603 64.002 68.298 64.002h409.595c36.988 0 68.264-29.351 68.264-64.002v-224zM955.736-0.014h-102.385v127.999h-68.298v-127.999h-102.419v543.996h204.803c34.155 0 68.258-29.323 68.258-63.98v-480.016zM785.076 447.98h68.258v-63.986h-68.258v63.986z" />
<glyph unicode="&#xe961;" glyph-name="warn" horiz-adv-x="1051" d="M525.701 268.601c25.364 0.033 45.916 20.587 45.946 45.949v340.193c0.002 0.153 0.003 0.335 0.003 0.516 0 25.375-20.571 45.946-45.946 45.946s-45.946-20.571-45.946-45.946c0-0.181 0.001-0.363 0.003-0.543v0.027-340.19c0.030-25.363 20.579-45.916 45.937-45.952h0.003zM525.701 209.145c-0.001 0-0.001 0-0.002 0-35.812 0-64.844-29.031-64.844-64.844s29.031-64.844 64.844-64.844c35.812 0 64.844 29.031 64.844 64.844 0 17.907-7.259 34.119-18.994 45.853v0c-11.762 11.687-27.953 18.929-45.836 18.99h-0.012zM959.492-62.366h-867.704c-34.688 0.435-64.587 20.507-79.133 49.593l-0.235 0.518c-7.824 14.521-12.422 31.779-12.422 50.111s4.598 35.59 12.703 50.684l-0.281-0.573 433.838 821.689c14.474 29.878 44.567 50.117 79.388 50.117s64.913-20.238 79.159-49.594l0.229-0.523 433.844-821.677c7.825-14.521 12.423-31.779 12.423-50.111s-4.598-35.59-12.704-50.684l0.281 0.573c-14.778-29.608-44.678-49.683-79.309-50.117l-0.058-0.001zM525.655 882.51c-7.977-0.020-14.868-4.651-18.15-11.368l-0.053-0.12-433.844-821.66c-1.81-3.326-2.873-7.284-2.873-11.491s1.064-8.165 2.937-11.62l-0.064 0.129c3.388-6.792 10.246-11.398 18.189-11.499h867.695c7.955 0.101 14.811 4.707 18.143 11.381l0.054 0.119c1.814 3.325 2.88 7.284 2.88 11.491s-1.067 8.166-2.944 11.619l0.064-0.128-433.838 821.689c-3.331 6.837-10.221 11.469-18.194 11.488h-0.003z" />
<glyph unicode="&#xe962;" glyph-name="error" horiz-adv-x="1025" d="M711.384 295.077l-153.095 152.92 153.095 152.914c5.837 5.844 9.447 13.913 9.447 22.826 0 17.838-14.461 32.299-32.299 32.299-8.926 0-17.005-3.62-22.851-9.473v0l-153.095-152.914-153.101 152.925c-5.86 5.937-13.996 9.615-22.992 9.615-17.838 0-32.298-14.46-32.298-32.298 0-8.984 3.668-17.112 9.589-22.966l0.003-0.003 153.101-152.92-153.101-152.914c-5.781-5.835-9.352-13.866-9.352-22.732 0-17.841 14.463-32.303 32.303-32.303 8.879 0 16.921 3.582 22.76 9.38l-0.002-0.002 153.090 152.92 153.101-152.925c5.86-5.937 13.996-9.615 22.992-9.615 17.838 0 32.298 14.46 32.298 32.298 0 8.984-3.668 17.112-9.589 22.966l-0.003 0.003zM512.585 4.318c-244.642 0.557-442.746 199.005-442.746 443.724 0 245.062 198.662 443.725 443.725 443.725s443.725-198.662 443.725-443.725c0-0.016 0-0.031 0-0.047v0.002c-0.624-245.146-199.477-443.639-444.699-443.68h-0.004zM512.585 960c-282.518-0.335-511.415-229.438-511.415-512.002 0-282.771 229.231-512.003 512.003-512.003s512.002 229.231 512.003 512.002v0.001c-0.483 282.784-229.761 511.855-512.577 512.003h-0.014z" />
</font>
</defs>
</svg>
