<?xml version="1.0" encoding="utf-8"?>
<!-- Generator: Adobe Illustrator 22.1.0, SVG Export Plug-In . SVG Version: 6.00 Build 0)  -->
<svg version="1.1" id="图层_1" xmlns="http://www.w3.org/2000/svg" xmlns:xlink="http://www.w3.org/1999/xlink" x="0px" y="0px"
	 viewBox="0 0 512 512" style="enable-background:new 0 0 512 512;" xml:space="preserve">
<style type="text/css">
	.st0{fill:#040000;}
</style>
<path class="st0" d="M116.8,299.7c0,7.1,7.1,14.2,14.2,14.2h170.7c7.1,0,14.2-7.1,14.2-14.2c0-7.1-7.1-14.2-14.2-14.2H131
	C123.9,285.4,116.8,292.6,116.8,299.7z M301.7,370.8H131c-7.1,0-14.2,5.7-14.2,14.2c0,7.1,7.1,14.2,14.2,14.2h170.7
	c7.1,0,14.2-7.1,14.2-14.2C315.9,376.5,308.8,370.8,301.7,370.8z M131,228.6h85.3c7.1,0,14.2-7.1,14.2-14.2
	c0-7.1-7.1-14.2-14.2-14.2H131c-7.1,0-14.2,7.1-14.2,14.2C116.8,221.4,123.9,228.6,131,228.6z"/>
<path class="st0" d="M472.3,1H116.8c-7.1,0-14.2,7.1-14.2,14.2v71.1H45.7c-7.1,0-14.2,7.1-14.2,14.2v398.2c0,7.1,7.1,14.2,14.2,14.2
	H387c8.5,0,14.2-5.7,14.2-14.2v-42.7h71.1c7.1,0,14.2-7.1,14.2-14.2V15.2C486.6,8.1,479.4,1,472.3,1z M372.8,484.6H59.9V114.8h312.9
	V484.6z M387,86.3H131V29.4h327.1v398.2h-56.9V100.6C401.2,93.4,394.1,86.3,387,86.3z"/>
</svg>
