<?xml version="1.0" encoding="utf-8"?>
<!-- Generator: Adobe Illustrator 22.1.0, SVG Export Plug-In . SVG Version: 6.00 Build 0)  -->
<svg version="1.1" id="图层_1" xmlns="http://www.w3.org/2000/svg" xmlns:xlink="http://www.w3.org/1999/xlink" x="0px" y="0px"
	 viewBox="0 0 512 512" style="enable-background:new 0 0 512 512;" xml:space="preserve">
<style type="text/css">
	.st0{fill:#040000;}
</style>
<path class="st0" d="M327.1,186.9H184.9c-7.1,0-14.2,7.1-14.2,14.2c0,7.1,7.1,14.2,14.2,14.2h142.2c7.1,0,14.2-7.1,14.2-14.2
	C341.3,194,334.2,186.9,327.1,186.9z M327.1,258H184.9c-7.1,0-14.2,7.1-14.2,14.2c0,7.1,7.1,14.2,14.2,14.2h142.2
	c7.1,0,14.2-7.1,14.2-14.2C341.3,265.1,334.2,258,327.1,258z M327.1,329.1H184.9c-7.1,0-14.2,7.1-14.2,14.2
	c0,7.1,7.1,14.2,14.2,14.2h142.2c7.1,0,14.2-7.1,14.2-14.2C341.3,336.2,334.2,329.1,327.1,329.1z"/>
<path class="st0" d="M497.8,457.1h-14.2v-256c0-7.1-7.1-14.2-14.2-14.2h-71.1v-42.7c0-15.6-12.8-28.4-28.4-28.4h-99.6V87.3h14.2
	c7.1,0,14.2-7.1,14.2-14.2c0-8.5-7.1-14.2-14.2-14.2h-14.2V44.7c0-7.1-7.1-14.2-14.2-14.2c-7.1,0-14.2,7.1-14.2,14.2v14.2h-14.2
	c-7.1,0-14.2,5.7-14.2,14.2c0,7.1,7.1,14.2,14.2,14.2h14.2v28.4h-99.6c-15.6,0-28.4,12.8-28.4,28.4v99.6H42.7
	c-7.1,0-14.2,7.1-14.2,14.2v199.1H14.2c-7.1,0-14.2,7.1-14.2,14.2s7.1,14.2,14.2,14.2h483.6c7.1,0,14.2-7.1,14.2-14.2
	S504.9,457.1,497.8,457.1z M56.9,272.2h56.9v184.9H56.9V272.2z M284.4,457.1h-56.9v-28.4h56.9V457.1z M312.9,457.1v-42.7
	c0-7.1-7.1-14.2-14.2-14.2h-85.3c-7.1,0-14.2,7.1-14.2,14.2v42.7h-56.9V144.2h227.6v312.9H312.9z M398.2,457.1V215.3h56.9v241.8
	H398.2z"/>
</svg>
