<?xml version="1.0" encoding="utf-8"?>
<!-- Generator: Adobe Illustrator 22.1.0, SVG Export Plug-In . SVG Version: 6.00 Build 0)  -->
<svg version="1.1" id="图层_1" xmlns="http://www.w3.org/2000/svg" xmlns:xlink="http://www.w3.org/1999/xlink" x="0px" y="0px"
	 viewBox="0 0 512 512" style="enable-background:new 0 0 512 512;" xml:space="preserve">
<style type="text/css">
	.st0{fill:#040000;}
</style>
<path class="st0" d="M498.8,30.4H15.2C6.7,30.4,1,36.1,1,44.7v426.7c0,8.5,5.7,14.2,14.2,14.2h483.6c8.5,0,14.2-5.7,14.2-14.2V44.7
	C513,36.1,507.3,30.4,498.8,30.4z M484.6,58.9v264.5L409.2,248c-5.7-5.7-14.2-5.7-19.9,0l-75.4,75.4L167.4,176.9
	c-5.7-5.7-14.2-5.7-19.9,0l-118,118V58.9H484.6z M29.4,457.1V334.8l128-128l203.4,203.4c2.8,2.8,7.1,4.3,10,4.3s7.1-1.4,10-4.3
	c5.7-5.7,5.7-14.2,0-19.9l-46.9-46.9l65.4-65.4l85.3,85.3v93.9C484.6,457.1,29.4,457.1,29.4,457.1z"/>
<path class="st0" d="M313.9,229.6c39.8,0,71.1-31.3,71.1-71.1s-31.3-71.1-71.1-71.1s-71.1,31.3-71.1,71.1S274.1,229.6,313.9,229.6z
	 M313.9,115.8c24.2,0,42.7,18.5,42.7,42.7s-18.5,42.7-42.7,42.7c-24.2,0-42.7-18.5-42.7-42.7S289.7,115.8,313.9,115.8z"/>
</svg>
