<?xml version="1.0" encoding="utf-8"?>
<!-- Generator: Adobe Illustrator 22.1.0, SVG Export Plug-In . SVG Version: 6.00 Build 0)  -->
<svg version="1.1" id="图层_1" xmlns="http://www.w3.org/2000/svg" xmlns:xlink="http://www.w3.org/1999/xlink" x="0px" y="0px"
	 viewBox="0 0 512 512" style="enable-background:new 0 0 512 512;" xml:space="preserve">
<style type="text/css">
	.st0{fill:#040000;stroke:#623658;stroke-width:6;stroke-linejoin:round;stroke-miterlimit:10;}
	.st1{fill:#040000;}
</style>
<g>
	<g>
		<path class="st0" d="M195.5,151.2"/>
	</g>
	<g>
		<path class="st1" d="M370.6,43.2c-45.9,0-88.3,22.3-114.6,58.7c-26.2-36.4-68.7-58.7-114.6-58.7C63.4,43.2,0,106.7,0,184.6
			c0,46.6,23.1,79.7,41.6,106.4c54.7,78.5,193,176.7,198.9,180.9c4.6,3.3,10,4.9,15.5,4.9c5.4,0,10.8-1.6,15.5-4.9
			c5.9-4.1,144.2-102.3,198.9-180.9c18.5-26.6,41.6-59.8,41.6-106.4C512,106.7,448.6,43.2,370.6,43.2z M448.4,275.7
			C395.7,351.3,256,450,256,450S116.3,351.3,63.6,275.7c-19.4-27.9-36.8-54.4-36.8-91.1C26.8,121.3,78.1,70,141.4,70
			c46.8,0,86.9,28.1,104.7,68.3v-0.2h0.1c1.3,4.2,5.2,7.2,9.8,7.2c4.6,0,8.5-3,9.8-7.2h0.1C283.8,98,323.9,70,370.6,70
			c63.3,0,114.6,51.3,114.6,114.6C485.2,221.3,467.8,247.8,448.4,275.7z"/>
		<path class="st1" d="M438,245h-54.1c-3.4,0-6.4,2.1-7.6,5.3l-13.5,37l-27.3-81.5c-1.1-3.2-4.1-5.4-7.5-5.5c-3.6-0.1-6.5,2-7.7,5.2
			l-25.2,66.8l-10.3-24.3c-1.3-3-4.2-4.9-7.4-4.9h-48.6c-3.4,0-6.4,2.2-7.6,5.4L207.8,287l-27.2-81.2c-1.1-3.2-4.1-5.4-7.5-5.5
			c-3.4-0.1-6.5,2-7.7,5.2l-25.1,66.8L130,248.1c-1.3-3-4.2-4.9-7.4-4.9H74c-4.4,0-8,3.6-8,8c0,4.5,3.6,8.1,8,8.1h43.3l16.1,37.9
			c1.3,3,4.2,4.9,7.6,4.9c3.3-0.1,6.2-2.1,7.4-5.2l24.3-64.5l27.4,81.9c1.1,3.3,4.1,5.4,7.6,5.5c0,0,0,0,0.1,0
			c3.4,0,6.4-2.1,7.6-5.4l19.5-55.1h37.6l16.1,37.9c1.3,3,4.4,4.9,7.6,4.9c3.3-0.1,6.2-2.1,7.4-5.2l24.2-64.5l27.4,81.9
			c1.1,3.2,4.1,5.4,7.5,5.5c0,0,0.1,0,0.1,0c3.4,0,6.4-2.1,7.6-5.3l19.4-53.4H438c4.4,0,8-3.6,8-8.1C446.1,248.6,442.5,245,438,245z
			"/>
	</g>
</g>
</svg>
