<?xml version="1.0" encoding="utf-8"?>
<!-- Generator: Adobe Illustrator 22.1.0, SVG Export Plug-In . SVG Version: 6.00 Build 0)  -->
<svg version="1.1" id="图层_1" xmlns="http://www.w3.org/2000/svg" xmlns:xlink="http://www.w3.org/1999/xlink" x="0px" y="0px"
	 viewBox="0 0 512 512" style="enable-background:new 0 0 512 512;" xml:space="preserve">
<style type="text/css">
	.st0{fill:#040000;}
</style>
<path class="st0" d="M483.6,23.1H28.4C12.8,23.1,0,35.9,0,51.6v327.1c0,15.6,12.8,28.4,28.4,28.4h170.7V464H42.7
	c-7.1,0-14.2,7.1-14.2,14.2c0,7.1,7.1,14.2,14.2,14.2h426.7c7.1,0,14.2-7.1,14.2-14.2c0-7.1-7.1-14.2-14.2-14.2H312.9v-56.9h170.7
	c15.6,0,28.4-12.8,28.4-28.4V51.6C512,35.9,499.2,23.1,483.6,23.1z M284.4,464h-56.9v-56.9h56.9V464z M483.6,378.7H28.4V51.6h455.1
	V378.7z"/>
<path class="st0" d="M128,321.8c7.1,0,14.2-7.1,14.2-14.2v-71.1c0-7.1-7.1-14.2-14.2-14.2c-7.1,0-14.2,7.1-14.2,14.2v71.1
	C113.8,314.7,120.9,321.8,128,321.8z M213.3,321.8c7.1,0,14.2-7.1,14.2-14.2v-128c0-7.1-7.1-14.2-14.2-14.2
	c-7.1,0-14.2,7.1-14.2,14.2v128C199.1,314.7,206.2,321.8,213.3,321.8z M298.7,321.8c7.1,0,14.2-7.1,14.2-14.2V208
	c0-7.1-7.1-14.2-14.2-14.2c-7.1,0-14.2,7.1-14.2,14.2v99.6C284.4,314.7,291.6,321.8,298.7,321.8z M384,321.8
	c7.1,0,14.2-7.1,14.2-14.2V151.1c0-7.1-7.1-14.2-14.2-14.2s-14.2,7.1-14.2,14.2v156.4C369.8,314.7,376.9,321.8,384,321.8z"/>
</svg>
