<?xml version="1.0" encoding="utf-8"?>
<!-- Generator: Adobe Illustrator 22.1.0, SVG Export Plug-In . SVG Version: 6.00 Build 0)  -->
<svg version="1.1" id="图层_1" xmlns="http://www.w3.org/2000/svg" xmlns:xlink="http://www.w3.org/1999/xlink" x="0px" y="0px"
	 viewBox="0 0 512 512" style="enable-background:new 0 0 512 512;" xml:space="preserve">
<style type="text/css">
	.st0{fill:#040000;}
</style>
<path class="st0" d="M90.4,302.2h120.5v120.5c0,9,7.5,15.1,15.1,15.1s15.1-6,15.1-15.1V302.2h120.5c7.5,0,15.1-6,15.1-15.1
	s-7.5-15.1-15.1-15.1H240.9V151.6c0-9-7.5-15.1-15.1-15.1s-15.1,6-15.1,15.1v120.5H90.4c-7.5,0-15.1,6-15.1,15.1
	S82.8,302.2,90.4,302.2z"/>
<path class="st0" d="M496.9,1H105.4c-7.5,0-15.1,6-15.1,15.1s7.5,15.1,15.1,15.1h376.5v376.5c0,9,7.5,15.1,15.1,15.1
	c7.5,0,15.1-6,15.1-15.1V16.1C512,7,504.5,1,496.9,1z"/>
<path class="st0" d="M436.7,61.2H15.1C7.5,61.2,0,67.3,0,76.3v421.6c0,9,7.5,15.1,15.1,15.1h421.6c7.5,0,15.1-6,15.1-15.1V76.3
	C451.8,67.3,444.2,61.2,436.7,61.2z M421.6,91.4v391.5H30.1V91.4C30.1,91.4,421.6,91.4,421.6,91.4z"/>
</svg>
