<?xml version="1.0" encoding="utf-8"?>
<!-- Generator: Adobe Illustrator 22.1.0, SVG Export Plug-In . SVG Version: 6.00 Build 0)  -->
<svg version="1.1" id="图层_1" xmlns="http://www.w3.org/2000/svg" xmlns:xlink="http://www.w3.org/1999/xlink" x="0px" y="0px"
	 viewBox="0 0 512 512" style="enable-background:new 0 0 512 512;" xml:space="preserve">
<style type="text/css">
	.st0{fill:#040000;}
</style>
<path class="st0" d="M159.4,271.2H131c-7.1,0-14.2,7.1-14.2,14.2c0,7.1,7.1,14.2,14.2,14.2h28.4c7.1,0,14.2-7.1,14.2-14.2
	C173.7,278.3,166.6,271.2,159.4,271.2z M159.4,185.9H131c-7.1,0-14.2,7.1-14.2,14.2s7.1,14.2,14.2,14.2h28.4
	c7.1,0,14.2-7.1,14.2-14.2S166.6,185.9,159.4,185.9z M387,271.2H216.3c-7.1,0-14.2,7.1-14.2,14.2c0,7.1,7.1,14.2,14.2,14.2H387
	c7.1,0,14.2-7.1,14.2-14.2C401.2,278.3,394.1,271.2,387,271.2z M159.4,356.6H131c-7.1,0-14.2,7.1-14.2,14.2S123.9,385,131,385h28.4
	c7.1,0,14.2-7.1,14.2-14.2S166.6,356.6,159.4,356.6z M387,356.6H216.3c-7.1,0-14.2,7.1-14.2,14.2s7.1,14.2,14.2,14.2H387
	c7.1,0,14.2-7.1,14.2-14.2S394.1,356.6,387,356.6z M387,185.9H216.3c-7.1,0-14.2,7.1-14.2,14.2s7.1,14.2,14.2,14.2H387
	c7.1,0,14.2-7.1,14.2-14.2S394.1,185.9,387,185.9z"/>
<path class="st0" d="M472.3,57.9h-71.1V15.2C401.2,8.1,394.1,1,387,1c-7.1,0-14.2,7.1-14.2,14.2v42.7H145.2V15.2
	C145.2,8.1,138.1,1,131,1c-7.1,0-14.2,7.1-14.2,14.2v42.7H45.7c-8.5,0-14.2,5.7-14.2,14.2v426.7c0,8.5,5.7,14.2,14.2,14.2h426.7
	c8.5,0,14.2-5.7,14.2-14.2V72.1C486.6,63.6,480.9,57.9,472.3,57.9z M458.1,484.6H59.9V86.3h56.9v14.2c0,7.1,7.1,14.2,14.2,14.2
	c7.1,0,14.2-7.1,14.2-14.2V86.3h227.6v14.2c0,7.1,7.1,14.2,14.2,14.2c7.1,0,14.2-7.1,14.2-14.2V86.3h56.9V484.6z"/>
</svg>
