<?xml version="1.0" encoding="utf-8"?>
<!-- Generator: Adobe Illustrator 22.1.0, SVG Export Plug-In . SVG Version: 6.00 Build 0)  -->
<svg version="1.1" id="图层_1" xmlns="http://www.w3.org/2000/svg" xmlns:xlink="http://www.w3.org/1999/xlink" x="0px" y="0px"
	 viewBox="0 0 512 512" style="enable-background:new 0 0 512 512;" xml:space="preserve">
<style type="text/css">
	.st0{fill:#040000;}
</style>
<path class="st0" d="M386.3,214.2c0-7.1-7.1-14.2-14.2-14.2h-256c-7.1,0-14.2,7.1-14.2,14.2s7.1,14.2,14.2,14.2h256
	C379.2,228.4,386.3,221.3,386.3,214.2z M200,285.3h-81.1c-8.5,0-15.6,5.7-15.6,14.2c0,7.1,7.1,14.2,15.6,14.2H200
	c8.5,0,15.6-7.1,15.6-14.2C215.6,291,208.5,285.3,200,285.3z M200,370.6h-81.1c-8.5,0-15.6,5.7-15.6,14.2c0,7.1,7.1,14.2,15.6,14.2
	H200c8.5,0,15.6-7.1,15.6-14.2C215.6,376.3,208.5,370.6,200,370.6z M372.1,114.6h-256c-7.1,0-14.2,7.1-14.2,14.2
	c0,7.1,7.1,14.2,14.2,14.2h256c7.1,0,14.2-7.1,14.2-14.2C386.3,121.7,379.2,114.6,372.1,114.6z"/>
<path class="st0" d="M244.1,484.4H45V29.3h398.2v213.3c0,8.5,5.7,14.2,14.2,14.2s14.2-5.7,14.2-14.2V15.1c0-7.1-7.1-14.2-14.2-14.2
	H30.7c-7.1,0-14.2,7.1-14.2,14.2v483.6c0,7.1,7.1,14.2,14.2,14.2h213.3c8.5,0,14.2-5.7,14.2-14.2S252.6,484.4,244.1,484.4z"/>
<path class="st0" d="M386.3,285.3c-62.6,0-113.8,51.2-113.8,113.8s51.2,113.8,113.8,113.8s113.8-51.2,113.8-113.8
	S448.9,285.3,386.3,285.3z M386.3,484.4c-46.9,0-85.3-38.4-85.3-85.3s38.4-85.3,85.3-85.3s85.3,38.4,85.3,85.3
	S433.2,484.4,386.3,484.4z"/>
<path class="st0" d="M429,384.8h-28.4v-28.4c0-7.1-7.1-14.2-14.2-14.2c-7.1,0-14.2,7.1-14.2,14.2v42.7c0,7.1,7.1,14.2,14.2,14.2H429
	c7.1,0,14.2-7.1,14.2-14.2C443.2,391.9,436.1,384.8,429,384.8z"/>
</svg>
