<?xml version="1.0" encoding="utf-8"?>
<!-- Generator: Adobe Illustrator 22.1.0, SVG Export Plug-In . SVG Version: 6.00 Build 0)  -->
<svg version="1.1" id="图层_1" xmlns="http://www.w3.org/2000/svg" xmlns:xlink="http://www.w3.org/1999/xlink" x="0px" y="0px"
	 viewBox="0 0 512 512" style="enable-background:new 0 0 512 512;" xml:space="preserve">
<style type="text/css">
	.st0{fill:#040000;}
</style>
<path class="st0" d="M355.5,312.5H170.9c-24.1,0-42.6,18.5-42.6,42.6v28.4c0,8.5,7.1,14.2,14.2,14.2h14.2v99.4
	c0,8.5,7.1,14.2,14.2,14.2h170.4c7.1,0,14.2-5.7,14.2-14.2v-99.4h28.4c7.1,0,14.2-5.7,14.2-14.2v-28.4
	C398.1,331,379.6,312.5,355.5,312.5z M327.1,482.9h-142v-85.2h142C327.1,397.7,327.1,482.9,327.1,482.9z M369.7,369.3h-213v-14.2
	c0-7.1,7.1-14.2,14.2-14.2h184.6c7.1,0,14.2,7.1,14.2,14.2C369.7,355.1,369.7,369.3,369.7,369.3z M297.3,4.4
	c-24.1-4.3-46.9-4.3-71-2.8C105.6,15.7,9,116.6,0.5,237.3c-5.7,92.3,36.9,174.7,105.1,224.4c6.3,4.7,15.2,3.4,19.9-2.8
	c1.8-2.5,2.8-5.4,2.8-8.5c0-4.3-2.8-8.5-5.7-11.4c-61.1-45.4-98-120.7-92.3-198.8C37.4,132.2,124,42.7,230.5,29.9
	c8.5-1.4,17-1.4,25.6-1.4c125,0,227.2,102.2,227.2,227.2c0,73.8-35.5,142-93.7,183.2c-4.3,2.8-5.7,7.1-5.7,11.4
	c0,11.4,12.8,18.5,22.7,11.4c66.7-48.3,109.3-127.8,105.1-215.8C507.4,125.1,415.1,25.7,297.3,4.4z"/>
<path class="st0" d="M172.3,268.5c-1.4-11.4-1.4-24.1,2.8-36.9c8.5-29.8,35.5-54,66.7-59.6c54-9.9,100.8,31.2,100.8,83.8
	c0,4.3,0,8.5-1.4,12.8c-1.4,8.5,5.7,15.6,14.2,15.6c7.1,0,12.8-5.7,14.2-11.4c2.8-17,1.4-34.1-5.7-52.5
	c-17-46.9-59.6-78.1-109.3-76.7c-62.5,1.4-112.2,51.1-112.2,113.6c0,5.7,0,11.4,1.4,15.6c1.4,7.1,7.1,12.8,14.2,12.8
	C166.6,284.1,173.7,277,172.3,268.5z"/>
<path class="st0" d="M412.3,255.7c0,7.8,6.4,14.2,14.2,14.2c7.8,0,14.2-6.4,14.2-14.2s-6.4-14.2-14.2-14.2
	C418.7,241.5,412.3,247.9,412.3,255.7L412.3,255.7z"/>
<path class="st0" d="M71.5,255.7c0,7.8,6.4,14.2,14.2,14.2s14.2-6.4,14.2-14.2c0,0,0,0,0,0c0-7.8-6.4-14.2-14.2-14.2
	S71.5,247.9,71.5,255.7C71.5,255.7,71.5,255.7,71.5,255.7z"/>
</svg>
