<?xml version="1.0" encoding="utf-8"?>
<!-- Generator: Adobe Illustrator 22.1.0, SVG Export Plug-In . SVG Version: 6.00 Build 0)  -->
<svg version="1.1" id="图层_1" xmlns="http://www.w3.org/2000/svg" xmlns:xlink="http://www.w3.org/1999/xlink" x="0px" y="0px"
	 viewBox="0 0 512 512" style="enable-background:new 0 0 512 512;" xml:space="preserve">
<style type="text/css">
	.st0{fill:#040000;}
</style>
<path class="st0" d="M497.8,85.3H261.7c-4.3,0-7.1-1.4-10-4.3l-48.4-48.4c-2.8-2.8-5.7-4.3-10-4.3H14.2C5.7,28.4,0,34.1,0,42.7
	v426.7c0,8.5,5.7,14.2,14.2,14.2h483.6c8.5,0,14.2-5.7,14.2-14.2V99.6C512,91,506.3,85.3,497.8,85.3z M483.6,455.1H28.4V56.9h159.3
	l44.1,44.1c8.5,8.5,18.5,12.8,29.9,12.8h221.9C483.6,113.8,483.6,455.1,483.6,455.1z"/>
<path class="st0" d="M229,176.4l120.9,120.9l-81.1,81.1L147.9,257.4l7.1-74L229,176.4 M233.2,147.9l-92.4,8.5
	c-7.1,0-12.8,5.7-12.8,12.8l-8.5,92.4c0,4.3,1.4,8.5,4.3,11.4l136.5,136.5c2.8,2.8,7.1,4.3,10,4.3c2.8,0,7.1-1.4,10-4.3l101-101
	c5.7-5.7,5.7-14.2,0-19.9L244.6,152.2C241.8,149.3,237.5,147.9,233.2,147.9z"/>
<path class="st0" d="M184.9,227.6c0,7.9,6.4,14.2,14.2,14.2s14.2-6.4,14.2-14.2c0-7.9-6.4-14.2-14.2-14.2S184.9,219.7,184.9,227.6z"
	/>
</svg>
