<?xml version="1.0" encoding="utf-8"?>
<!-- Generator: Adobe Illustrator 22.1.0, SVG Export Plug-In . SVG Version: 6.00 Build 0)  -->
<svg version="1.1" id="图层_1" xmlns="http://www.w3.org/2000/svg" xmlns:xlink="http://www.w3.org/1999/xlink" x="0px" y="0px"
	 viewBox="0 0 512 512" style="enable-background:new 0 0 512 512;" xml:space="preserve">
<style type="text/css">
	.st0{fill:#040000;}
</style>
<path class="st0" d="M199.1,315.4c-7.1,0-14.2,7.1-14.2,14.2c0,7.1,7.1,14.2,14.2,14.2h42.7v42.7c0,7.1,7.1,14.2,14.2,14.2
	c7.1,0,14.2-7.1,14.2-14.2v-42.7h42.7c7.1,0,14.2-7.1,14.2-14.2c0-7.1-7.1-14.2-14.2-14.2h-42.7v-42.7c0-7.1-7.1-14.2-14.2-14.2
	c-7.1,0-14.2,7.1-14.2,14.2v42.7C241.8,315.4,199.1,315.4,199.1,315.4z"/>
<path class="st0" d="M497.8,173.2h-14.2v-58.3c0-14.2-12.8-27-28.4-27h-28.4V59.4c0-15.6-12.8-28.4-28.4-28.4H56.9
	c-15.6,0-28.4,12.8-28.4,28.4v85.3H14.2C5.7,144.8,0,150.5,0,159v312.9c0,8.5,5.7,14.2,14.2,14.2h483.6c8.5,0,14.2-5.7,14.2-14.2
	V187.4C512,178.9,506.3,173.2,497.8,173.2z M455.1,173.2H234.7c-4.3,0-8.5-1.4-12.8-2.8l-45.5-22.8c-4.3-1.4-8.5-2.8-12.8-2.8h-49.8
	v-28.4h341.3C455.1,116.3,455.1,173.2,455.1,173.2z M56.9,59.4h341.3v28.4H113.8c-15.6,0-28.4,11.4-28.4,27v29.9H56.9
	C56.9,144.8,56.9,59.4,56.9,59.4z M483.6,457.7H28.4V173.2h135.1l45.5,22.8c8.5,4.3,17.1,5.7,25.6,5.7h248.9
	C483.6,201.7,483.6,457.7,483.6,457.7z"/>
</svg>
