<?xml version="1.0" encoding="utf-8"?>
<!-- Generator: Adobe Illustrator 22.1.0, SVG Export Plug-In . SVG Version: 6.00 Build 0)  -->
<svg version="1.1" id="图层_1" xmlns="http://www.w3.org/2000/svg" xmlns:xlink="http://www.w3.org/1999/xlink" x="0px" y="0px"
	 viewBox="0 0 512 512" style="enable-background:new 0 0 512 512;" xml:space="preserve">
<style type="text/css">
	.st0{fill:#040000;}
</style>
<path class="st0" d="M497.8,30.4H14.2C5.7,30.4,0,36.1,0,44.7v426.7c0,8.5,5.7,14.2,14.2,14.2h483.6c8.5,0,14.2-5.7,14.2-14.2V44.7
	C512,36.1,506.3,30.4,497.8,30.4z M483.6,58.9v284.4H28.4V58.9H483.6z M28.4,457.1v-85.3h455.1v85.3H28.4z"/>
<path class="st0" d="M270.2,400.2H71.1c-7.1,0-14.2,7.1-14.2,14.2c0,7.1,7.1,14.2,14.2,14.2h199.1c7.1,0,14.2-7.1,14.2-14.2
	C284.4,407.3,277.3,400.2,270.2,400.2z M440.9,400.2h-85.3c-7.1,0-14.2,5.7-14.2,14.2c0,7.1,7.1,14.2,14.2,14.2h85.3
	c7.1,0,14.2-7.1,14.2-14.2C455.1,405.9,448,400.2,440.9,400.2z M71.1,229.6H128c5.7,0,10-2.8,12.8-8.5l44.1-88.2l86.8,173.5
	c2.8,4.3,7.1,8.5,12.8,8.5s10-2.8,12.8-8.5l58.3-116.6l15.6,31.3c2.8,4.3,7.1,8.5,12.8,8.5h56.9c8.5,0,14.2-5.7,14.2-14.2
	s-5.7-14.2-14.2-14.2h-48.4l-24.2-48.4c-4.3-10-21.3-10-25.6,0l-58.3,116.6L197.7,95.9c-4.3-10-21.3-10-25.6,0l-52.6,105.2H71.1
	c-8.5,0-14.2,5.7-14.2,14.2S62.6,229.6,71.1,229.6z"/>
</svg>
