<?xml version="1.0" encoding="utf-8"?>
<!-- Generator: Adobe Illustrator 22.1.0, SVG Export Plug-In . SVG Version: 6.00 Build 0)  -->
<svg version="1.1" id="图层_1" xmlns="http://www.w3.org/2000/svg" xmlns:xlink="http://www.w3.org/1999/xlink" x="0px" y="0px"
	 viewBox="0 0 512 512" style="enable-background:new 0 0 512 512;" xml:space="preserve">
<style type="text/css">
	.st0{fill:#040000;}
</style>
<g>
	<g>
		<path class="st0" d="M256.6,217.8c-21.3,0-38.6,17.3-38.6,38.7c0,21.3,17.3,38.7,38.6,38.7c21.3,0,38.7-17.3,38.7-38.7
			C295.3,235.2,277.9,217.8,256.6,217.8z M256.6,279.1c-12.5,0-22.6-10.1-22.6-22.6c0-12.5,10.1-22.6,22.6-22.6
			c12.5,0,22.6,10.1,22.6,22.6C279.2,269,269.1,279.1,256.6,279.1z"/>
		<path class="st0" d="M349.8,202.7c-1.6-20.7-4-40.7-7.3-59.6c61.3-19,103.5-17.1,112.6-1.3c6.3,10.8,0.2,36.3-35.6,75.1
			c-5,5.4-4.6,13.9,0.8,18.9c5.5,5,13.9,4.6,18.9-0.8c40.4-43.9,54-80.8,39-106.6c-20.1-34.8-82.5-31.3-153.2-7.6
			c-0.1,0-0.3,0-0.4,0c-1.3,0.2-2.4,0.7-3.5,1.3c-21.1,7.3-42.9,16.3-64.5,26.7c-18.7-9-37.3-16.9-55.3-23.5
			c14.1-62.6,37-98.2,55.2-98.2c12.3,0,31,17.4,46.6,66.3c2.3,7,9.8,10.9,16.8,8.7c7-2.3,10.9-9.8,8.6-16.8
			C310.9,29.8,286,0.5,256.6,0.5c-40.2,0-68.4,55.9-83.2,129c0,0.1-0.1,0.2-0.1,0.2c-0.4,1.2-0.6,2.3-0.6,3.5
			c-4.3,22-7.3,45.4-9.2,69.4c-17.1,11.7-33.3,23.8-48,36.1c-9.7-8.9-18.5-17.9-26.3-26.8c-26.7-30.3-38.6-57.2-31.1-70.1
			c6.3-10.8,31.2-18.3,82.6-6.8c7.2,1.6,14.3-2.9,15.9-10.1c1.6-7.2-2.9-14.4-10.1-16c-58.1-13-96.7-6.2-111.6,19.6
			c-14.2,24.6-2.4,59.6,34.1,101.2c10.8,12.2,23.5,24.6,37.5,36.9c0.3,0.3,0.6,0.6,0.9,0.8c16.8,14.6,35.6,29.1,56,43
			c1.6,20.7,4,40.7,7.3,59.6c-61.3,19-103.5,17-112.6,1.2c-6.3-11-0.1-36.7,36.3-75.9c5-5.4,4.7-13.9-0.7-18.9
			c-5.4-5-13.9-4.7-18.9,0.7c-40.5,43.7-54.6,81.8-39.8,107.5c10.4,18,32.1,25.8,60.5,25.8c26.4,0,58.6-6.8,92.7-18.2
			c0.1,0,0.3,0,0.4,0c1.2-0.2,2.4-0.7,3.4-1.2c21.1-7.3,43-16.4,64.6-26.7c18.7,9,37.3,16.9,55.3,23.5c-14.1,62.6-37,98.2-55.2,98.2
			c-12.2,0-30.9-17.3-46.5-66c-2.3-7-9.8-10.9-16.8-8.6c-7,2.3-10.9,9.8-8.6,16.8c17.8,55.3,42.7,84.5,72,84.5
			c40.2,0,68.4-55.8,83.2-128.9c0-0.1,0.1-0.2,0.2-0.3c0.4-1.3,0.6-2.5,0.6-3.8c4.3-21.9,7.3-45.3,9.2-69.1
			c17.1-11.7,33.3-23.8,48-36.1c9.7,9,18.6,17.9,26.4,26.8c26.7,30.3,38.5,57.2,31,70.1c-6.2,10.8-31.1,18.3-82.3,6.9
			c-7.2-1.6-14.3,2.9-15.9,10.2c-1.6,7.2,3,14.3,10.2,15.9c19.1,4.2,36,6.3,50.8,6.3c29.9,0,50.5-8.7,60.5-26
			c14.2-24.7,2.4-59.6-34.2-101.2C420.4,256.3,387.7,228.5,349.8,202.7z M161.7,276.4c-9-6.6-17.6-13.2-25.7-19.9
			c8.1-6.7,16.8-13.3,25.7-19.9c-0.2,6.6-0.3,13.3-0.3,19.9C161.4,263.2,161.5,269.8,161.7,276.4z M316.9,151.9
			c1.7,10.4,3.2,21.3,4.4,32.3c-5.6-3.4-11.3-6.9-17.1-10.2c-5.8-3.4-11.6-6.6-17.5-9.7C297.1,159.7,307.2,155.5,316.9,151.9z
			 M196.2,152c9.9,3.7,20,7.9,30.2,12.4c-5.8,3.2-11.6,6.4-17.4,9.7c-5.8,3.3-11.5,6.8-17.2,10.3C193,173,194.5,162.2,196.2,152z
			 M196.3,361.1c-1.7-10.4-3.2-21.3-4.4-32.4c5.6,3.5,11.3,6.9,17.1,10.2c5.8,3.4,11.6,6.6,17.5,9.7
			C216.1,353.3,206,357.4,196.3,361.1z M317,361c-9.9-3.7-20-7.9-30.2-12.4c5.8-3.2,11.7-6.4,17.4-9.7c5.8-3.3,11.5-6.8,17.2-10.3
			C320.2,340,318.7,350.8,317,361z M324.1,295.3c-10.8,7.1-21.9,13.9-33.2,20.5c-11.6,6.7-23,12.9-34.1,18.5
			c-11.5-5.8-23-12-34.3-18.5c-11.4-6.6-22.4-13.5-33.1-20.4c-0.7-12.8-1.1-25.8-1.1-38.9c0-13.5,0.4-26.4,1-38.8
			c10.8-7,21.8-13.9,33.2-20.5c11.6-6.7,23-12.9,34.1-18.5c11.5,5.8,23,12,34.3,18.5c11.4,6.6,22.4,13.5,33.1,20.5
			c0.7,12.8,1.1,25.8,1.1,38.9C325.1,269.9,324.7,282.9,324.1,295.3z M351.5,276.4c0.2-6.6,0.3-13.3,0.3-19.9
			c0-6.7-0.1-13.3-0.3-19.9c9,6.6,17.6,13.2,25.7,19.9C369.1,263.2,360.5,269.8,351.5,276.4z"/>
	</g>
</g>
</svg>
