<svg xmlns="http://www.w3.org/2000/svg" viewBox="0 0 512 512.001"><title>保存</title><path d="M511.114,138.625c-1.038-1.036-2.766-2.764-3.112-5.184L379.4,4.836c-.692-.692-3.8-3.458-6.224-3.458H18.817C7.756,1.378.5,8.638.5,19.7V495.057c0,11.061,7.26,18.321,18.321,18.321H494.175c11.062,0,18.321-7.26,18.321-18.321V140.7a5.271,5.271,0,0,0-1.382-2.077ZM166.439,41.136a3.265,3.265,0,0,1,3.455-3.459H342.752a3.268,3.268,0,0,1,3.458,3.459v86.427a3.27,3.27,0,0,1-3.458,3.459H169.894a3.267,3.267,0,0,1-3.455-3.459ZM346.21,473.277a3.267,3.267,0,0,1-3.458,3.456H169.894a3.264,3.264,0,0,1-3.455-3.456V343.633a3.266,3.266,0,0,1,3.455-3.458H342.752a3.268,3.268,0,0,1,3.458,3.458Zm129.64,0a3.264,3.264,0,0,1-3.455,3.456h-86.43a3.265,3.265,0,0,1-3.456-3.456V321.854c0-11.062-7.259-18.321-18.324-18.321H148.114c-11.061,0-18.321,7.259-18.321,18.321V473.277a3.266,3.266,0,0,1-3.458,3.456H39.908a3.266,3.266,0,0,1-3.458-3.456V41.136a3.267,3.267,0,0,1,3.458-3.459h86.427a3.267,3.267,0,0,1,3.458,3.459V149.343c0,11.061,7.26,18.324,18.321,18.324H364.185c11.065,0,18.324-7.263,18.324-18.324V71.557a3.024,3.024,0,0,1,2.074-3.112,2.09,2.09,0,0,1,1.382-.343,3.126,3.126,0,0,1,2.42,1.036l86.43,86.426a3.149,3.149,0,0,1,1.035,2.42Zm0,0" transform="translate(-0.496 -1.378)" style="fill:#6dd5ff"/></svg>