<svg xmlns="http://www.w3.org/2000/svg" viewBox="0 0 512 512"><title>另存为</title><path d="M415.211.931H123.816a36.658,36.658,0,0,0-36.63,36.62V88.7H36.215a36.643,36.643,0,0,0-36.6,36.586V476.342a36.644,36.644,0,0,0,36.6,36.589H387.387a36.651,36.651,0,0,0,36.63-36.589V425.191h50.974a36.657,36.657,0,0,0,36.627-36.62V97.281ZM339.074,30.283V132.588H236.744V30.283Zm55.551,453.293-365.648.032-.032-365.585H87.218V388.571a36.658,36.658,0,0,0,36.63,36.62H394.657v58.385Zm29.36-87.737H116.546V30.283h90.837v105.89a25.761,25.761,0,0,0,25.742,25.735H342.66A25.769,25.769,0,0,0,368.4,136.173V30.283h34.676l79.18,79.16.032,286.428H423.985Zm0,0" transform="translate(0.382 -0.931)" style="fill:#70c9f0"/></svg>