<svg xmlns="http://www.w3.org/2000/svg" viewBox="0 0 512.075 475.129"><title>导出</title><path d="M511.647,162.356c0,15.861-12.815,20.394-156.353,126.944-20.394,15.154-21.319,0-21.319,0V218.762C208.151,217.056,176.5,276.751,134.983,352.771c-12.817-120.609,28.945-248.015,198.968-246.846V28.346c-.122.123,4.335-16.4,18.785-4.63,147.118,120.146,159.4,127.53,158.911,138.64ZM170.239,127.149H109.788c-35.963,0-45.807,11.231-45.807,45.464V384.786c0,38.6,13.766,45.468,45.807,45.468H323.6c35.476,0,45.831-10.283,45.831-45.468V353.039c0-9.184,10.576-28.484,32.041-28.484,22.1,0,31.991,19.4,31.991,28.557V443.63c0,27.605-22.758,50.193-50.583,50.193H50.508A50.534,50.534,0,0,1-.075,443.63V113.8C-.075,86.19,22.683,63.6,50.508,63.6H170.482c14.3,0,28.436,14.279,28.436,28.215,0,30.311-14.913,35.332-28.679,35.332Zm0,0" transform="translate(0.075 -19.293)" style="fill:#6dd5ff"/><rect x="0.075" width="512" height="475.129" style="fill:none"/></svg>