<svg xmlns="http://www.w3.org/2000/svg" viewBox="0 0 512 512"><title>返回</title><path d="M255.845,512.72c-141.375,0-256-114.622-256-256s114.624-256,256-256,256,114.625,256,256-114.623,256-256,256Zm0-469.344C138.021,43.376,42.5,138.9,42.5,256.72s95.52,213.346,213.344,213.346,213.344-95.52,213.344-213.346S373.669,43.376,255.845,43.376Zm40.962,355.456L186.47,287.183,156.389,256.72l30.081-30.463,110.337-111.68,30.111,30.5L216.584,256.72,326.918,368.4Zm0,0" transform="translate(0.154 -0.72)" style="fill:#00b0e4"/></svg>