<svg xmlns="http://www.w3.org/2000/svg" viewBox="0 0 512.092 366.533"><title>预览</title><path d="M256.207,73.789C73.422,73.789.308,256.571.308,256.571S73.422,439.36,256.207,439.36s255.9-182.789,255.9-182.789S438.993,73.789,256.207,73.789Zm0,292.454A109.671,109.671,0,1,1,365.879,256.571,109.673,109.673,0,0,1,256.207,366.243Zm0,0" transform="translate(-0.308 -73.568)" style="fill:#6dd5ff"/><rect x="0.092" width="512" height="366.533" style="fill:none"/><path d="M311.045,256.571a54.838,54.838,0,1,1-54.838-54.832,54.852,54.852,0,0,1,54.838,54.832Zm0,0" transform="translate(-0.308 -73.568)" style="fill:#6dd5ff"/></svg>