<?xml version="1.0" encoding="utf-8"?>
<!-- Generator: Adobe Illustrator 22.1.0, SVG Export Plug-In . SVG Version: 6.00 Build 0)  -->
<svg version="1.1" id="图层_1" xmlns="http://www.w3.org/2000/svg" xmlns:xlink="http://www.w3.org/1999/xlink" x="0px" y="0px"
	 viewBox="0 0 512 512" style="enable-background:new 0 0 512 512;" xml:space="preserve">
<style type="text/css">
	.st0{fill:#040000;}
</style>
<path class="st0" d="M472.3,28.4h-71.1V14.2C401.2,7.1,394.1,0,387,0c-7.1,0-14.2,7.1-14.2,14.2v14.2H145.2V14.2
	C145.2,7.1,138.1,0,131,0c-7.1,0-14.2,7.1-14.2,14.2v14.2H45.7c-7.1,0-14.2,7.1-14.2,14.2v455.1c0,7.1,7.1,14.2,14.2,14.2h426.7
	c7.1,0,14.2-7.1,14.2-14.2V42.7C486.6,35.6,479.4,28.4,472.3,28.4z M59.9,56.9h56.9v14.2c0,7.1,7.1,14.2,14.2,14.2
	c7.1,0,14.2-7.1,14.2-14.2V56.9h227.6v14.2c0,7.1,7.1,14.2,14.2,14.2c7.1,0,14.2-7.1,14.2-14.2V56.9h56.9v85.3H59.9V56.9z
	 M458.1,483.6H59.9V170.7h398.2V483.6z"/>
<path class="st0" d="M216.3,284.4h28.4v28.4c0,7.1,7.1,14.2,14.2,14.2c7.1,0,14.2-7.1,14.2-14.2v-28.4h28.4
	c7.1,0,14.2-7.1,14.2-14.2c0-7.1-7.1-14.2-14.2-14.2h-28.4v-28.4c0-7.1-7.1-14.2-14.2-14.2c-7.1,0-14.2,7.1-14.2,14.2V256h-28.4
	c-7.1,0-14.2,7.1-14.2,14.2C202.1,277.3,209.2,284.4,216.3,284.4z M131,384h256c7.1,0,14.2-7.1,14.2-14.2c0-7.1-7.1-14.2-14.2-14.2
	H131c-7.1,0-14.2,7.1-14.2,14.2C116.8,376.9,123.9,384,131,384z M131,440.9h256c7.1,0,14.2-7.1,14.2-14.2c0-7.1-7.1-14.2-14.2-14.2
	H131c-7.1,0-14.2,7.1-14.2,14.2C116.8,433.8,123.9,440.9,131,440.9z"/>
</svg>
