<?xml version="1.0" encoding="utf-8"?>
<!-- Generator: Adobe Illustrator 22.1.0, SVG Export Plug-In . SVG Version: 6.00 Build 0)  -->
<svg version="1.1" id="图层_1" xmlns="http://www.w3.org/2000/svg" xmlns:xlink="http://www.w3.org/1999/xlink" x="0px" y="0px"
	 viewBox="0 0 512 512" style="enable-background:new 0 0 512 512;" xml:space="preserve">
<style type="text/css">
	.st0{fill:#040000;}
</style>
<path class="st0" d="M500.9,272.1H409c-6-52.7-42.2-96.4-90.4-112.9c19.6-16.6,30.1-40.7,30.1-67.8c0-49.7-40.7-90.4-90.4-90.4
	s-90.4,40.7-90.4,90.4c0,27.1,12,51.2,30.1,67.8c-48.2,16.6-84.3,60.2-90.4,112.9H16c-7.5,0-15.1,7.5-15.1,15.1
	c0,7.5,7.5,15.1,15.1,15.1H31v195.8c0,7.5,7.5,15.1,15.1,15.1h421.6c7.5,0,15.1-7.5,15.1-15.1V302.2h15.1c7.5,0,15.1-7.5,15.1-15.1
	C512.9,279.6,508.4,272.1,500.9,272.1z M199.7,91.4c0-33.1,27.1-60.2,60.2-60.2s60.2,27.1,60.2,60.2s-27.1,60.2-60.2,60.2
	S199.7,124.5,199.7,91.4z M244.9,181.7H275c52.7,0,96.4,39.2,103.9,90.4H141C148.5,220.9,192.2,181.7,244.9,181.7z M455.7,482.9
	H64.2V302.2h391.5V482.9z"/>
<path class="st0" d="M305.1,407.6h-90.4c-7.5,0-15.1-7.5-15.1-15.1c0-7.5,7.5-15.1,15.1-15.1h90.4c7.5,0,15.1,7.5,15.1,15.1
	C320.2,400.1,312.6,407.6,305.1,407.6z"/>
<path class="st0" d="M244.9,437.7v-90.4c0-7.5,7.5-15.1,15.1-15.1c7.5,0,15.1,7.5,15.1,15.1v90.4c0,7.5-7.5,15.1-15.1,15.1
	S244.9,445.2,244.9,437.7z"/>
</svg>
