<?xml version="1.0" encoding="utf-8"?>
<!-- Generator: Adobe Illustrator 22.1.0, SVG Export Plug-In . SVG Version: 6.00 Build 0)  -->
<svg version="1.1" id="图层_1" xmlns="http://www.w3.org/2000/svg" xmlns:xlink="http://www.w3.org/1999/xlink" x="0px" y="0px"
	 viewBox="0 0 512 512" style="enable-background:new 0 0 512 512;" xml:space="preserve">
<style type="text/css">
	.st0{fill:#040000;}
</style>
<g>
	<g>
		<path class="st0" d="M371.4,365.1h-30.3v-1.8c0-4.4-3.6-8-7.9-8c-4.4,0-7.9,3.6-7.9,8v1.8h-30.3c-4.4,0-7.9,3.6-7.9,7.9v46.7
			c0,4.4,3.5,7.9,7.9,7.9h76.5c4.4,0,8-3.6,8-7.9V373C379.3,368.6,375.8,365.1,371.4,365.1z M363.4,411.8h-60.6V381h22.3v1.8
			c0,4.4,3.6,7.9,7.9,7.9c4.4,0,7.9-3.6,7.9-7.9V381h22.3V411.8z"/>
		<path class="st0" d="M333.1,349.1c2.1,0,4.1-0.8,5.7-2.3c1.5-1.5,2.3-3.5,2.3-5.6c0-2.1-0.8-4.1-2.3-5.6c-3-3-8.2-3-11.2,0
			c-1.5,1.5-2.3,3.5-2.3,5.6c0,2.1,0.9,4.1,2.3,5.6C329,348.3,331.1,349.1,333.1,349.1z"/>
		<path class="st0" d="M471.9,373.8c-31.4-54.2-81.5-94.4-141.2-113.2c-4.7-1.5-9.8-0.2-13.3,3.3c-1.1,1.1-2.2,2.1-3.2,3.1
			c-0.3,0.2-0.6,0.5-0.9,0.8c-21.3,20.3-45.6,36.7-57.2,44.1c-12.5-8.3-39.1-26.7-57.8-44.2c-0.2-0.2-0.5-0.5-0.7-0.7
			c-1.1-1-2.3-2.1-3.3-3.1c-3.5-3.5-8.6-4.8-13.3-3.3c-59.7,18.8-109.9,59-141.2,113.2c-2.4,4.1-2.4,9.2,0,13.3
			c44.5,77,127.4,124.8,216.1,124.8c88.8,0,171.6-47.8,216.1-124.8C474.3,383,474.3,377.9,471.9,373.8z M77.1,395.5
			c-3.7-4.9-7.2-9.9-10.4-15.1c15.3-24.6,35.3-45.5,58.3-62.2c-14,16.4-26.8,35.4-38.1,56.9C83.4,381.7,80.2,388.5,77.1,395.5z
			 M263.8,485.1v-87.6c0-4.4-3.6-7.9-7.9-7.9c-4.4,0-7.9,3.6-7.9,7.9v87.6c-61.6-2.2-119.2-30.1-159.5-75.7
			c3.9-9.3,8.1-18.4,12.5-27c21.9-41.9,49.6-73.9,80.9-93.9c25,23,60.1,45.8,66.1,49.6v23.9c0,4.4,3.6,7.9,7.9,7.9
			c4.4,0,7.9-3.6,7.9-7.9v-23.8c6.6-4,38-23.2,66.1-49.7c31.8,20.2,59.8,53,81.8,95.8c4.1,8,7.9,16.5,11.6,25.1
			C383,455,325.3,482.9,263.8,485.1z M434.6,395.5c-2.8-6.3-5.7-12.4-8.8-18.4c-11.5-22.3-24.7-41.9-39.1-58.9
			c23.1,16.7,42.9,37.7,58.3,62.2C441.8,385.6,438.2,390.6,434.6,395.5z"/>
		<path class="st0" d="M255.8,265.3c57.7,0,104.7-47,104.7-104.7V29.8c0-5.5-3.4-10.4-8.5-12.4C321.1,5.8,288.8-0.1,255.8-0.1
			c-33,0-65.3,5.9-96.2,17.6c-5.1,2-8.6,6.9-8.6,12.4v130.8C151.1,218.3,198.1,265.3,255.8,265.3z M177.6,39.1
			c50.5-17,106-17,156.5,0v67.3H177.6V39.1z M177.6,122.3h156.5v38.3c0,43.1-35.1,78.2-78.3,78.2c-43.2,0-78.2-35.1-78.2-78.2V122.3
			z"/>
		<path class="st0" d="M274.9,59h-11.1V47.8c0-4.4-3.6-7.9-7.9-7.9c-4.4,0-7.9,3.6-7.9,7.9V59h-11.2c-4.4,0-7.9,3.6-7.9,7.9
			c0,4.4,3.6,7.9,7.9,7.9h11.2V86c0,4.4,3.6,7.9,7.9,7.9c4.4,0,7.9-3.6,7.9-7.9V74.9h11.1c4.4,0,7.9-3.6,7.9-7.9
			C282.9,62.5,279.3,59,274.9,59z"/>
	</g>
</g>
</svg>
