<?xml version="1.0" encoding="utf-8"?>
<!-- Generator: Adobe Illustrator 22.1.0, SVG Export Plug-In . SVG Version: 6.00 Build 0)  -->
<svg version="1.1" id="图层_1" xmlns="http://www.w3.org/2000/svg" xmlns:xlink="http://www.w3.org/1999/xlink" x="0px" y="0px"
	 viewBox="0 0 512 512" style="enable-background:new 0 0 512 512;" xml:space="preserve">
<style type="text/css">
	.st0{fill:#040000;}
</style>
<g>
	<g>
		<path class="st0" d="M477.7,372.9c-31.6-54.6-82.2-95.1-142.3-114.1c-4.7-1.5-9.9-0.2-13.5,3.3c-1.1,1.1-2.2,2.1-3.3,3.1
			c-0.3,0.2-0.6,0.5-0.8,0.8c-21.4,20.5-46,37-57.7,44.5c-12.5-8.3-39.4-26.9-58.2-44.6c-0.2-0.2-0.5-0.5-0.7-0.7
			c-1.1-1.1-2.3-2.1-3.4-3.2c-3.5-3.5-8.7-4.8-13.4-3.3c-60.1,18.9-110.7,59.4-142.3,114.1c-2.4,4.1-2.4,9.2,0,13.4
			C87.1,463.8,170.6,512,260,512s172.9-48.2,217.8-125.7C480.1,382.1,480.1,377.1,477.7,372.9z M79.9,394.8
			c-3.7-4.9-7.2-10-10.5-15.2c15.5-24.8,35.5-45.9,58.8-62.7c-14.1,16.6-27,35.7-38.4,57.3C86.3,380.8,83,387.8,79.9,394.8z
			 M268,485v-88.3c0-4.4-3.6-8-8-8c-4.4,0-8,3.6-8,8V485c-62-2.2-120.1-30.3-160.7-76.2c3.9-9.4,8.1-18.5,12.6-27.2
			c22-42.2,50-74.5,81.5-94.6c25.1,23.1,60.5,46.1,66.6,50v24.1c0,4.4,3.6,8,8,8c4.4,0,8-3.6,8-8v-24c6.7-4,38.3-23.4,66.6-50
			c32,20.4,60.3,53.4,82.4,96.5c4.1,8.1,8,16.6,11.6,25.2C388.2,454.8,330,482.8,268,485z M440.1,394.8c-2.8-6.3-5.8-12.5-8.9-18.5
			c-11.6-22.5-24.8-42.3-39.4-59.3c23.2,16.8,43.3,37.9,58.7,62.7C447.3,384.8,443.8,389.8,440.1,394.8z"/>
		<path class="st0" d="M260,263.6c58.2,0,105.5-47.3,105.5-105.5v-52.6C365.5,47.3,318.2,0,260,0c-58.2,0-105.5,47.3-105.5,105.5
			v52.6C154.5,216.3,201.8,263.6,260,263.6z M181.2,105.5c0-43.5,35.4-78.8,78.8-78.8c43.5,0,78.8,35.4,78.8,78.8v52.6
			c0,43.5-35.3,78.8-78.8,78.8c-43.5,0-78.8-35.4-78.8-78.8V105.5z"/>
		<path class="st0" d="M371.6,364.1h-8.2v-8.3c0-8.8-7.1-16-16-16l-24.6,0c0,0,0,0,0,0c-4.2,0-8.3,1.7-11.3,4.7
			c-3,3-4.7,7.1-4.7,11.3v8.3h-8.3c-8.8,0-16,7.2-16,16v24.6c0,8.8,7.2,16,16,16h8.3v8.3c0,8.8,7.2,16,16,16h24.6
			c8.8,0,16-7.2,16-16v-8.3h8.2c8.9,0,16-7.2,16-16v-24.6C387.6,371.3,380.4,364.1,371.6,364.1z M371.6,404.8h-24.2v24.3h-24.6
			v-24.3h-24.3v-24.6h24.3v-24.3h24.6v24.3h24.2V404.8z"/>
	</g>
</g>
</svg>
