<?xml version="1.0" encoding="utf-8"?>
<!-- Generator: Adobe Illustrator 22.1.0, SVG Export Plug-In . SVG Version: 6.00 Build 0)  -->
<svg version="1.1" id="图层_1" xmlns="http://www.w3.org/2000/svg" xmlns:xlink="http://www.w3.org/1999/xlink" x="0px" y="0px"
	 viewBox="0 0 512 512" style="enable-background:new 0 0 512 512;" xml:space="preserve">
<style type="text/css">
	.st0{fill:#040000;}
</style>
<path class="st0" d="M326.7,329.1h-56.9v-56.9c0-7.1-7.1-14.2-14.2-14.2c-7.1,0-14.2,7.1-14.2,14.2v56.9h-56.9
	c-7.1,0-14.2,7.1-14.2,14.2c0,7.1,7.1,14.2,14.2,14.2h56.9v56.9c0,7.1,7.1,14.2,14.2,14.2c7.1,0,14.2-7.1,14.2-14.2v-56.9h56.9
	c7.1,0,14.2-7.1,14.2-14.2C341,336.2,333.8,329.1,326.7,329.1z"/>
<path class="st0" d="M497.4,115.8H395l-8.5-72.5c-1.4-7.1-7.1-12.8-14.2-12.8H140.4c-7.1,0-12.8,5.7-14.2,12.8l-8.5,72.5H15.3
	C8.2,115.8,1,122.9,1,130v341.3c0,7.1,7.1,14.2,14.2,14.2h483.6c7.1,0,14.2-7.1,14.2-14.2V130C511.6,122.9,504.5,115.8,497.4,115.8z
	 M153.2,58.9h206.2l7.1,56.9H146.1L153.2,58.9z M28.1,144.2h455.1v56.9h-71.1v-14.2c0-7.1-7.1-14.2-14.2-14.2s-14.2,7.1-14.2,14.2
	v14.2h-256v-14.2c0-7.1-7.1-14.2-14.2-14.2s-14.2,7.1-14.2,14.2v14.2H28.1C28.1,201.1,28.1,144.2,28.1,144.2z M483.2,457.1H28.1
	V229.6h455.1V457.1z"/>
</svg>
