<?xml version="1.0" encoding="utf-8"?>
<!-- Generator: Adobe Illustrator 22.1.0, SVG Export Plug-In . SVG Version: 6.00 Build 0)  -->
<svg version="1.1" id="图层_1" xmlns="http://www.w3.org/2000/svg" xmlns:xlink="http://www.w3.org/1999/xlink" x="0px" y="0px"
	 viewBox="0 0 512 512" style="enable-background:new 0 0 512 512;" xml:space="preserve">
<style type="text/css">
	.st0{fill:#040000;}
</style>
<path class="st0" d="M472.3,1H45.7c-7.1,0-14.2,7.1-14.2,14.2v483.6c0,7.1,7.1,14.2,14.2,14.2h426.7c7.1,0,14.2-7.1,14.2-14.2V15.2
	C486.6,8.1,479.4,1,472.3,1z M372.8,29.4v85.3l-11.4-8.5l-17.1-12.8l-17.1,12.8l-11.4,8.5V29.4C315.9,29.4,372.8,29.4,372.8,29.4z
	 M59.9,484.6V29.4h56.9v455.1H59.9z M458.1,484.6H145.2V29.4h142.2v113.8c0,8.5,7.1,14.2,14.2,14.2c2.8,0,5.7-1.4,8.5-2.8l34.1-25.6
	l34.1,25.6c2.8,1.4,5.7,2.8,8.5,2.8c7.1,0,14.2-5.7,14.2-14.2V29.4h56.9C458.1,29.4,458.1,484.6,458.1,484.6z"/>
<path class="st0" d="M216.3,285.4h28.4v28.4c0,7.1,7.1,14.2,14.2,14.2c7.1,0,14.2-7.1,14.2-14.2v-28.4h28.4
	c7.1,0,14.2-7.1,14.2-14.2c0-7.1-7.1-14.2-14.2-14.2h-28.4v-28.4c0-7.1-7.1-14.2-14.2-14.2c-7.1,0-14.2,7.1-14.2,14.2V257h-28.4
	c-7.1,0-14.2,7.1-14.2,14.2C202.1,278.3,207.8,285.4,216.3,285.4z M401.2,356.6H216.3c-7.1,0-14.2,7.1-14.2,14.2s7.1,14.2,14.2,14.2
	h184.9c7.1,0,14.2-7.1,14.2-14.2S408.3,356.6,401.2,356.6z M401.2,413.4H216.3c-7.1,0-14.2,7.1-14.2,14.2c0,7.1,7.1,14.2,14.2,14.2
	h184.9c7.1,0,14.2-7.1,14.2-14.2C415.4,420.6,408.3,413.4,401.2,413.4z"/>
</svg>
