<?xml version="1.0" encoding="utf-8"?>
<!-- Generator: Adobe Illustrator 22.1.0, SVG Export Plug-In . SVG Version: 6.00 Build 0)  -->
<svg version="1.1" id="图层_1" xmlns="http://www.w3.org/2000/svg" xmlns:xlink="http://www.w3.org/1999/xlink" x="0px" y="0px"
	 viewBox="0 0 512 512" style="enable-background:new 0 0 512 512;" xml:space="preserve">
<style type="text/css">
	.st0{fill:#040000;}
</style>
<path class="st0" d="M287.4,71.1h-14.2V56.9c0-7.1-7.1-14.2-14.2-14.2c-7.1,0-14.2,7.1-14.2,14.2v14.2h-14.2
	c-7.1,0-14.2,7.1-14.2,14.2s7.1,14.2,14.2,14.2h14.2v14.2c0,7.1,7.1,14.2,14.2,14.2s14.2-7.1,14.2-14.2V99.6h14.2
	c7.1,0,14.2-7.1,14.2-14.2C301.7,78.2,294.6,71.1,287.4,71.1z"/>
<path class="st0" d="M355.7,302.9c28.4-25.6,45.5-62.6,45.5-103.8V37c0-5.7-2.8-11.4-8.5-12.8C374.2,17.1,324.4,0,259,0
	S145.2,17.1,125.3,24.2c-5.7,2.8-8.5,7.1-8.5,12.8v156.4c0,42.7,18.5,81.1,46.9,109.5C88.3,320,31.4,388.3,31.4,469.3
	c0,24.2,18.5,42.7,42.7,42.7h369.8c24.2,0,42.7-18.5,42.7-42.7C486.6,388.3,431.1,321.4,355.7,302.9z M259,467.9l-48.4-38.4
	L162.3,394l18.5-45.5l81.1,118L259,467.9z M202.1,328.5c14.2,7.1,29.9,11.4,46.9,11.4h10c19.9,0,39.8-4.3,56.9-12.8L260.4,411
	C260.4,411,202.1,328.5,202.1,328.5z M277.5,438l59.7-89.6l18.5,44.1l-48.4,37L284.6,448C284.6,448,277.5,438,277.5,438z M145.2,192
	c27-10,65.4-21.3,113.8-21.3c14.2,0,27,1.4,41.2,2.8c7.1,1.4,15.6-4.3,15.6-12.8c1.4-7.1-4.3-15.6-12.8-15.6
	c-14.2-1.4-29.9-2.8-44.1-2.8c-48.4,0-89.6,11.4-113.8,19.9V46.9c21.3-7.1,61.2-18.5,113.8-18.5s92.4,11.4,113.8,18.5v115.2
	c-4.3-1.4-10-2.8-15.6-5.7c-7.1-2.8-15.6,1.4-17.1,10c-2.8,7.1,1.4,15.6,10,17.1c8.5,2.8,17.1,5.7,24.2,8.5v7.1
	c0,62.6-51.2,113.8-113.8,113.8h-7.1c-59.7-4.3-106.7-55.5-106.7-118V192H145.2z M59.9,469.3c0-62.6,39.8-115.2,95.3-133.7
	l-18.5,46.9c-4.3,11.4-1.4,25.6,10,32.7l48.4,35.6l39.8,31.3H74.1C65.6,483.6,59.9,477.9,59.9,469.3z M443.9,483.6H308.8l-8.5-12.8
	l24.2-18.5l48.4-35.6c10-7.1,14.2-21.3,10-32.7l-18.5-46.9c55.5,19.9,95.3,72.5,95.3,133.7C458.1,477.9,452.4,483.6,443.9,483.6z"/>
</svg>
