<?xml version="1.0" encoding="utf-8"?>
<!-- Generator: Adobe Illustrator 22.1.0, SVG Export Plug-In . SVG Version: 6.00 Build 0)  -->
<svg version="1.1" id="图层_1" xmlns="http://www.w3.org/2000/svg" xmlns:xlink="http://www.w3.org/1999/xlink" x="0px" y="0px"
	 viewBox="0 0 512 512" style="enable-background:new 0 0 512 512;" xml:space="preserve">
<style type="text/css">
	.st0{fill:#040000;}
</style>
<g>
	<line class="st0" x1="117.4" y1="37.4" x2="117.4" y2="93.8"/>
	<line class="st0" x1="117.4" y1="127.4" x2="117.4" y2="497.4"/>
	<g>
		<path class="st0" d="M352.8,228h-31.2v-31.2c0-8.8-7.2-16-16-16l-47.9,0c-4.2,0-8.3,1.7-11.3,4.7c-3,3-4.7,7.1-4.7,11.3V228h-31.2
			c-8.9,0-16,7.2-16,16V292c0,8.8,7.2,16,16,16h31.2v31.2c0,8.8,7.2,16,16,16h48c8.8,0,16-7.2,16-16V308h31.2c8.8,0,16-7.2,16-16
			v-47.9C368.8,235.2,361.6,228,352.8,228z M352.8,292h-47.2v47.2h-48V292h-47.2v-47.9h47.2v-47.2h47.9l0,47.2h47.2V292z"/>
		<path class="st0" d="M446.6,17.8h-8.5C434.4,7.4,424.6,0,413,0h-56.3c-11.6,0-21.5,7.4-25.2,17.8H65.4c-14.7,0-26.7,12-26.7,26.7
			v440.8c0,14.7,12,26.7,26.7,26.7h381.2c14.7,0,26.7-12,26.7-26.7V44.5C473.3,29.7,461.4,17.8,446.6,17.8z M356.3,44.5h0.3V26.7
			h56.2v133.9L386.1,145l-29.7,15.6V44.5z M446.6,485.3H125.4V127.4c0-4.4-3.6-8-8-8c-4.4,0-8,3.6-8,8v357.9h-44V44.5h44v49.4
			c0,4.4,3.6,8,8,8c4.4,0,8-3.6,8-8V44.5h214.9v116.1c0,5.6,2.9,10.8,7.7,13.7c2.5,1.5,5.4,2.3,8.3,2.3c2.5,0,5.1-0.6,7.4-1.8
			l21.9-11.5l19.2,11.1c2.5,1.5,5.3,2.2,8.1,2.2c2.8,0,5.5-0.7,8-2.1c5-2.9,8-8.2,8-13.9V44.5h17.7V485.3z"/>
		<path class="st0" d="M296.2,439.3h-30.3c-4.4,0-8,3.6-8,8c0,4.4,3.6,8,8,8h30.3c4.4,0,8-3.6,8-8
			C304.2,442.9,300.6,439.3,296.2,439.3z"/>
		<path class="st0" d="M330.3,412.3h-98.4c-4.4,0-8,3.6-8,8c0,4.4,3.6,8,8,8h98.4c4.4,0,8-3.6,8-8
			C338.3,415.9,334.7,412.3,330.3,412.3z"/>
		<path class="st0" d="M86.7,431.2c-4.4,0-8,3.6-8,8v16.3c0,4.4,3.6,8,8,8c4.4,0,8-3.6,8-8v-16.3C94.7,434.8,91.1,431.2,86.7,431.2z
			"/>
		<path class="st0" d="M86.7,57.6c-4.4,0-8,3.6-8,8v11.3c0,4.4,3.6,8,8,8c4.4,0,8-3.6,8-8V65.6C94.7,61.2,91.1,57.6,86.7,57.6z"/>
		<path class="st0" d="M86.7,341.7c-4.4,0-8,3.6-8,8v61c0,4.4,3.6,8,8,8c4.4,0,8-3.6,8-8v-61C94.7,345.2,91.1,341.7,86.7,341.7z"/>
	</g>
</g>
</svg>
