<?xml version="1.0" encoding="utf-8"?>
<!-- Generator: Adobe Illustrator 22.1.0, SVG Export Plug-In . SVG Version: 6.00 Build 0)  -->
<svg version="1.1" id="图层_1" xmlns="http://www.w3.org/2000/svg" xmlns:xlink="http://www.w3.org/1999/xlink" x="0px" y="0px"
	 viewBox="0 0 512 512" style="enable-background:new 0 0 512 512;" xml:space="preserve">
<style type="text/css">
	.st0{fill:#040000;}
</style>
<g>
	<path class="st0" d="M352.3,294.4l23.6-23.6c6.2-6.2,6.2-16.3,0-22.5l-35.4-35.4c-3.1-3.1-7.2-4.7-11.2-4.7
		c-4.1,0-8.1,1.5-11.2,4.7l-23.6,23.6l-23.6-23.6c-3.1-3.1-7.2-4.7-11.3-4.7c-4.1,0-8.1,1.5-11.2,4.7l-35.4,35.4
		c-6.2,6.2-6.2,16.3,0,22.5l23.6,23.6L212.9,318c-6.2,6.2-6.2,16.3,0,22.5l35.4,35.4c3,3,7,4.7,11.2,4.7c4.2,0,8.3-1.7,11.2-4.7
		l23.6-23.6l23.6,23.6c3,3,7,4.7,11.2,4.7c4.2,0,8.3-1.7,11.2-4.7l35.4-35.4c6.2-6.2,6.2-16.3,0-22.5L352.3,294.4z M329.3,364.6
		l-34.9-34.9l-34.9,34.9l-35.4-35.4l34.9-34.9l-34.9-34.8l35.4-35.4l34.9,34.8l34.8-34.8l35.4,35.4l-34.8,34.9l34.9,34.8
		L329.3,364.6z"/>
	<path class="st0" d="M493.6,251.2L338.6,96.3c-18.4-18.4-51.4-31.8-78.3-31.8c-1.3,0-2.7,0-4,0.1L134.5,71c-5,0.3-9.9,1.2-14.6,2.5
		c-23.4-48.3-31-56-33.7-58.7C76.7,5.2,64,0,50.5,0l0,0C37,0,24.3,5.2,14.8,14.8C5.3,24.3,0,37,0,50.5C0,64,5.3,76.7,14.8,86.2
		c8,8,33,21.3,58.7,33.7c-1.3,4.7-2.2,9.5-2.5,14.5l-6.3,121.7c-1.4,27.5,12.2,63,31.7,82.5l154.9,154.9
		c11.9,11.9,27.7,18.4,44.6,18.4c16.9,0,32.7-6.5,44.6-18.4l153.1-153.2c11.9-11.9,18.4-27.7,18.4-44.6S505.5,263.1,493.6,251.2z
		 M79.6,105.2C54.1,92.8,32.2,81.1,26,75c-6.5-6.5-10.1-15.2-10.1-24.5c0-9.2,3.6-17.9,10.1-24.5c6.5-6.5,15.2-10.2,24.5-10.2l0,0
		c9.2,0,17.9,3.6,24.5,10.2c3.2,3.2,11.4,14.6,30.2,53.6C94.6,85.7,85.7,94.6,79.6,105.2z M474.8,321.7L321.7,474.8
		c-7.1,7.1-16.5,10.7-25.8,10.7c-9.4,0-18.7-3.6-25.8-10.7L115.1,319.9c-14.2-14.2-25-42.3-24-62.3l6.3-121.7
		c0.1-1.5,0.4-2.9,0.7-4.3c4.5,2.1,8.9,4.1,13,5.9c-1.7,9.9,1.3,20.5,8.9,28.1c6.1,6.1,14.2,9.5,22.8,9.5c8.6,0,16.7-3.4,22.8-9.5
		c12.6-12.6,12.6-33,0-45.6c-6.1-6.1-14.2-9.4-22.8-9.4c-8.6,0-16.7,3.3-22.8,9.4c-0.9,0.9-1.6,2-2.4,3c-4.5-2.1-9.1-4.2-13.7-6.3
		c7-10.8,18.8-18.5,32-19.2l121.7-6.3c0.9,0,1.8-0.1,2.8-0.1c19.8,0,46,10.4,59.6,24L474.8,270C489,284.2,489,307.5,474.8,321.7z
		 M146,135.5c-4.1-1.8-8.5-3.7-13-5.7c2.8-2.1,6.2-3.4,9.8-3.4c4.4,0,8.5,1.7,11.5,4.8c3.1,3.1,4.8,7.2,4.8,11.5
		c0,4.4-1.7,8.5-4.8,11.5c-6.2,6.2-16.9,6.2-23.1,0c-2.8-2.8-4.2-6.3-4.6-9.9c6.4,2.8,11.1,4.8,13,5.7c1,0.4,2.1,0.6,3.1,0.6
		c3.1,0,6-1.8,7.3-4.8C151.9,141.9,150,137.3,146,135.5z"/>
</g>
</svg>
