<?xml version="1.0" encoding="utf-8"?>
<!-- Generator: Adobe Illustrator 22.1.0, SVG Export Plug-In . SVG Version: 6.00 Build 0)  -->
<svg version="1.1" id="图层_1" xmlns="http://www.w3.org/2000/svg" xmlns:xlink="http://www.w3.org/1999/xlink" x="0px" y="0px"
	 viewBox="0 0 512 512" style="enable-background:new 0 0 512 512;" xml:space="preserve">
<style type="text/css">
	.st0{fill:#040000;}
</style>
<path class="st0" d="M507.7,302c-72.3-70.8-146.1-94.9-226-70.8c24.1-79.8,0-153.7-72.3-226c-6-6-15.1-6-21.1,0s-6,15.1,0,21.1
	c70.8,70.8,88.9,140.1,55.7,218.4C165.7,276.4,96.4,259.8,25.6,189c-6-6-15.1-6-21.1,0c-6,6-6,15.1,0,21.1
	c54.2,54.2,108.5,79.8,167.2,79.8c19.6,0,39.2-3,58.7-9c-24.1,79.8,0,153.7,70.8,226c3,3,7.5,4.5,10.5,4.5c4.5,0,7.5-1.5,10.5-4.5
	c6-6,6-15.1,0-21.1c-70.8-70.8-88.9-140.1-55.7-218.4c78.3-31.6,147.6-15.1,218.4,55.7c3,3,7.5,4.5,10.5,4.5c4.5,0,7.5-1.5,10.5-4.5
	C513.7,317,513.7,308,507.7,302z"/>
<path class="st0" d="M140.1,235.7c3,3,7.5,4.5,10.5,4.5c3,0,7.5-1.5,10.5-4.5l75.3-75.3c6-6,6-15.1,0-21.1c-6-6-15.1-6-21.1,0
	l-75.3,75.3C134.1,219.1,134.1,229.7,140.1,235.7z M90.4,208.6c4.5,0,7.5-1.5,10.5-4.5L206.4,98.6c6-6,6-15.1,0-21.1
	c-6-6-15.1-6-21.1,0L79.8,183c-6,6-6,15.1,0,21.1C82.8,207.1,85.9,208.6,90.4,208.6z M372.1,273.3c-6-6-15.1-6-21.1,0l-75.3,75.3
	c-6,6-6,15.1,0,21.1c3,3,7.5,4.5,10.5,4.5c3,0,7.5-1.5,10.5-4.5l75.3-75.3C378.1,289.9,378.1,279.4,372.1,273.3z M411.2,303.5
	L305.8,408.9c-6,6-6,15.1,0,21.1c3,3,7.5,4.5,10.5,4.5c3,0,7.5-1.5,10.5-4.5l105.4-105.4c6-6,6-15.1,0-21.1
	C426.3,297.4,417.3,297.4,411.2,303.5z"/>
</svg>
