<?xml version="1.0" encoding="utf-8"?>
<!-- Generator: Adobe Illustrator 22.1.0, SVG Export Plug-In . SVG Version: 6.00 Build 0)  -->
<svg version="1.1" id="图层_1" xmlns="http://www.w3.org/2000/svg" xmlns:xlink="http://www.w3.org/1999/xlink" x="0px" y="0px"
	 viewBox="0 0 512 512" style="enable-background:new 0 0 512 512;" xml:space="preserve">
<style type="text/css">
	.st0{fill:#040000;}
</style>
<path class="st0" d="M448,86.3H149.3c-35.2,0-64,28.8-64,64V449c0,35.2,28.8,64,64,64H448c35.2,0,64-28.8,64-64V150.3
	C512,115.1,483.2,86.3,448,86.3 M448,129c11.6,0,21.3,9.8,21.3,21.3V449c0,11.6-9.8,21.3-21.3,21.3H149.3
	c-11.6,0-21.3-9.8-21.3-21.3V150.3c0-11.6,9.8-21.3,21.3-21.3L448,129"/>
<path class="st0" d="M85.3,385H64c-11.6,0-21.3-9.8-21.3-21.3V65c0-11.6,9.8-21.3,21.3-21.3h298.7c11.6,0,21.3,9.8,21.3,21.3v21.2
	h42.7V65c0-35.2-28.8-64-64-64H64C28.8,1,0,29.8,0,65v298.7c0,35.2,28.8,64,64,64h21.3V385z"/>
<path class="st0" d="M277.3,385V214.3c0-11.7,9.6-21.3,21.3-21.3s21.3,9.6,21.3,21.3V385c0,11.7-9.6,21.3-21.3,21.3
	S277.3,396.7,277.3,385"/>
<path class="st0" d="M384,321H213.3c-11.7,0-21.3-9.6-21.3-21.3s9.6-21.3,21.3-21.3H384c11.7,0,21.3,9.6,21.3,21.3
	S395.7,321,384,321"/>
</svg>
