<?xml version="1.0" encoding="utf-8"?>
<!-- Generator: Adobe Illustrator 22.1.0, SVG Export Plug-In . SVG Version: 6.00 Build 0)  -->
<svg version="1.1" id="图层_1" xmlns="http://www.w3.org/2000/svg" xmlns:xlink="http://www.w3.org/1999/xlink" x="0px" y="0px"
	 viewBox="0 0 512 512" style="enable-background:new 0 0 512 512;" xml:space="preserve">
<style type="text/css">
	.st0{fill:#040000;}
</style>
<g>
	<g>
		<path class="st0" d="M499.8,369.3L448,335.7l-7.3-250.6c-0.4-25.3-27.8-36.1-68.7-44.5c-34.9-7.1-76.5-11-117.4-11
			c-40.8,0-82,3.9-116,11.1c-40,8.4-66.8,19.2-67.2,44.5L64,335.7l-51.8,33.6C4.6,374.3,0,382.8,0,391.9v55.7
			c0,14.9,12,26.9,26.9,26.9h458.2c14.9,0,26.9-12,26.9-26.9v-55.7C512,382.8,507.4,374.3,499.8,369.3z M98.2,85.6
			c0-10.9,70-29.2,156.3-29.2c86.3,0,159.2,18.3,159.2,29.2l7.3,249.1H91L98.2,85.6z M485.1,447.6H26.9v-47.4h323.7
			c4.4,0,8.1-3.6,8.1-8.1c0-4.4-3.6-8.1-8.1-8.1H38.9l51.2-33.3h331.8l51.2,33.3h-61.6c-4.4,0-8.1,3.6-8.1,8.1
			c0,4.5,3.6,8.1,8.1,8.1h73.6V447.6z"/>
		<path class="st0" d="M316.2,158.8h-23.8v-23.8c0-8.9-7.2-16.1-16.1-16.1h-40.5c-8.9,0-16.1,7.2-16.1,16.1v23.8h-23.8
			c-8.9,0-16.1,7.2-16.1,16.1v40.5c0,8.9,7.2,16.1,16.1,16.1h23.8v23.8c0,8.9,7.2,16.1,16.1,16.1h40.5c8.9,0,16.1-7.2,16.1-16.1
			v-23.8h23.8c8.9,0,16.1-7.2,16.1-16.1V175C332.3,166.1,325.1,158.8,316.2,158.8z M316.2,215.5h-39.9v39.9h-40.5v-39.9h-39.9V175
			h39.9v-39.9h40.5V175h39.9V215.5z"/>
	</g>
</g>
</svg>
