<?xml version="1.0" encoding="utf-8"?>
<!-- Generator: Adobe Illustrator 22.1.0, SVG Export Plug-In . SVG Version: 6.00 Build 0)  -->
<svg version="1.1" id="图层_1" xmlns="http://www.w3.org/2000/svg" xmlns:xlink="http://www.w3.org/1999/xlink" x="0px" y="0px"
	 viewBox="0 0 512 512" style="enable-background:new 0 0 512 512;" xml:space="preserve">
<style type="text/css">
	.st0{fill:#3D3D3D;}
</style>
<g>
	<g>
		<path class="st0" d="M371,7.5c10.3-10.3,27.3-10,38.2,0.9L467.8,67c10.8,10.8,11.2,27.9,0.9,38.2L180,393.9
			c-5.1,5.1-15,10.9-22.2,12.8l-93.1,25.4c-14.2,3.9-22.7-4.6-19.2-18.8l24.1-95.1c1.8-7.1,7.5-17.1,12.6-22.1L371,7.5L371,7.5z
			 M101.8,315.7c-1.9,1.9-5.3,7.8-5.9,10.4l-18.9,74.4l72.5-19.8c2.9-0.8,8.8-4.2,10.9-6.3L449.2,85.7L390.6,27L101.8,315.7z
			 M370.1,47.5l58.6,58.6l-19.6,19.6L350.5,67L370.1,47.5L370.1,47.5z M135.5,282l58.6,58.6l-19.5,19.5L116,301.6L135.5,282
			L135.5,282z M38.3,498.2c0-7.6,6.1-13.8,13.9-13.8h428.3c7.6,0,13.8,6.2,13.8,13.8c0,7.6-6.2,13.8-13.8,13.8H52.2
			c-3.7,0-7.2-1.4-9.8-4C39.8,505.4,38.3,501.9,38.3,498.2L38.3,498.2z M38.3,498.2"/>
	</g>
</g>
</svg>
