<?xml version="1.0" encoding="utf-8"?>
<!-- Generator: Adobe Illustrator 22.1.0, SVG Export Plug-In . SVG Version: 6.00 Build 0)  -->
<svg version="1.1" id="图层_1" xmlns="http://www.w3.org/2000/svg" xmlns:xlink="http://www.w3.org/1999/xlink" x="0px" y="0px"
	 viewBox="0 0 512 512" style="enable-background:new 0 0 512 512;" xml:space="preserve">
<g>
	<g>
		<path d="M353.5,73.2V36.6c0-20.2-17.6-36.6-39.4-36.6H196c-21.8,0-39.4,16.4-39.4,36.6v36.6H-0.9v36.6h59.1v365.7
			c0,20.2,17.7,36.6,39.4,36.6h315.1c21.8,0,39.4-16.4,39.4-36.6V109.8h59.1V73.2H353.5z M196,36.6h118.1v36.6H196V36.6z
			 M412.6,475.5H97.5V109.8h315.1V475.5z M156.6,164.6H196v256h-39.4V164.6z M235.4,164.6h39.4v256h-39.4V164.6z M314.1,164.6h39.4
			v256h-39.4V164.6z M314.1,164.6"/>
	</g>
</g>
</svg>
