<svg xmlns="http://www.w3.org/2000/svg" viewBox="0 0 64 64"><title>医疗维度</title><path d="M625.847,326.308H568.708V269.172a2.287,2.287,0,1,0-4.574,0V328.6a2.286,2.286,0,0,0,2.287,2.287h59.426a2.289,2.289,0,0,0,0-4.577Z" transform="translate(-564.134 -266.885)"/><path d="M582.505,311.287a3.891,3.891,0,1,0,3.891,3.891,3.734,3.734,0,0,0-.428-1.764l6.747-11.01,3.362.983,9.05,6.639a2.05,2.05,0,0,0,1.5.379l5.437-.839.229.258a3.9,3.9,0,0,0,5.508-5.515,3.9,3.9,0,0,0-6.345,1.245l-4.613.7-8.648-6.338h-.007a1.776,1.776,0,0,0-.63-.3l-2.65-.781,2.692-4.391,7.583,5.195a2.019,2.019,0,0,0,2.816-.523c.046-.082.085-.14.121-.2l7.044-12.412a3.9,3.9,0,0,0-.121-7.8,3.9,3.9,0,0,0-3.894,3.891,3.965,3.965,0,0,0,.49,1.905l-5.992,10.549-7.515-5.155-.084-.039a2.039,2.039,0,0,0-2.787.66l-4.388,7.158-4.61-1.343a3.894,3.894,0,1,0-3.757,4.914,3.845,3.845,0,0,0,2.627-1.023l3.545,1.023-6.162,10.046Z" transform="translate(-564.134 -266.885)"/><path d="M580.182,312.769" transform="translate(-564.134 -266.885)" style="fill:#0694ff"/></svg>