<svg xmlns="http://www.w3.org/2000/svg" viewBox="0 0 181.471 176.758"><title>告警 (1)</title><path d="M403.4,328.722a7.941,7.941,0,0,0,7.931-7.932V262.068a7.931,7.931,0,1,0-15.861,0V320.79a7.941,7.941,0,0,0,7.93,7.932Zm0,10.263a11.193,11.193,0,1,0,7.914,3.278,11.282,11.282,0,0,0-7.914-3.278Zm0,0" transform="translate(-312.656 -209.376)"/><path d="M478.279,385.852H328.5a15.473,15.473,0,0,1-13.7-8.65,18.52,18.52,0,0,1,0-17.3l74.887-141.836a15.179,15.179,0,0,1,27.407,0L491.982,359.9a18.518,18.518,0,0,1,0,17.3,15.472,15.472,0,0,1-13.7,8.651Zm-74.887-163.1a3.494,3.494,0,0,0-3.142,1.983L325.362,366.566a4.214,4.214,0,0,0,0,3.967,3.549,3.549,0,0,0,3.142,1.985H478.279a3.547,3.547,0,0,0,3.141-1.985,4.205,4.205,0,0,0,0-3.967L406.533,224.73a3.492,3.492,0,0,0-3.141-1.983Zm0,0" transform="translate(-312.656 -209.376)"/><rect x="0.035" width="181.417" height="176.758" style="fill:none"/></svg>