<?xml version="1.0" encoding="utf-8"?>
<!-- Generator: Adobe Illustrator 22.1.0, SVG Export Plug-In . SVG Version: 6.00 Build 0)  -->
<svg version="1.1" id="图层_1" xmlns="http://www.w3.org/2000/svg" xmlns:xlink="http://www.w3.org/1999/xlink" x="0px" y="0px"
	 viewBox="0 0 512 512" style="enable-background:new 0 0 512 512;" xml:space="preserve">
<style type="text/css">
	.st0{fill:#00A0E9;}
</style>
<g>
	<g>
		<path class="st0" d="M384,213.6c19.8,0.4,38.3-11.7,48.4-31.7c10-20,10-44.8,0-64.8c-10-20-28.5-32.1-48.4-31.7
			c-29.9,0.6-53.9,29.2-53.9,64.1C330.1,184.5,354.1,213,384,213.6L384,213.6z M480,0H32C14.2,0,0,17,0,37.8v437.1
			c0,20.8,14.2,37.8,32,37.8h448c17.8,0,32-17,32-37.8V37.8C512,17,497.8,0,480,0L480,0z M362.2,264c-3.6-5.1-9-8.1-14.6-8.3
			c-5.8,0-9.9,3.2-14.6,7.6l-21.4,21.1c-4.5,3.7-8,6.3-13.1,6.3c-4.6,0-9.1-1.9-12.6-5.5c-1.7-1.8-3.3-3.6-4.9-5.5L219.5,202
			c-4.8-6.4-11.8-10.1-19.1-10c-7.7,0-14.7,4.4-19.2,10.4L36.6,406.2V58.4c1.1-9.1,7.2-15.6,15-15.6h408.8c7.9,0,14.3,6.8,14.7,16
			l0.3,347.7L362.2,264L362.2,264z M362.2,264"/>
	</g>
</g>
</svg>
