<?xml version="1.0" encoding="utf-8"?>
<!-- Generator: Adobe Illustrator 22.1.0, SVG Export Plug-In . SVG Version: 6.00 Build 0)  -->
<svg version="1.1" id="图层_1" xmlns="http://www.w3.org/2000/svg" xmlns:xlink="http://www.w3.org/1999/xlink" x="0px" y="0px"
	 viewBox="0 0 18 18" style="enable-background:new 0 0 18 18;" xml:space="preserve">
<path d="M15.8,3H5.3C4,3,3,4,3,5.3v10.5C3,17,4,18,5.3,18h10.5c1.2,0,2.3-1,2.3-2.3V5.3C18,4,17,3,15.8,3 M15.8,4.5
	c0.4,0,0.8,0.3,0.8,0.8v10.5c0,0.4-0.3,0.8-0.8,0.8H5.3c-0.4,0-0.8-0.3-0.8-0.8V5.3c0-0.4,0.3-0.8,0.8-0.8L15.8,4.5"/>
<path d="M3,13.5H2.3c-0.4,0-0.8-0.3-0.8-0.8V2.3c0-0.4,0.3-0.8,0.8-0.8h10.5c0.4,0,0.8,0.3,0.8,0.8V3H15V2.3C15,1,14,0,12.8,0H2.3
	C1,0,0,1,0,2.3v10.5C0,14,1,15,2.3,15H3V13.5z"/>
<path d="M9.8,13.5v-6c0-0.4,0.3-0.8,0.8-0.8c0.4,0,0.8,0.3,0.8,0.8v6c0,0.4-0.3,0.8-0.8,0.8C10.1,14.3,9.8,13.9,9.8,13.5"/>
<path d="M13.5,11.3h-6c-0.4,0-0.8-0.3-0.8-0.8c0-0.4,0.3-0.8,0.8-0.8h6c0.4,0,0.8,0.3,0.8,0.8C14.3,10.9,13.9,11.3,13.5,11.3"/>
</svg>
