<?xml version="1.0" encoding="utf-8"?>
<!-- Generator: Adobe Illustrator 22.1.0, SVG Export Plug-In . SVG Version: 6.00 Build 0)  -->
<svg version="1.1" id="图层_1" xmlns="http://www.w3.org/2000/svg" xmlns:xlink="http://www.w3.org/1999/xlink" x="0px" y="0px"
	 viewBox="0 0 512 512" style="enable-background:new 0 0 512 512;" xml:space="preserve">
<style type="text/css">
	.st0{clip-path:url(#SVGID_2_);fill:#00A0E9;}
	.st1{fill:#00A0E9;}
</style>
<g>
	<g>
		<defs>
			<rect id="SVGID_1_" x="-0.1" y="0.1" width="512" height="512.5"/>
		</defs>
		<clipPath id="SVGID_2_">
			<use xlink:href="#SVGID_1_"  style="overflow:visible;"/>
		</clipPath>
		<path class="st0" d="M255.6,240.2V16.4c0-9.6-6.4-16-16-16C108.6,0.4-0.2,109.1-0.2,240.2c0,9.6,6.4,16,16,16h223.8
			C249.2,256.2,255.6,249.8,255.6,240.2L255.6,240.2z M223.7,224.2H31.8C38.2,121.9,121.3,42,223.7,32.4V224.2z M223.7,224.2"/>
	</g>
	<path class="st1" d="M271.6,32.4v32c115.1,0,207.8,92.7,207.8,207.8c0,115.1-92.7,207.8-207.8,207.8
		c-115.1,0-207.8-92.7-207.8-207.8h-32C31.8,403.3,140.5,512,271.6,512c131.1,0,239.8-108.7,239.8-239.8
		C511.4,141.1,402.7,32.4,271.6,32.4L271.6,32.4z M271.6,32.4"/>
</g>
</svg>
