<svg xmlns="http://www.w3.org/2000/svg" xmlns:xlink="http://www.w3.org/1999/xlink" viewBox="0 0 181.35 181.089"><defs><clipPath id="a" transform="translate(-313.202 -207.144)"><rect x="313.231" y="207.047" width="181.417" height="181.417" style="fill:none"/></clipPath></defs><title>指标</title><g style="clip-path:url(#a)"><path d="M403.78,207.144A88.063,88.063,0,0,1,439.1,214.3a91.069,91.069,0,0,1,48.29,48.219,90.44,90.44,0,0,1,0,70.541,91.863,91.863,0,0,1-19.451,28.8A90.667,90.667,0,0,1,439.1,381.178a89.114,89.114,0,0,1-35.321,7.055,88.081,88.081,0,0,1-31.451-5.606,94.761,94.761,0,0,1-26.805-15.461L367.588,320.2q4.064,6.572,7.548,12.175,2.9,4.833,5.806,9.18t4.065,5.9q2.128,2.7,3.967,5.025a7.333,7.333,0,0,0,5.129,2.705q4.065.579,5.806-1.449a50.308,50.308,0,0,0,3.871-5.315,35.852,35.852,0,0,0,2.227-4.059q1.644-3.285,3.967-8.117t5.226-10.726q2.9-5.895,5.806-12.079,6.773-14.3,15.1-31.889l20.516,11.017-8.323-59.72-52.643,32.276,23.031,7.924L394.3,323.1q-5.611-9.082-9.677-15.848-1.741-2.9-3.387-5.507t-2.805-4.542l-1.743-2.9q.776,1.545.1.483t-2.225-3a47.287,47.287,0,0,0-3.485-3.865A5.441,5.441,0,0,0,367.394,286q-4.45,0-6.386,2.223a17.8,17.8,0,0,0-3.1,5.122q-.387.773-1.935,4.155t-4.065,8.407q-2.517,5.025-5.419,11.209L340.3,329.094q-2.9,6.183-5.612,11.789t-4.645,9.47a88.128,88.128,0,0,1-12.484-24.545,89.709,89.709,0,0,1-4.355-28.024,88.779,88.779,0,0,1,7.064-35.27,90.557,90.557,0,0,1,19.355-28.8A92.025,92.025,0,0,1,368.458,214.3a88.078,88.078,0,0,1,35.322-7.151Zm0,0" transform="translate(-313.202 -207.144)"/></g></svg>