<?xml version="1.0" encoding="utf-8"?>
<!-- Generator: Adobe Illustrator 22.1.0, SVG Export Plug-In . SVG Version: 6.00 Build 0)  -->
<svg version="1.1" id="图层_1" xmlns="http://www.w3.org/2000/svg" xmlns:xlink="http://www.w3.org/1999/xlink" x="0px" y="0px"
	 viewBox="0 0 512 512" style="enable-background:new 0 0 512 512;" xml:space="preserve">
<g>
	<g>
		<path d="M310.2,475.8H85.5c-13.2,0-25.8-5.2-35.1-14.5c-9.3-9.3-14.5-21.9-14.5-35.1V86.6c0-13.2,5.2-25.8,14.5-35.1
			c9.3-9.3,21.9-14.6,35.1-14.6h339.6c13.2,0,25.8,5.2,35.1,14.5c9.4,9.4,14.5,21.8,14.5,35.1L474,311.2v0.1
			c0.1,10,8.2,18.1,18.3,18.1c10,0,18.2-8,18.3-18.1l0.8-224.7v-0.1c0-22.9-9.1-44.8-25.2-61C469.9,9.5,448,0.4,425.1,0.4H85.5
			c-22.9,0-44.8,9.1-61,25.2C8.4,41.8-0.6,63.7-0.6,86.6v339.6c0,22.9,9,44.8,25.2,61c16.2,16.2,38.1,25.2,61,25.2h224.7
			c10.1,0,18.3-8.2,18.3-18.3C328.5,484,320.3,475.8,310.2,475.8L310.2,475.8z M310.2,475.8"/>
		<path d="M506,481.2l-69.8-69.8c33.1-46.5,25-110.7-18.6-147.6c-43.6-36.9-108.2-34.2-148.6,6.2s-43.1,105-6.2,148.6
			c36.9,43.6,101,51.7,147.6,18.6l69.8,69.8c7.1,7.1,18.7,7.1,25.8,0C513.2,499.9,513.2,488.3,506,481.2L506,481.2z M346.9,421
			c-34.9,0-64.9-24.7-71.8-58.9c-6.8-34.2,11.5-68.5,43.8-81.9c32.2-13.4,69.4-2.1,88.8,26.9c19.4,29,15.6,67.7-9.1,92.4
			C384.9,413.4,366.3,421.1,346.9,421L346.9,421z M401.7,165.1c10.1,0,18.3-8.2,18.3-18.3c0-10.1-8.2-18.3-18.3-18.3l-292.6-0.1
			c-10.1,0-18.3,8.2-18.3,18.3c0,10.1,8.2,18.3,18.3,18.3L401.7,165.1z M218.9,274.7c6.5,0,12.6-3.5,15.8-9.1
			c3.3-5.7,3.3-12.6,0-18.3c-3.3-5.7-9.3-9.1-15.8-9.1H109.1c-10.1,0-18.3,8.2-18.3,18.3c0,10.1,8.2,18.3,18.3,18.3L218.9,274.7z
			 M109.1,347.8c-10.1,0-18.3,8.2-18.3,18.3s8.2,18.3,18.3,18.3l73.1,0c6.6,0.1,12.7-3.4,16-9.1c3.3-5.7,3.3-12.7,0-18.4
			c-3.3-5.7-9.4-9.1-16-9.1L109.1,347.8z M109.1,347.8"/>
	</g>
</g>
</svg>
