<?xml version="1.0" encoding="utf-8"?>
<!-- Generator: Adobe Illustrator 22.1.0, SVG Export Plug-In . SVG Version: 6.00 Build 0)  -->
<svg version="1.1" id="图层_1" xmlns="http://www.w3.org/2000/svg" xmlns:xlink="http://www.w3.org/1999/xlink" x="0px" y="0px"
	 viewBox="0 0 512 512" style="enable-background:new 0 0 512 512;" xml:space="preserve">
<g>
	<g>
		<path d="M488.7,512H23.3C10.4,512,0,501.6,0,488.7V23.3C0,10.4,10.4,0,23.3,0h465.5C501.6,0,512,10.4,512,23.3v465.5
			C512,501.6,501.6,512,488.7,512L488.7,512z M465.5,69.8c0-12.9-10.4-23.3-23.3-23.3H69.8C57,46.5,46.5,57,46.5,69.8v69.8h418.9
			V69.8z M465.5,186.2H46.5v256c0,12.9,10.4,23.3,23.3,23.3h372.4c12.9,0,23.3-10.4,23.3-23.3V186.2z M418.9,442.2h-46.5
			c-12.9,0-23.3-10.4-23.3-23.3c0-12.9,10.4-23.3,23.3-23.3h46.5c12.9,0,23.3,10.4,23.3,23.3C442.2,431.8,431.8,442.2,418.9,442.2
			L418.9,442.2z M418.9,349.1h-46.5c-12.9,0-23.3-10.4-23.3-23.3c0-12.9,10.4-23.3,23.3-23.3h46.5c12.9,0,23.3,10.4,23.3,23.3
			C442.2,338.7,431.8,349.1,418.9,349.1L418.9,349.1z M418.9,256h-46.5c-12.9,0-23.3-10.4-23.3-23.3c0-12.9,10.4-23.3,23.3-23.3
			h46.5c12.9,0,23.3,10.4,23.3,23.3C442.2,245.6,431.8,256,418.9,256L418.9,256z M302.5,418.9H93.1c-12.9,0-23.3-10.4-23.3-23.3
			c0-12.9,10.4-23.3,23.3-23.3h209.5c12.9,0,23.3,10.4,23.3,23.3C325.8,408.5,315.4,418.9,302.5,418.9L302.5,418.9z M302.5,349.1
			H93.1c-12.9,0-23.3-10.4-23.3-23.3c0-12.9,10.4-23.3,23.3-23.3h209.5c12.9,0,23.3,10.4,23.3,23.3
			C325.8,338.7,315.4,349.1,302.5,349.1L302.5,349.1z M302.5,279.3H93.1c-12.9,0-23.3-10.4-23.3-23.3c0-12.9,10.4-23.3,23.3-23.3
			h209.5c12.9,0,23.3,10.4,23.3,23.3C325.8,268.9,315.4,279.3,302.5,279.3L302.5,279.3z M279.3,69.8c12.9,0,23.3,10.4,23.3,23.3
			c0,12.9-10.4,23.3-23.3,23.3S256,106,256,93.1C256,80.2,266.4,69.8,279.3,69.8L279.3,69.8z M349.1,69.8
			c12.9,0,23.3,10.4,23.3,23.3c0,12.9-10.4,23.3-23.3,23.3c-12.9,0-23.3-10.4-23.3-23.3C325.8,80.2,336.2,69.8,349.1,69.8
			L349.1,69.8z M418.9,69.8c12.9,0,23.3,10.4,23.3,23.3c0,12.9-10.4,23.3-23.3,23.3c-12.9,0-23.3-10.4-23.3-23.3
			C395.6,80.2,406.1,69.8,418.9,69.8L418.9,69.8z M418.9,69.8"/>
	</g>
</g>
</svg>
