<svg xmlns="http://www.w3.org/2000/svg" viewBox="0 0 181.417 181.417"><title>科室</title><rect x="36.283" y="119.054" width="48.376" height="11.342"/><path d="M6032.136,3102.459v-17h-12.1v17H6001.9v11.34h18.142v17.006h12.1V3113.8h18.14v-11.34Zm0,0" transform="translate(-5965.616 -3057.105)"/><rect x="36.283" y="90.709" width="48.376" height="11.336"/><rect x="139.088" y="119.056" width="12.093" height="11.34"/><path d="M6129.4,3119.468h-42.838v-44.409c0-11.653-5.54-17.954-18.138-17.954h-84.163c-12.76,0-18.642,6.615-18.642,17.008v164.41h181.418V3136c0-11.178-5.71-16.533-17.637-16.533Zm-54.931,0v107.718h-24.19v-22.677H6001.9v22.677h-24.19v-147.4c0-6.143,4.536-11.339,12.1-11.339h72.566c6.553,0,12.094,5.2,12.094,11.339v39.685Zm60.47,107.718H6116.8v-22.677H6104.7v22.677h-18.145v-96.377h36.284c6.051,0,12.093,5.195,12.093,11.335v85.042Zm0,0" transform="translate(-5965.616 -3057.105)"/><rect x="139.088" y="90.712" width="12.093" height="11.336"/></svg>