<svg id="图层_1" data-name="图层 1" xmlns="http://www.w3.org/2000/svg" xmlns:xlink="http://www.w3.org/1999/xlink" viewBox="0 0 511.58 479.6"><defs><style>.cls-1{fill:none;}.cls-2{clip-path:url(#clip-path);}</style><clipPath id="clip-path" transform="translate(-143.86 -61.01)"><rect class="cls-1" x="143.94" y="60.39" width="512" height="480.23"/></clipPath></defs><title>自定义</title><g class="cls-2"><path d="M175.84,125.15v95.54A31.93,31.93,0,0,0,208,252.85h95.54a31.94,31.94,0,0,0,32.17-32.16V125.15A32,32,0,0,0,303.54,93H208a31.94,31.94,0,0,0-32.16,32.17Zm-32,0A63.91,63.91,0,0,1,208,61h95.54a63.91,63.91,0,0,1,64.14,64.14v95.54a63.92,63.92,0,0,1-64.14,64.13H208a63.92,63.92,0,0,1-64.13-64.13Zm32,255.79v95.53A31.94,31.94,0,0,0,208,508.64h95.54a32,32,0,0,0,32.17-32.17V380.94a32,32,0,0,0-32.17-32.17H208a31.94,31.94,0,0,0-32.16,32.17Zm-32,0A63.91,63.91,0,0,1,208,316.8h95.54a63.91,63.91,0,0,1,64.14,64.14v95.53a63.92,63.92,0,0,1-64.14,64.14H208a63.92,63.92,0,0,1-64.13-64.14Zm0,0" transform="translate(-143.86 -61.01)"/></g><rect x="287.76" y="31.97" width="223.81" height="31.97"/><rect x="287.76" y="159.87" width="223.81" height="31.97"/><rect x="287.76" y="287.76" width="223.81" height="31.97"/><rect x="287.76" y="415.66" width="223.81" height="31.97"/></svg>