<?xml version="1.0" encoding="utf-8"?>
<!-- Generator: Adobe Illustrator 22.1.0, SVG Export Plug-In . SVG Version: 6.00 Build 0)  -->
<svg version="1.1" id="图层_1" xmlns="http://www.w3.org/2000/svg" xmlns:xlink="http://www.w3.org/1999/xlink" x="0px" y="0px"
	 viewBox="0 0 512 512" style="enable-background:new 0 0 512 512;" xml:space="preserve">
<style type="text/css">
	.st0{clip-path:url(#SVGID_2_);fill:#1296DB;}
	.st1{fill:#1296DB;}
</style>
<g>
	<g>
		<defs>
			<rect id="SVGID_1_" x="-0.1" y="0.1" width="512" height="512.5"/>
		</defs>
		<clipPath id="SVGID_2_">
			<use xlink:href="#SVGID_1_"  style="overflow:visible;"/>
		</clipPath>
		<rect x="-0.2" y="0.4" class="st0" width="511.6" height="127.9"/>
		<rect x="-0.2" y="0.4" class="st0" width="32" height="511.6"/>
		<path class="st0" d="M-0.2,480h511.6v32H-0.2V480z M-0.2,0.4h511.6v32H-0.2V0.4z M-0.2,0.4"/>
	</g>
	<path class="st1" d="M479.5,0.4h32V512h-32V0.4z M31.8,224.2h447.7v32H31.8V224.2z M31.8,224.2"/>
	<path class="st1" d="M159.7,128.3h32V480h-32V128.3z M319.6,128.3h32V480h-32V128.3z M319.6,128.3"/>
	<rect x="31.8" y="352.1" class="st1" width="447.7" height="32"/>
</g>
</svg>
