<?xml version="1.0" encoding="utf-8"?>
<!-- Generator: Adobe Illustrator 22.1.0, SVG Export Plug-In . SVG Version: 6.00 Build 0)  -->
<svg version="1.1" id="图层_1" xmlns="http://www.w3.org/2000/svg" xmlns:xlink="http://www.w3.org/1999/xlink" x="0px" y="0px"
	 viewBox="0 0 512 512" style="enable-background:new 0 0 512 512;" xml:space="preserve">
<style type="text/css">
	.st0{fill:#040000;}
</style>
<g>
	<g>
		<path class="st0" d="M355.8,229.3h-32.8v-32.9c0-9-7.3-16.2-16.2-16.2l-49.9,0c-4.3,0-8.4,1.7-11.5,4.8c-3,3-4.7,7.2-4.7,11.5
			v32.9h-32.9c-9,0-16.2,7.3-16.2,16.2v49.8c0,9,7.3,16.2,16.2,16.2h32.9v32.9c0,9,7.3,16.2,16.2,16.2h49.8c9,0,16.2-7.3,16.2-16.2
			v-32.9h32.8c9,0,16.2-7.3,16.2-16.2v-49.8C372,236.6,364.8,229.3,355.8,229.3z M355.8,295.4l-49.1,0v49.1h-49.8v-49.1h-49.1v-49.8
			h49.1v-49.1h49.8v49.1h49.1V295.4z"/>
		<path class="st0" d="M498.5,108h-270c-4.2-32.8-25.1-52-57.8-52H13.5C6.1,56,0,62.1,0,69.5v351.3c0,21.7,17.6,39.3,39.3,39.3
			c0,0,0.1,0,0.1,0c0,0,0.1,0,0.1,0h433.3c21.7,0,39.3-17.6,39.3-39.3V121.5C512,114,505.9,108,498.5,108z M51.7,121.5v299.3
			c0,6.7-5.5,12.2-12.2,12.2c0,0-0.1,0-0.1,0c0,0-0.1,0-0.1,0c-6.7,0-12.2-5.5-12.2-12.2V83.1h143.6c17.3,0,27.2,8.3,30.4,24.9H65.2
			C57.7,108,51.7,114,51.7,121.5z M472.7,433h-396c1.2-3.8,1.9-7.9,1.9-12.1h347.2c4.5,0,8.1-3.6,8.1-8.1s-3.6-8.1-8.1-8.1H78.7V135
			H485v269.7h-27.5c-4.5,0-8.1,3.6-8.1,8.1s3.6,8.1,8.1,8.1H485C484.8,427.6,479.4,433,472.7,433z"/>
	</g>
</g>
</svg>
