<?xml version="1.0" encoding="utf-8"?>
<!-- Generator: Adobe Illustrator 22.1.0, SVG Export Plug-In . SVG Version: 6.00 Build 0)  -->
<svg version="1.1" id="图层_1" xmlns="http://www.w3.org/2000/svg" xmlns:xlink="http://www.w3.org/1999/xlink" x="0px" y="0px"
	 viewBox="0 0 512 512" style="enable-background:new 0 0 512 512;" xml:space="preserve">
<style type="text/css">
	.st0{fill:#00A0E9;}
</style>
<g>
	<g>
		<path class="st0" d="M504.7,307.6c-2.2,14.4-11.1,24.4-22.2,24.4h-2.2c-36.7,0-66.6,30-66.6,67.7c0,12.2,5.6,25.5,5.6,25.5
			c5.6,13.3,1.1,28.9-10,36.7h-1.1l-64.4,36.7h-1.1c-3.3,1.1-7.8,2.2-12.2,2.2c-8.9,0-18.9-4.4-24.4-10
			c-7.8-8.9-33.3-32.2-53.3-32.2c-20,0-45.5,23.3-53.3,31.1c-5.6,6.7-14.4,10-24.4,10c-4.4,0-8.9-1.1-12.2-2.2h-1.1l-62.2-35.5h-1.1
			c-11.1-7.8-15.5-24.4-10-36.7c0,0,5.6-13.3,5.6-25.5c0-36.6-30-67.7-66.6-67.7c-10,0-18.9-8.9-22.2-24.4c0-1.1-5.6-28.9-5.6-51.1
			c0-22.2,5.6-50,5.6-51.1c2.2-14.4,11.1-24.4,22.2-24.4h2.2c36.7,0,66.6-30,66.6-67.7c0-12.2-5.6-25.5-5.6-25.5
			c-6.7-11.1-2.2-27.8,10-35.5h1.1l66.6-36.7h1.1c2.2-2.2,5.6-3.3,10-3.3c8.9,0,17.8,3.3,24.4,10c7.8,7.8,32.2,30,52.2,30
			c20,0,44.4-21.1,52.2-28.9c5.6-6.7,14.4-10,23.3-10c4.4,0,8.9,1.1,12.2,2.2h1.1L409.2,51h1.1c11.1,7.8,15.5,24.4,10,36.7
			c0,0-5.6,13.3-5.6,25.5c0,36.6,30,67.7,66.6,67.7h2.2c10,0,18.9,8.9,22.2,24.4c0,1.1,5.6,28.9,5.6,51.1
			C510.3,278.7,504.7,306.4,504.7,307.6L504.7,307.6z M483.6,209.8c-1.1-3.3-1.1-4.4-2.2-5.6c-48.9,0-88.8-40-88.8-90
			c0-15.5,5.6-31.1,7.8-34.4c1.1-3.3,0-7.8-2.2-10l-62.2-34.4h-3.3c-3.3,0-6.7,1.1-7.8,3.3c-3.3,3.3-35.5,36.7-68.9,36.7
			c-33.3,0-65.5-33.3-68.9-36.7c-1.1-3.3-4.4-4.4-7.8-4.4H176l-64.4,35.5c-2.2,2.2-3.3,6.7-2.2,10c0,0,7.8,17.8,7.8,34.4
			c0,48.9-40,90-88.8,90c-1.1,1.1-1.1,3.3-2.2,5.6c0,0-4.4,26.7-4.4,46.6c0,20,4.4,46.6,4.4,46.6c1.1,3.3,1.1,4.4,2.2,5.6
			c48.9,0,88.8,40,88.8,90c0,14.4-5.6,28.9-7.8,34.4c-1.1,3.3,0,7.8,2.2,10l61.1,34.4h3.3c3.3,0,6.7-1.1,7.8-3.3
			c1.1-1.1,35.5-38.9,70-38.9s66.6,35.5,70,38.9c1.1,1.1,4.4,3.3,7.8,3.3h3.3l63.3-35.5c2.2-2.2,3.3-6.7,2.2-10
			c-1.1-2.2-7.8-17.8-7.8-34.4c0-48.9,40-90,88.8-90c1.1-1.1,1.1-3.3,2.2-5.6c0,0,4.4-26.7,4.4-46.6
			C488.1,236.5,483.6,209.8,483.6,209.8L483.6,209.8z M254.8,345.3c-48.9,0-88.9-40-88.9-88.9c0-48.9,40-88.8,88.9-88.8
			c48.9,0,88.8,40,88.8,88.8C343.7,305.3,303.7,345.3,254.8,345.3L254.8,345.3z M254.8,188.7c-36.7,0-67.7,30-67.7,67.7
			c0,37.8,30,67.8,67.7,67.8c37.8,0,67.7-30,67.7-67.8C322.6,218.7,291.5,188.7,254.8,188.7L254.8,188.7z M254.8,188.7"/>
	</g>
</g>
</svg>
