<svg xmlns="http://www.w3.org/2000/svg" viewBox="0 0 181.417 181.417"><title>详情</title><path d="M414.749,335.065c-2.524,0-4.305-.4-5.314-1.223-1.036-.8-1.54-2.311-1.54-4.517a23.653,23.653,0,0,1,.477-3.907c.319-1.726.691-3.268,1.063-4.623l4.863-16.741a23.96,23.96,0,0,0,.982-5.05c.186-1.859.266-3.135.266-3.852a10.845,10.845,0,0,0-3.826-8.611c-2.55-2.2-6.164-3.3-10.894-3.3a28.089,28.089,0,0,0-8.289,1.356c-2.95.9-6,1.966-9.193,3.241l-1.3,5.182c.956-.345,2.072-.717,3.4-1.089a14.97,14.97,0,0,1,3.907-.585c2.577,0,4.3.4,5.234,1.276.9.851,1.355,2.338,1.355,4.491a19.7,19.7,0,0,1-.425,3.932c-.319,1.542-.691,3.057-1.09,4.571l-4.888,16.822c-.4,1.567-.717,3.161-.957,4.756a30.358,30.358,0,0,0-.292,4.119,10.77,10.77,0,0,0,3.933,8.557c2.63,2.232,6.3,3.348,11.052,3.348a25.7,25.7,0,0,0,8.1-1.169c2.338-.8,5.447-1.94,9.353-3.429l1.3-5.181a22.1,22.1,0,0,1-3.269,1.036,16.8,16.8,0,0,1-4.012.585Zm5.129-79.455a11.633,11.633,0,0,0-8.21-3.109,11.973,11.973,0,0,0-8.237,3.109,9.769,9.769,0,0,0-3.455,7.493,9.671,9.671,0,0,0,3.455,7.468,12.509,12.509,0,0,0,16.447,0,9.714,9.714,0,0,0,3.4-7.468,9.814,9.814,0,0,0-3.4-7.493ZM402.66,207.166a90.709,90.709,0,1,0,90.709,90.7,90.694,90.694,0,0,0-90.709-90.7Zm0,173.18a82.458,82.458,0,1,1,82.445-82.458,82.443,82.443,0,0,1-82.445,82.458Zm0,0" transform="translate(-311.951 -207.166)"/></svg>