<svg xmlns="http://www.w3.org/2000/svg" xmlns:xlink="http://www.w3.org/1999/xlink" viewBox="0 0 181.242 181.035"><defs><clipPath id="a" transform="translate(-313.204 -208.123)"><rect x="313.231" y="207.967" width="181.417" height="181.417" style="fill:none"/></clipPath></defs><title>错误</title><g style="clip-path:url(#a)"><path d="M438.971,325.676l-27.066-27.035,27.066-27.034a5.71,5.71,0,1,0-8.08-8.071L403.825,290.57l-27.067-27.036a5.71,5.71,0,1,0-8.079,8.071l27.067,27.035-27.067,27.034a5.711,5.711,0,0,0,8.081,8.072l27.065-27.035,27.067,27.036a5.71,5.71,0,1,0,8.079-8.071" transform="translate(-313.204 -208.123)"/><path d="M403.825,377.08a78.447,78.447,0,1,1,78.62-78.439,78.633,78.633,0,0,1-78.62,78.439Zm0-168.957a90.518,90.518,0,1,0,90.622,90.518,90.668,90.668,0,0,0-90.622-90.518Zm0,0" transform="translate(-313.204 -208.123)"/></g></svg>