<?xml version="1.0" encoding="utf-8"?>
<!-- Generator: Adobe Illustrator 22.1.0, SVG Export Plug-In . SVG Version: 6.00 Build 0)  -->
<svg version="1.1" id="图层_1" xmlns="http://www.w3.org/2000/svg" xmlns:xlink="http://www.w3.org/1999/xlink" x="0px" y="0px"
	 viewBox="0 0 512 512" style="enable-background:new 0 0 512 512;" xml:space="preserve">
<g>
	<path d="M201.8,391.4v-80.8H121c-44.6,0-80.8,36.2-80.8,80.8c0,44.7,36.2,80.8,80.8,80.8C165.6,472.3,201.8,436.1,201.8,391.4
		L201.8,391.4z M242.2,391.4c0,67-54.3,121.3-121.3,121.3S-0.3,458.4-0.3,391.4c0-67,54.3-121.3,121.3-121.3h121.3V391.4z
		 M309.6,391.4v-80.8h80.8c44.7,0,80.8,36.2,80.8,80.8c0,44.7-36.2,80.8-80.8,80.8C345.8,472.3,309.6,436.1,309.6,391.4L309.6,391.4
		z M269.2,391.4c0,67,54.3,121.3,121.3,121.3c67,0,121.3-54.3,121.3-121.3c0-67-54.3-121.3-121.3-121.3H269.2V391.4z M201.8,122
		v80.8H121c-44.6,0-80.8-36.2-80.8-80.8S76.3,41.1,121,41.1C165.6,41.1,201.8,77.3,201.8,122L201.8,122z M242.2,122
		C242.2,55,187.9,0.7,121,0.7S-0.3,55-0.3,122S54,243.2,121,243.2h121.3V122z M309.6,122v80.8h80.8c44.7,0,80.8-36.2,80.8-80.8
		s-36.2-80.8-80.8-80.8C345.8,41.1,309.6,77.3,309.6,122L309.6,122z M269.2,122c0-67,54.3-121.3,121.3-121.3
		c67,0,121.3,54.3,121.3,121.3s-54.3,121.3-121.3,121.3H269.2V122z M269.2,122"/>
</g>
</svg>
