<?xml version="1.0" encoding="utf-8"?>
<!-- Generator: Adobe Illustrator 22.1.0, SVG Export Plug-In . SVG Version: 6.00 Build 0)  -->
<svg version="1.1" id="图层_1" xmlns="http://www.w3.org/2000/svg" xmlns:xlink="http://www.w3.org/1999/xlink" x="0px" y="0px"
	 viewBox="0 0 512 512" style="enable-background:new 0 0 512 512;" xml:space="preserve">
<style type="text/css">
	.st0{clip-path:url(#SVGID_2_);fill:#2196F3;}
	.st1{fill:#2196F3;}
	.st2{fill:#4DB7FC;}
</style>
<g>
	<g>
		<defs>
			<rect id="SVGID_1_" x="-0.6" y="0.6" width="512" height="512.6"/>
		</defs>
		<clipPath id="SVGID_2_">
			<use xlink:href="#SVGID_1_"  style="overflow:visible;"/>
		</clipPath>
		<path class="st0" d="M472.9,26.4c6.8,0,12.9,6,12.9,12.9v435.2c0,6.8-6,12.9-12.9,12.9H37.7c-6.8,0-12.9-6-12.9-12.9V39
			c0-6.8,6-12.9,12.9-12.9L472.9,26.4 M472.9,0.7H37.7C16.4,0.7-0.6,17.8-0.6,39v435.2c0,21.3,17.1,38.3,38.3,38.3h435.2
			c21.3,0,38.3-17.1,38.3-38.3V39C511.3,17.8,494.2,0.7,472.9,0.7L472.9,0.7z M472.9,0.7"/>
	</g>
	<path class="st1" d="M424.1,0.7H64.2c-24.4,0-44.4,20-44.9,44.4v105.8h477.8V73.7C497.1,33.5,464.8,0.7,424.1,0.7L424.1,0.7z
		 M88.1,99.7C78.6,99.7,71,92,71,82.6c0-9.5,7.6-17.1,17.1-17.1c9.5,0,17.1,7.6,17.1,17.1C105.2,92,97.5,99.7,88.1,99.7L88.1,99.7z
		 M146.1,99.7c-9.4,0-17.1-7.6-17.1-17.1c0-9.5,7.6-17.1,17.1-17.1c9.5,0,17.1,7.6,17.1,17.1C163.2,92,155.6,99.7,146.1,99.7
		L146.1,99.7z M204.1,99.7c-9.5,0-17.1-7.6-17.1-17.1c0-9.5,7.6-17.1,17.1-17.1s17.1,7.6,17.1,17.1C221.2,92,213.6,99.7,204.1,99.7
		L204.1,99.7z M204.1,99.7"/>
	<path class="st2" d="M135.3,326.7l52-52c5.3-5,5.3-14.2,0-19.2l-3.4-2.9c-5.2-5.3-14.2-5.3-19.2,0l-60.1,59.1
		c-0.8,0.5-1.8,1.3-2.1,1.6l-3.4,3.4c-5.2,5.5-5.2,14.2,0,19.7l3.4,3.4c0.8,0.8,1.3,1.3,2.1,1.6l59.6,59.9c5.3,5,14.2,5,19.2,0
		l3.4-3.4c5.3-5,5.3-14.2,0-19.2L135.3,326.7z M412.8,316.8l-3.4-3.4c-0.8-0.8-1.3-1.3-2.1-1.6l-59.9-59.9c-5-5-14.2-5-19.2,0
		l-3.4,3.4c-5,5-5,14.2,0,19.2l52,52l-52,52c-5,5-5,14.2,0,19.2l3.4,3.4c5,5,14.2,5,19.2,0l59.9-59.9c0.8-0.5,1.6-1.3,2.1-1.6
		l3.4-3.4C417.8,330.9,417.8,322.3,412.8,316.8L412.8,316.8z M215.1,416.5l57.8-196.6l30.7,8.9l-57.5,196.6L215.1,416.5z
		 M215.1,416.5"/>
</g>
</svg>
