<?xml version="1.0" encoding="utf-8"?>
<!-- Generator: Adobe Illustrator 22.1.0, SVG Export Plug-In . SVG Version: 6.00 Build 0)  -->
<svg version="1.1" id="图层_1" xmlns="http://www.w3.org/2000/svg" xmlns:xlink="http://www.w3.org/1999/xlink" x="0px" y="0px"
	 viewBox="0 0 512 512" style="enable-background:new 0 0 512 512;" xml:space="preserve">
<style type="text/css">
	.st0{fill:#C4790C;}
	.st1{fill:#00A0E9;}
	.st2{fill:#F5AC5B;}
	.st3{fill:#12546B;}
	.st4{fill:#BFC018;}
	.st5{fill:#00E86E;}
	.st6{fill:#2A9CC4;}
	.st7{fill:#73CBEA;}
</style>
<path class="st0" d="M399.1,416.1c-25.6,0-48-22.4-48-48c0-25.6,22.4-48,48-48c25.6,0,48,22.4,48,48
	C447.1,393.7,424.7,416.1,399.1,416.1L399.1,416.1z"/>
<path class="st1" d="M207.1,256.1c-25.6,0-48-22.4-48-48c0-25.6,22.4-48,48-48c25.6,0,48,22.4,48,48
	C255.1,233.7,232.7,256.1,207.1,256.1L207.1,256.1z"/>
<path class="st2" d="M351.1,128.1c-19.2,0-32-12.8-32-32c0-19.2,12.8-32,32-32c19.2,0,32,12.8,32,32
	C383.1,115.3,370.3,128.1,351.1,128.1L351.1,128.1z"/>
<path class="st3" d="M479.1,224.1c-19.2,0-32-12.8-32-32c0-19.2,12.8-32,32-32c19.2,0,32,12.8,32,32
	C511.1,211.3,498.3,224.1,479.1,224.1L479.1,224.1z"/>
<path class="st4" d="M95.1,160.1c-19.2,0-32-12.8-32-32c0-19.2,12.8-32,32-32c19.2,0,32,12.8,32,32
	C127.1,147.3,114.3,160.1,95.1,160.1L95.1,160.1z"/>
<path class="st5" d="M255.1,384.1c-19.2,0-32-12.8-32-32c0-19.2,12.8-32,32-32c19.2,0,32,12.8,32,32
	C287.1,371.3,274.3,384.1,255.1,384.1L255.1,384.1z"/>
<path class="st6" d="M351.1,256.1c-19.2,0-32-12.8-32-32c0-19.2,12.8-32,32-32c19.2,0,32,12.8,32,32
	C383.1,243.3,370.3,256.1,351.1,256.1L351.1,256.1z"/>
<path class="st7" d="M127.1,416.1c-19.2,0-32-12.8-32-32c0-19.2,12.8-32,32-32c19.2,0,32,12.8,32,32
	C159.1,403.3,146.3,416.1,127.1,416.1L127.1,416.1z"/>
<polygon class="st1" points="-0.9,496.1 -0.9,0.1 31.1,0.1 31.1,480.1 511.1,480.1 511.1,512.1 -0.9,512.1 "/>
<path class="st1" d="M-0.9,496.1"/>
</svg>
