<?xml version="1.0" encoding="utf-8"?>
<!-- Generator: Adobe Illustrator 22.1.0, SVG Export Plug-In . SVG Version: 6.00 Build 0)  -->
<svg version="1.1" id="图层_1" xmlns="http://www.w3.org/2000/svg" xmlns:xlink="http://www.w3.org/1999/xlink" x="0px" y="0px"
	 viewBox="0 0 512 512" style="enable-background:new 0 0 512 512;" xml:space="preserve">
<style type="text/css">
	.st0{clip-path:url(#SVGID_2_);fill:#5282C3;}
	.st1{fill:#5282C3;}
</style>
<g>
	<g>
		<defs>
			<rect id="SVGID_1_" width="512" height="512"/>
		</defs>
		<clipPath id="SVGID_2_">
			<use xlink:href="#SVGID_1_"  style="overflow:visible;"/>
		</clipPath>
		<path class="st0" d="M469.3,511.2H42.6c-23.5,0-42.6-21.6-42.6-48V48C0,21.6,19.2,0,42.6,0h174.6c23.5,0,42.6,21.6,42.6,48v17.5
			c0,13.2,9.6,24,21.3,24h188.1c23.5,0,42.6,21.6,42.6,48v325.3C512,489.6,492.8,511.2,469.3,511.2 M42.6,24
			c-11.7,0-21.3,10.8-21.3,24v415.1c0,13.2,9.6,24,21.3,24h426.7c11.7,0,21.3-10.8,21.3-24V137.6c0-13.2-9.6-24-21.3-24H281.2
			c-23.5,0-42.6-21.6-42.6-48V48c0-13.2-9.6-24-21.3-24H42.6z M42.6,24"/>
	</g>
	<rect x="10.7" y="194.3" class="st1" width="501.3" height="24"/>
</g>
</svg>
