<?xml version="1.0" encoding="utf-8"?>
<!-- Generator: Adobe Illustrator 22.1.0, SVG Export Plug-In . SVG Version: 6.00 Build 0)  -->
<svg version="1.1" id="图层_1" xmlns="http://www.w3.org/2000/svg" xmlns:xlink="http://www.w3.org/1999/xlink" x="0px" y="0px"
	 viewBox="0 0 512 512" style="enable-background:new 0 0 512 512;" xml:space="preserve">
<style type="text/css">
	.st0{fill:#040000;}
</style>
<g>
	<g>
		<path class="st0" d="M311.9,165h-21v-21c0-8.8-7.2-16-16-16h-37.5c-8.8,0-16,7.1-16,16v21h-21c-8.8,0-16,7.2-16,16v37.5
			c0,8.8,7.1,16,16,16h21v21c0,8.8,7.1,15.9,16,15.9h37.5c8.8,0,16-7.1,16-15.9v-21h21c8.8,0,16-7.2,16-16V181
			C327.8,172.2,320.7,165,311.9,165z M311.9,218.5l-37,0v37h-37.5v-37h-37V181h37v-37h37.5v37h37V218.5z"/>
		<path class="st0" d="M458.9,25.8H53.3C24,25.8,0.1,49.7,0.1,79v281.3c0,29.3,23.9,53.2,53.2,53.2h101v45.8h-17.6
			c-7.3,0-13.3,6-13.3,13.3s6,13.3,13.3,13.3h30.9h177h30.9c7.3,0,13.3-5.9,13.3-13.3s-6-13.3-13.3-13.3h-17.6v-45.8h101
			c29.3,0,53.2-23.9,53.2-53.2V79C512.1,49.7,488.3,25.8,458.9,25.8z M180.9,459.3v-45.6h150.4v45.6H180.9z M26.7,87.5h458.8v224.1
			H26.7V87.5z M53.3,52.4h405.6c12,0,22.1,8.1,25.4,19.1H27.9C31.2,60.6,41.3,52.4,53.3,52.4z M458.9,386.9H53.3
			c-14.6,0-26.6-12-26.6-26.6v-32.8h458.8v32.8C485.5,374.9,473.6,386.9,458.9,386.9z"/>
		<path class="st0" d="M256.1,335.2c-11.9,0-21.6,9.7-21.6,21.6c0,11.9,9.7,21.6,21.6,21.6c11.9,0,21.6-9.7,21.6-21.6
			C277.8,344.9,268.1,335.2,256.1,335.2z M256.1,362.5c-3.1,0-5.7-2.5-5.7-5.7c0-3.1,2.5-5.7,5.7-5.7c3.1,0,5.7,2.5,5.7,5.7
			C261.8,359.9,259.3,362.5,256.1,362.5z"/>
	</g>
</g>
</svg>
