<?xml version="1.0" encoding="utf-8"?>
<!-- Generator: Adobe Illustrator 22.1.0, SVG Export Plug-In . SVG Version: 6.00 Build 0)  -->
<svg version="1.1" id="图层_1" xmlns="http://www.w3.org/2000/svg" xmlns:xlink="http://www.w3.org/1999/xlink" x="0px" y="0px"
	 viewBox="0 0 512 512" style="enable-background:new 0 0 512 512;" xml:space="preserve">
<style type="text/css">
	.st0{clip-path:url(#SVGID_2_);fill:#00A0E9;}
	.st1{fill:#00A0E9;}
</style>
<g>
	<g>
		<defs>
			<rect id="SVGID_1_" x="-0.1" y="0.1" width="512" height="512.5"/>
		</defs>
		<clipPath id="SVGID_2_">
			<use xlink:href="#SVGID_1_"  style="overflow:visible;"/>
		</clipPath>
		<path class="st0" d="M495.5,0.4H15.8c-9.6,0-16,6.4-16,16V496c0,9.6,6.4,16,16,16h479.6c9.6,0,16-6.4,16-16V16.4
			C511.4,6.8,505.1,0.4,495.5,0.4L495.5,0.4z M479.5,32.4v95.9H31.8V32.4H479.5z M31.8,480V160.3h447.7V480H31.8z M31.8,480"/>
	</g>
	<path class="st1" d="M399.5,221H255.6c-9.6,0-16,6.4-16,16s6.4,16,16,16h143.9c9.6,0,16-6.4,16-16S405.9,221,399.5,221L399.5,221z
		 M399.5,310.6H111.8c-6.4,0-16,6.4-16,16c0,9.6,6.4,16,16,16h284.6c9.6,0,16-6.4,16-16C412.3,317,405.9,310.6,399.5,310.6
		L399.5,310.6z M399.5,396.9H111.8c-9.6,0-16,6.4-16,16c0,9.6,6.4,16,16,16h284.6c9.6,0,16-6.4,16-16
		C412.3,403.3,405.9,396.9,399.5,396.9L399.5,396.9z M399.5,396.9"/>
	<path class="st1" d="M73.4,80.3c0,14.1,11.5,25.6,25.6,25.6c14.1,0,25.6-11.5,25.6-25.6c0-14.1-11.5-25.6-25.6-25.6
		C84.8,54.8,73.4,66.2,73.4,80.3L73.4,80.3z M73.4,80.3"/>
	<path class="st1" d="M156.5,80.3c0,9.1,4.9,17.6,12.8,22.2c7.9,4.6,17.7,4.6,25.6,0c7.9-4.6,12.8-13,12.8-22.2
		c0-9.1-4.9-17.6-12.8-22.2c-7.9-4.6-17.7-4.6-25.6,0C161.4,62.8,156.5,71.2,156.5,80.3L156.5,80.3z M156.5,80.3"/>
	<path class="st1" d="M236.5,80.3c0,14.1,11.5,25.6,25.6,25.6c14.1,0,25.6-11.5,25.6-25.6c0-9.1-4.9-17.6-12.8-22.2
		c-7.9-4.6-17.7-4.6-25.6,0C241.3,62.8,236.5,71.2,236.5,80.3L236.5,80.3z M236.5,80.3"/>
</g>
</svg>
