<?xml version="1.0" encoding="utf-8"?>
<!-- Generator: Adobe Illustrator 22.1.0, SVG Export Plug-In . SVG Version: 6.00 Build 0)  -->
<svg version="1.1" id="图层_1" xmlns="http://www.w3.org/2000/svg" xmlns:xlink="http://www.w3.org/1999/xlink" x="0px" y="0px"
	 viewBox="0 0 512 512" style="enable-background:new 0 0 512 512;" xml:space="preserve">
<g>
	<path d="M493.1,421h-240c-8.1-31.5-36.7-54.9-70.9-54.9c-34.1,0-62.7,23.3-70.9,54.9H17.7c-10.1,0-18.3,8.2-18.3,18.3
		c0,10.1,8.2,18.3,18.3,18.3h93.7c8.1,31.5,36.7,54.9,70.9,54.9c34.1,0,62.7-23.3,70.9-54.9h240c10.1,0,18.3-8.2,18.3-18.3
		C511.4,429.1,503.2,421,493.1,421L493.1,421z M182.3,476.4c-20.5,0-37.1-16.6-37.1-37.1c0-20.5,16.6-37.1,37.1-37.1
		s37.1,16.6,37.1,37.1C219.4,459.8,202.8,476.4,182.3,476.4L182.3,476.4z M182.3,476.4"/>
	<path d="M493.1,238.1h-93.7c-8.1-31.5-36.7-54.9-70.9-54.9c-34.1,0-62.7,23.3-70.9,54.9h-240c-10.1,0-18.3,8.2-18.3,18.3
		c0,10.1,8.2,18.3,18.3,18.3h240c8.1,31.5,36.7,54.9,70.9,54.9c34.1,0,62.7-23.3,70.9-54.9h93.7c10.1,0,18.3-8.2,18.3-18.3
		C511.4,246.3,503.2,238.1,493.1,238.1L493.1,238.1z M328.5,293.5c-20.5,0-37.1-16.6-37.1-37.1c0-20.5,16.6-37.1,37.1-37.1
		c20.5,0,37.1,16.6,37.1,37.1C365.7,276.9,349.1,293.5,328.5,293.5L328.5,293.5z M328.5,293.5"/>
	<path d="M17.7,91.8h93.7c8.1,31.5,36.7,54.9,70.9,54.9c34.1,0,62.7-23.3,70.9-54.9h240c10.1,0,18.3-8.2,18.3-18.3
		c0-10.1-8.2-18.3-18.3-18.3h-240C245,23.7,216.4,0.4,182.3,0.4c-34.1,0-62.7,23.3-70.9,54.9H17.7c-10.1,0-18.3,8.2-18.3,18.3
		C-0.6,83.7,7.6,91.8,17.7,91.8L17.7,91.8z M182.3,36.4c20.5,0,37.1,16.6,37.1,37.1c0,20.5-16.6,37.1-37.1,37.1
		s-37.1-16.6-37.1-37.1C145.1,53,161.7,36.4,182.3,36.4L182.3,36.4z M182.3,36.4"/>
</g>
</svg>
