<svg id="图层_1" data-name="图层 1" xmlns="http://www.w3.org/2000/svg" xmlns:xlink="http://www.w3.org/1999/xlink" viewBox="0 0 511.71 510.8"><defs><style>.cls-1{fill:none;}.cls-2{clip-path:url(#clip-path);}</style><clipPath id="clip-path" transform="translate(-143.44 -45.43)"><rect class="cls-1" x="143.44" y="44.92" width="512" height="512"/></clipPath></defs><title>资源管理</title><g class="cls-2"><path d="M399.28,82a10.53,10.53,0,0,1,2.4.23l194.15,98-194.15,98a10,10,0,0,1-2.4.23,10.1,10.1,0,0,1-2.4-.23l-194.2-98,194.15-98a19.71,19.71,0,0,1,2.45-.17m0-36.52c-6.62,0-13.2,1.26-18.22,3.77L158.74,161.44c-20.4,10.27-20.4,27.16,0,37.43L381.06,311.11c5,2.51,11.6,3.76,18.22,3.76s13.2-1.25,18.23-3.76L639.83,198.87c20.39-10.27,20.39-27.16,0-37.43L417.51,49.2c-5-2.51-11.66-3.77-18.23-3.77ZM633.77,233.9a22.38,22.38,0,0,0-10.68,2.68L388.77,362.35c-10.11,5.42-13.6,17.51-7.71,26.87C385,395.5,392.2,399,399.57,399a22.38,22.38,0,0,0,10.68-2.68L644.57,270.54c10.11-5.43,13.6-17.52,7.71-26.88a21.88,21.88,0,0,0-18.51-9.76Zm0,0" transform="translate(-143.44 -45.43)"/><path d="M164.85,233.9a21.82,21.82,0,0,0-18.51,9.76c-5.89,9.36-2.46,21.45,7.71,26.88L388.6,396.41a22.27,22.27,0,0,0,10.68,2.68,21.85,21.85,0,0,0,18.52-9.76c5.88-9.35,2.45-21.45-7.72-26.87L175.54,236.58a22.42,22.42,0,0,0-10.69-2.68Zm468.92,78.57a22.28,22.28,0,0,0-10.68,2.69L388.77,440.92c-10.11,5.42-13.6,17.51-7.71,26.87,3.94,6.28,11.14,9.76,18.51,9.76a22.38,22.38,0,0,0,10.68-2.68L644.57,349.11c10.11-5.42,13.6-17.52,7.71-26.88a22,22,0,0,0-18.51-9.76Zm0,0" transform="translate(-143.44 -45.43)"/><path d="M164.85,312.47a21.84,21.84,0,0,0-18.51,9.76c-5.89,9.36-2.46,21.46,7.71,26.88L388.6,475a22.27,22.27,0,0,0,10.68,2.68,21.86,21.86,0,0,0,18.52-9.75c5.88-9.36,2.45-21.46-7.72-26.88L175.54,315.16a22.32,22.32,0,0,0-10.69-2.69Zm468.92,78.58a22.27,22.27,0,0,0-10.68,2.68L388.77,519.49c-10.11,5.42-13.6,17.52-7.71,26.87,3.94,6.28,11.14,9.76,18.51,9.76a22.27,22.27,0,0,0,10.68-2.68L644.57,427.68c10.11-5.42,13.6-17.52,7.71-26.88a21.89,21.89,0,0,0-18.51-9.75Zm0,0" transform="translate(-143.44 -45.43)"/><path d="M164.85,391.05a21.83,21.83,0,0,0-18.51,9.75c-5.89,9.36-2.46,21.46,7.71,26.88L388.6,553.55a22.28,22.28,0,0,0,10.68,2.69,21.85,21.85,0,0,0,18.52-9.76c5.88-9.36,2.45-21.46-7.72-26.88L175.54,393.73a22.31,22.31,0,0,0-10.69-2.68Zm0,0" transform="translate(-143.44 -45.43)"/></g></svg>