<?xml version="1.0" encoding="utf-8"?>
<!-- Generator: Adobe Illustrator 22.1.0, SVG Export Plug-In . SVG Version: 6.00 Build 0)  -->
<svg version="1.1" id="图层_1" xmlns="http://www.w3.org/2000/svg" xmlns:xlink="http://www.w3.org/1999/xlink" x="0px" y="0px"
	 viewBox="0 0 512 512" style="enable-background:new 0 0 512 512;" xml:space="preserve">
<style type="text/css">
	.st0{fill:#FFFFFF;}
	.st1{clip-path:url(#SVGID_2_);fill:#EEEEEE;}
	.st2{clip-path:url(#SVGID_2_);fill:#202D47;}
	.st3{fill:#227CE5;}
	.st4{fill:#2571CB;}
	.st5{fill:#202D47;}
	.st6{fill:#2DCD54;}
	.st7{fill:#31B952;}
</style>
<g>
	<path class="st0" d="M104.2,489.2L10.8,201.8L255.2,24.2l244.5,177.6l-93.4,287.4H104.2z M104.2,489.2"/>
	<path class="st0" d="M104.2,489.2L10.8,201.8L255.2,24.2l244.5,177.6l-93.4,287.4H104.2z M104.2,489.2"/>
	<g>
		<defs>
			<rect id="SVGID_1_" x="-0.6" y="12.7" width="512" height="488.6"/>
		</defs>
		<clipPath id="SVGID_2_">
			<use xlink:href="#SVGID_1_"  style="overflow:visible;"/>
		</clipPath>
		<path class="st1" d="M255.2,24.2l-27.8,20.2l232.4,168.8l-89.7,276h36.2l93.4-287.4L255.2,24.2z M255.2,24.2"/>
		<path class="st2" d="M406.3,500.6H104.2c-5,0-9.3-3.2-10.8-7.9L0,205.3c-1.5-4.7,0.2-9.9,4.2-12.8L248.6,14.9
			c4-2.9,9.4-2.9,13.4,0l244.5,177.6c4,2.9,5.6,8,4.2,12.8l-93.4,287.4C415.7,497.4,411.3,500.6,406.3,500.6L406.3,500.6z
			 M112.4,477.8h285.6l88.3-271.6L255.2,38.3L24.2,206.1L112.4,477.8z M112.4,477.8"/>
	</g>
	<path class="st3" d="M137,438.9l-45.6-219l163.8-119l163.8,119l-62.6,192.6L137,438.9z M137,438.9"/>
	<path class="st4" d="M257,98l-34.5,25.1l152.8,111l-58.6,180.5l41.7-5L420.8,217L257,98z M257,98"/>
	<path class="st5" d="M137,450.2c-5.4,0-10-3.8-11.2-9.1l-45.6-219c-0.9-4.4,0.9-8.9,4.4-11.6l163.8-119c4-2.9,9.4-2.9,13.4,0
		l163.8,119c4,2.9,5.6,8,4.2,12.8l-62.6,192.6c-1.4,4.2-5.1,7.2-9.5,7.8l-219.5,26.4H137z M104.1,224.8L146,426.3L347.9,402
		l57.8-177.8L255.2,115L104.1,224.8z M104.1,224.8"/>
	<path class="st6" d="M188.2,372.1l3.3-127.1l63.7-70.3l72.1,80.9l-18.2,78.9L188.2,372.1z M188.2,372.1"/>
	<path class="st7" d="M255.2,174.7l-15,16.5l47.2,53l-18.2,78.9l-80.4,25l-0.6,24l120.9-37.6l18.2-78.9L255.2,174.7z M255.2,174.7"
		/>
	<path class="st5" d="M188.2,383.5c-2.4,0-4.9-0.8-6.9-2.3c-2.9-2.2-4.6-5.7-4.5-9.4l3.4-127.1c0.1-2.7,1.1-5.4,3-7.4l63.7-70.3
		c2.2-2.4,5.3-3.8,8.5-3.8c3.2,0,6.3,1.4,8.5,3.8L336,248c2.5,2.7,3.4,6.6,2.6,10.1l-18.3,78.9c-0.9,3.9-3.9,7.1-7.7,8.3L191.7,383
		C190.5,383.4,189.3,383.5,188.2,383.5L188.2,383.5z M202.8,249.6l-2.8,107l99.5-30.9l15.4-66.8l-59.8-67.1L202.8,249.6z
		 M202.8,249.6"/>
	<path class="st5" d="M115,481.7l-18.9-12.8l147.5-217.7c1.6-2.4,4.1-4.1,6.9-4.7l246.6-55.8l5,22.2L260,267.7L115,481.7z
		 M115,481.7"/>
	<path class="st5" d="M387.6,487.9L246,267.7L16.7,212.9l5.3-22.2l233.7,55.8c2.8,0.7,5.4,2.4,7,4.9l144.1,224.1L387.6,487.9z
		 M387.6,487.9"/>
	<rect x="243.9" y="24.2" class="st5" width="22.8" height="233.5"/>
</g>
</svg>
